<svg width="77" height="91" viewBox="0 0 77 91" fill="none" xmlns="http://www.w3.org/2000/svg">
<path d="M67.0762 47.3395C67.6397 40.3876 73.1716 36.0066 75.124 29.6538C76.5709 23.0533 65.8029 18.7869 61.5886 14.816C52.5106 3.79882 28.3118 6.09452 17.7023 15.4408C14.5779 14.536 10.348 22.1714 7.98864 24.2248C2.33869 27.1057 -1.36465 37.1401 4.64061 41.1102C10.9235 44.0237 11.7957 57.1844 18.842 52.0354C19.633 53.7385 22.0766 54.4783 21.7322 56.7072C20.2655 63.4335 10.8389 68.8225 15.014 76.4571C7.90166 78.4406 6.55654 91.2577 14.6109 89.1309C16.2162 90.6356 18.7189 90.6546 20.3339 89.2031C21.4021 91.3272 24.1502 90.1588 25.7734 89.395C28.4244 88.3885 32.1759 86.8332 31.3484 83.326H48.6496C47.9542 86.9097 52.3475 87.9473 54.87 89.0237C56.4986 89.6978 58.745 90.9932 59.9037 88.9076C61.5098 90.3863 64.226 88.9519 65.5793 87.6926C71.974 91.4716 73.4578 79.7508 67.8175 76.7694C71.4941 68.0319 59.9029 63.1691 58.7943 55.3858C58.5722 54.8561 58.4778 54.2868 58.5823 53.6659C58.7337 52.767 59.2521 51.969 59.7286 51.2067C59.9612 50.5788 60.2761 50.1346 60.6481 49.8189C60.8399 49.5816 61.0523 49.363 61.3001 49.1778C61.9559 48.6878 62.7221 48.6738 63.4385 48.9607C64.8419 48.8349 66.2592 48.7491 67.0762 47.3395Z" fill="#FFCFA0"/>
<path d="M58.3518 71.7232C54.9199 78.234 50.6123 72.9098 48.7034 84.9258C50.8309 81.5813 32.1185 84.0389 31.4553 83.3256C30.3125 79.0673 25.9715 77.2131 22.9524 75.3915C23.2972 73.8212 21.605 71.8404 23.8696 70.5963C25.7195 69.13 30.709 71.2634 30.3948 67.6307C24.2816 55.5993 41.3903 65.3603 46.8329 61.4911C49.1674 60.5906 52.8568 60.0171 53.8532 63.0257C54.4811 64.6062 52.2766 66.7811 53.9126 67.9585C56.6502 67.9946 58.8395 68.2656 58.3518 71.7232Z" fill="#FAF1DD"/>
<path d="M46.6023 50.6176C44.4235 51.9026 41.4055 49.7828 40.4079 47.7604C39.6639 45.4049 36.8751 54.5132 33.0059 51.8598C34.7467 49.085 36.8716 45.8818 35.7874 42.2774C39.4115 43.5309 38.9172 46.7434 42.4819 41.5742C42.8889 44.897 47.1817 47.5201 46.6023 50.6176Z" fill="#FAF1DD"/>
<path d="M48.1177 52.2655C46.3202 50.4556 40.6547 52.2061 40.1025 47.4229C38.7597 49.8506 36.6749 52.4433 33.3575 52.521C30.9228 69.1268 52.4784 69.66 48.1177 52.2655Z" fill="#FFC9F6"/>
<path d="M48.4512 50.8161C44.1413 52.5002 39.2494 48.6684 39.8917 44.0758C39.5694 44.1635 39.2195 44.1107 38.9015 44.0323C40.2606 47.8661 37.4348 52.2762 33.3855 52.6544C32.9921 52.6986 32.9731 53.2652 33.3855 53.2842C35.8283 53.4007 38.227 52.6451 40.1817 51.197C42.6401 53.2745 46.2099 53.3378 48.7568 51.3419C49.0054 51.1466 48.7378 50.712 48.4512 50.8161Z" fill="#49312C"/>
<path d="M17.6386 13.802C16.4601 13.0064 15.0253 13.517 14.0273 14.3686C12.8352 15.386 12.3937 16.9617 11.7759 18.3418C10.5286 21.1272 8.03409 22.9138 5.72324 24.7695C3.48967 26.5632 1.15513 28.8192 0.574992 31.7491C-0.0233972 34.7705 1.6013 37.5423 3.6081 39.6648C5.65179 41.8262 8.27368 43.5048 9.78577 46.1302C10.6175 47.574 10.9224 49.2468 11.7277 50.7034C12.4018 51.9231 13.5175 53.0721 14.9476 53.3043C18.0638 53.8103 20.3316 50.4199 21.4348 47.9801C22.7041 45.173 23.1395 42.0234 22.6343 38.9822C21.5532 32.4791 15.9999 26.6253 17.8149 19.7362C18.011 18.9922 18.3077 18.2894 18.703 17.6296C18.9503 17.2169 18.3263 16.8623 18.063 17.2557C16.391 19.7553 16.3063 22.9018 16.9699 25.7512C17.7178 28.9625 19.3518 31.8539 20.5397 34.9057C21.6732 37.8184 22.3061 40.8608 21.6794 43.9716C21.3936 45.3905 20.9047 46.7659 20.212 48.0372C19.5355 49.2779 18.6925 50.5508 17.5454 51.4055C16.4352 52.2333 15.089 52.485 13.9353 51.5911C12.7777 50.6945 12.285 49.2437 11.7999 47.9223C11.2753 46.4933 10.6331 45.1975 9.66073 44.0178C8.73888 42.8991 7.64345 41.9396 6.55539 40.9882C4.48763 39.1794 2.07 37.1462 1.4421 34.3313C0.793225 31.4237 2.57519 28.834 4.5917 26.9328C6.62684 25.0142 9.08369 23.558 10.9049 21.4106C11.8644 20.2791 12.4807 19.0299 13.0422 17.6669C13.5757 16.3727 14.2265 14.9553 15.6306 14.428C16.1929 14.2171 16.8208 14.1861 17.3839 14.4059C17.7504 14.548 17.9306 13.9989 17.6386 13.802Z" fill="#49312C"/>
<path d="M18.513 51.2761C18.5766 51.8838 18.9432 52.5008 19.2904 52.9916C19.674 53.5341 20.1105 54.0304 20.5931 54.4866C21.5496 55.3902 22.6248 56.1603 23.693 56.9241C24.7594 57.6863 25.8167 58.4668 26.737 59.4054C27.2026 59.8803 27.6294 60.3913 27.9812 60.9571C28.3377 61.5306 28.5303 62.1364 28.7873 62.753C28.9368 63.1107 29.5954 63.1274 29.5449 62.6505C29.4121 61.3932 28.5703 60.1906 27.7606 59.2637C26.878 58.2537 25.8179 57.4137 24.7403 56.6231C23.6383 55.8147 22.5021 55.0489 21.4828 54.1344C20.9857 53.6887 20.5089 53.2091 20.086 52.6918C19.674 52.1874 19.3754 51.5805 18.9459 51.0974C18.8077 50.941 18.49 51.0571 18.513 51.2761Z" fill="#49312C"/>
<path d="M27.9168 57.6165C29.0677 59.2458 30.894 60.4197 32.8448 60.8352C33.3155 60.9354 33.5178 60.2178 33.0444 60.111C31.1864 59.6908 29.583 58.7235 28.2915 57.3276C28.1109 57.1322 27.7587 57.3924 27.9168 57.6165Z" fill="#49312C"/>
<path d="M27.5442 47.8031C27.7873 48.9323 28.633 49.9004 29.5343 50.5846C30.5773 51.3767 31.8319 51.833 33.1355 51.9351C35.8257 52.1456 38.507 50.9581 39.5038 48.3296C40.0871 46.7911 40.0882 45.0996 39.8494 43.4959C39.7613 42.9049 38.9268 43.1165 38.8775 43.6276C38.7284 45.1711 38.8472 46.783 38.2065 48.2345C37.6353 49.5283 36.5239 50.4219 35.185 50.8393C33.7176 51.2967 32.1352 51.1313 30.7839 50.3962C29.5657 49.7338 28.7934 48.6989 27.9756 47.6213C27.8183 47.414 27.4848 47.527 27.5442 47.8031Z" fill="#49312C"/>
<path d="M34.7075 29.5438C35.2084 29.3648 35.7699 29.2573 36.2898 29.1388C36.8071 29.0208 37.3324 28.9257 37.8609 28.8767C38.9358 28.7769 40.0165 28.8394 41.0715 29.0682C41.5619 29.1746 41.7712 28.4193 41.2793 28.3145C40.1376 28.0714 38.9649 27.9937 37.8027 28.1121C37.2249 28.1708 36.6521 28.2663 36.0933 28.4259C35.5264 28.5874 35.0441 28.8414 34.5199 29.0992C34.2745 29.2192 34.4465 29.637 34.7075 29.5438Z" fill="#49312C"/>
<path d="M56.0487 10.8044C57.1884 10.0988 58.6624 10.6129 59.5505 11.487C60.59 12.5102 61.1989 13.8798 62.1157 15.004C63.9078 17.2007 66.5572 18.4114 68.9978 19.7255C71.2884 20.9587 73.7278 22.4953 74.8256 24.9673C76.1159 27.8727 74.5833 30.8712 72.8689 33.2248C71.1284 35.6137 68.9659 37.7797 68.0557 40.6633C67.5719 42.1959 67.5684 43.8509 66.9886 45.356C66.5413 46.5179 65.6237 47.6514 64.2813 47.6735C62.8772 47.6968 61.6051 46.7291 60.6374 45.8096C59.6231 44.8462 58.7537 43.7403 58.0578 42.5268C56.5861 39.9604 56.0006 37.0419 56.2623 34.1024C56.5667 30.6778 57.7678 27.4164 58.2703 24.0249C58.7017 21.1137 58.6388 17.9299 57.0925 15.3282C56.7461 14.7454 56.3291 14.2072 55.8561 13.7218C55.5202 13.3769 55.0193 13.8907 55.3323 14.2456C57.44 16.6368 57.8497 20.0012 57.5193 23.058C57.1352 26.6145 55.8581 30.0064 55.4457 33.5599C55.0842 36.6714 55.5563 39.7612 56.9465 42.578C57.6039 43.9104 58.4605 45.1545 59.4826 46.234C60.5081 47.3174 61.7631 48.3717 63.2469 48.7278C64.6813 49.0718 66.1289 48.614 67.0764 47.4766C68.0984 46.2495 68.4231 44.7227 68.6743 43.1854C68.8149 42.3256 68.9593 41.4671 69.2463 40.6419C69.4952 39.9263 69.8427 39.2498 70.2303 38.6002C71.0217 37.2741 72.0002 36.0738 72.9368 34.8502C74.8326 32.3736 76.6429 29.3657 76.0732 26.1132C75.5863 23.3317 73.3011 21.2853 71.0271 19.8451C68.5664 18.2864 65.7274 17.2744 63.5866 15.2405C62.4477 14.1586 61.7717 12.7665 60.8137 11.5433C59.9734 10.47 58.7584 9.58119 57.3368 9.5909C56.6797 9.59517 56.1182 9.82505 55.6488 10.286C55.3847 10.5458 55.7264 11.004 56.0487 10.8044Z" fill="#49312C"/>
<path d="M61.1331 47.1983C60.8077 47.7349 60.6263 48.3721 60.3242 48.9286C60.0155 49.4971 59.6505 50.0415 59.2587 50.5556C58.439 51.6308 57.4725 52.5838 56.5432 53.5619C55.6237 54.53 54.7325 55.5458 54.0301 56.6859C53.3862 57.7308 52.7102 59.1323 52.8073 60.3962C52.8387 60.804 53.4662 60.9503 53.5649 60.4987C53.7054 59.8549 53.778 59.2212 54.0118 58.5983C54.2456 57.9747 54.5749 57.3876 54.9414 56.8331C55.6893 55.7019 56.6244 54.7152 57.5629 53.7429C58.4755 52.7981 59.3837 51.844 60.16 50.7812C60.5428 50.257 60.8783 49.704 61.1459 49.1119C61.3866 48.5791 61.6526 47.9209 61.606 47.3268C61.587 47.0825 61.2702 46.9723 61.1331 47.1983Z" fill="#49312C"/>
<path d="M53.0739 55.0197C52.5749 55.8096 51.9683 56.5454 51.262 57.1586C50.5533 57.774 49.7499 58.2493 48.8878 58.6175C48.5011 58.7825 48.783 59.4667 49.1771 59.304C51.0267 58.5406 52.6436 57.0867 53.4855 55.2605C53.6124 54.9856 53.2408 54.7557 53.0739 55.0197Z" fill="#49312C"/>
<path d="M51.6507 45.3651C51.1599 46.3347 50.7246 47.2954 49.9642 48.0961C49.1966 48.9042 48.2207 49.4765 47.1432 49.7596C44.9395 50.339 42.5378 49.433 41.4218 47.4317C40.7321 46.1957 40.5632 44.7539 40.1784 43.4107C40.0277 42.8853 39.1874 42.9719 39.2064 43.5423C39.2981 46.2729 40.2685 49.3064 43.0069 50.4151C45.3752 51.3738 48.3205 50.7366 50.1961 49.0432C51.1839 48.1512 52.0503 46.848 52.0907 45.4843C52.0973 45.256 51.7571 45.1546 51.6507 45.3651Z" fill="#49312C"/>
<path d="M46.088 37.1542C45.8216 38.5214 44.9284 39.733 43.7658 40.4995C43.0999 40.9379 42.3302 41.2563 41.8173 41.8637C41.4631 42.2826 41.2585 42.8088 40.9308 43.2507C40.6026 43.6891 40.0699 44.0596 39.5375 43.9361L38.6184 43.9947C38.3749 43.907 38.1442 43.7543 37.9559 43.5788C37.5532 43.2053 37.2577 42.7245 36.8356 42.377C36.2186 41.8737 35.4066 41.6982 34.6727 41.3864C33.3866 40.8439 32.2889 39.8176 31.7821 38.5187C31.2723 37.2194 31.4055 35.6607 32.2236 34.5304C32.8993 33.6015 33.971 33.0233 35.0851 32.7375C36.1471 32.4645 37.1346 32.3931 38.2223 32.3931C39.4466 32.2211 40.9343 32.0067 41.7917 32.0685C42.9383 32.1465 44.0979 32.5232 44.9292 33.3122C45.9385 34.2733 46.3508 35.7835 46.088 37.1542Z" fill="#49312C"/>
<path d="M18.2227 13.904C18.7434 13.4931 19.3469 13.1518 19.889 12.765C20.4178 12.388 20.9642 12.0346 21.5179 11.6956C22.5963 11.0347 23.7305 10.4612 24.9009 9.98122C27.277 9.00733 29.808 8.43418 32.3724 8.30448C32.9052 8.27769 32.9087 7.44515 32.3724 7.47233C29.688 7.60824 27.0382 8.19964 24.5549 9.23022C23.3193 9.74318 22.1311 10.3625 21.0034 11.0825C20.4477 11.4374 19.9123 11.8265 19.397 12.2377C18.8619 12.6652 18.4413 13.165 17.9676 13.6492C17.8014 13.8197 18.0453 14.0441 18.2227 13.904Z" fill="#49312C"/>
<path d="M55.4787 9.86677C54.4804 8.7061 52.9248 7.98112 51.5327 7.4002C50.0905 6.79871 48.5749 6.39214 47.0263 6.18401C45.3973 5.965 43.7909 6.01237 42.1611 6.19216C40.493 6.37622 38.7168 6.60688 37.1092 5.97859C35.4899 5.34564 34.5471 3.81064 34.4403 2.11139C34.4097 1.6225 33.7087 1.62095 33.6792 2.11139C33.5903 3.57766 34.3219 5.05518 35.4534 5.97665C36.712 7.00179 38.3755 7.274 39.9571 7.22624C41.762 7.17188 43.5331 6.8088 45.3453 6.88064C46.9851 6.94588 48.6095 7.25575 50.1631 7.78347C51.0314 8.07858 51.8697 8.44554 52.6817 8.87152C53.5259 9.3142 54.2975 9.87298 55.156 10.285C55.4302 10.417 55.6799 10.1005 55.4787 9.86677Z" fill="#49312C"/>
<path d="M34.6923 6.19259C32.8377 4.82069 31.7477 2.66516 31.4984 0.402853C31.4409 -0.119427 30.6585 -0.148939 30.6612 0.402853C30.6725 2.96688 32.235 5.39267 34.4208 6.65701C34.7276 6.83486 34.9641 6.39374 34.6923 6.19259Z" fill="#49312C"/>
<path d="M33.1948 6.4633C31.8272 6.38641 30.4533 5.92898 29.3167 5.16478C29.1299 5.03936 28.8558 5.12867 28.7475 5.31389C28.6282 5.51814 28.7094 5.75812 28.8966 5.88316C30.1749 6.73589 31.6594 7.15488 33.1944 7.06673C33.5827 7.04499 33.5835 6.48504 33.1948 6.4633Z" fill="#49312C"/>
<path d="M23.2526 75.1574C22.7085 74.1668 21.9393 73.3459 20.9806 72.7467C20.5138 72.4551 20.0113 72.2183 19.4925 72.0346C18.9827 71.854 18.3435 71.6575 17.7979 71.7142C17.3436 71.7616 17.2112 72.3891 17.6865 72.5367C18.1602 72.6834 18.6616 72.7231 19.1376 72.8768C19.6149 73.031 20.0684 73.2345 20.4998 73.49C21.3498 73.9936 22.1366 74.6689 22.7264 75.4649C22.9551 75.7729 23.4459 75.5096 23.2526 75.1574Z" fill="#49312C"/>
<path d="M19.0528 75.5739C18.2548 75.3425 17.5065 75.1992 16.6686 75.2284C15.8593 75.2567 15.0419 75.419 14.2773 75.6819C12.7544 76.2061 11.4019 77.1536 10.3954 78.4121C8.50429 80.7773 7.64923 84.6772 9.59856 87.2722C10.6365 88.6539 12.5222 89.3781 14.1368 88.5851C14.5713 88.372 14.2672 87.6648 13.8083 87.8062C12.6142 88.1735 11.2873 87.6897 10.515 86.7263C9.64399 85.6406 9.44906 84.1599 9.59235 82.814C9.88203 80.0962 11.6504 77.639 14.1768 76.5789C15.6221 75.9724 17.3768 75.7685 18.9258 76.0333C19.2233 76.0846 19.3534 75.6609 19.0528 75.5739Z" fill="#49312C"/>
<path d="M15.286 83.6057C15.0344 83.7862 14.7995 83.9563 14.6049 84.201C14.3949 84.465 14.2388 84.7392 14.1246 85.0572C13.9025 85.6754 13.8714 86.341 14.0027 86.9824C14.2729 88.2992 15.3703 89.31 16.6641 89.6039C17.4113 89.7736 18.1863 89.736 18.8725 89.3803C19.3505 89.1325 19.0193 88.3722 18.5086 88.5178C17.3433 88.8495 15.9831 88.58 15.293 87.5005C14.9525 86.9673 14.8523 86.3526 14.9125 85.7286C14.968 85.1547 15.2111 84.4468 15.5928 84.0049C15.7687 83.8014 15.5353 83.4267 15.286 83.6057Z" fill="#49312C"/>
<path d="M20.5616 84.7691C20.1779 85.1403 19.8541 85.5197 19.6692 86.0272C19.484 86.5352 19.4863 87.113 19.6025 87.6364C19.8455 88.7315 20.713 89.5593 21.7712 89.877C22.2931 90.0335 22.8359 90.0738 23.3706 89.9608C23.9869 89.8308 24.5169 89.4708 25.0579 89.1679C26.2442 88.5031 27.6277 88.3796 28.8719 87.8624C30.0255 87.3825 31.0468 86.3204 31.0903 85.0269C31.1031 84.641 30.474 84.6417 30.4915 85.0269C30.561 86.5635 28.9251 87.1137 27.6999 87.3549C27.0464 87.4834 26.3832 87.5459 25.7366 87.7145C25.0664 87.8892 24.5026 88.234 23.9026 88.5668C22.9377 89.1027 21.8081 89.0666 21.0237 88.2231C20.3255 87.4721 20.2661 85.941 20.9417 85.15C21.1642 84.8891 20.8136 84.5249 20.5616 84.7691Z" fill="#49312C"/>
<path d="M31.5023 83.5734C31.526 83.0224 31.6122 82.5114 31.5458 81.9565C31.4844 81.4447 31.3726 80.9384 31.2002 80.4522C30.8445 79.448 30.3078 78.5331 29.6104 77.7282C28.31 76.2266 26.3622 75.0795 24.3601 74.9292C23.8358 74.89 23.7403 75.7074 24.2373 75.8363C26.0065 76.2945 27.5986 77.0242 28.8288 78.4186C29.4361 79.1071 29.9152 79.9295 30.2441 80.7857C30.4065 81.2078 30.5393 81.6393 30.6484 82.0781C30.7668 82.5541 30.9338 83.0826 30.9447 83.5734C30.952 83.9338 31.4868 83.9319 31.5023 83.5734Z" fill="#49312C"/>
<path d="M20.5952 57.1102C20.1284 58.2522 19.4811 59.3589 18.8361 60.4093C18.1709 61.4931 17.4219 62.5201 16.6977 63.5643C15.2935 65.589 13.9348 67.7585 13.4665 70.2146C13.218 71.517 13.131 73.045 13.7135 74.2744C13.8941 74.6553 14.5822 74.4829 14.5317 74.053C14.4435 73.3047 14.3088 72.5879 14.327 71.8292C14.3453 71.0685 14.4742 70.3206 14.6808 69.5894C15.1083 68.0781 15.8741 66.6961 16.719 65.382C17.5695 64.0598 18.5014 62.792 19.3347 61.4585C20.1642 60.1312 20.8072 58.7954 21.138 57.2601C21.2165 56.8974 20.7299 56.7805 20.5952 57.1102Z" fill="#49312C"/>
<path d="M19.658 56.3143C19.5116 56.7193 19.2938 57.1192 19.0806 57.4932C18.8697 57.8629 18.6321 58.224 18.3797 58.5669C17.8803 59.246 17.2431 59.8304 16.5453 60.3003C16.1481 60.5678 16.5123 61.2093 16.9243 60.9488C17.7351 60.4362 18.4178 59.7687 18.98 58.9932C19.2577 58.6104 19.4744 58.2069 19.6561 57.7708C19.8405 57.327 19.9395 56.8862 20.03 56.4164C20.077 56.1721 19.7427 56.0801 19.658 56.3143Z" fill="#49312C"/>
<path d="M32.7142 52.1712C32.8427 53.4092 33.0489 54.6405 33.193 55.878C33.3301 57.055 33.4547 58.2363 33.765 59.383C34.3253 61.4542 35.4611 63.3663 37.5359 64.1802C39.5357 64.9646 41.9359 64.6446 43.9073 63.9297C45.9716 63.1814 47.8895 61.7633 48.6121 59.6113C49.0696 58.2495 48.9426 56.7778 48.868 55.369C48.7869 53.8328 48.7212 52.2939 48.5748 50.7624C48.5352 50.3512 47.917 50.3333 47.9201 50.7624C47.9291 52.0341 47.997 53.3051 48.0603 54.5749C48.119 55.7495 48.2405 56.9459 48.1287 58.1206C47.9186 60.3277 46.4018 61.9509 44.4498 62.8564C42.608 63.7111 40.3372 64.1526 38.3669 63.5049C36.4801 62.8844 35.3773 61.1735 34.841 59.3472C34.5032 58.1974 34.356 57.0014 34.1906 55.8179C34.0112 54.5341 33.8333 53.1773 33.1247 52.0594C33.0179 51.8901 32.6901 51.9394 32.7142 52.1712Z" fill="#49312C"/>
<path d="M39.7696 48.4095C39.9264 49.4824 40.1458 50.5456 40.2841 51.6216C40.4204 52.6833 40.4794 53.7539 40.486 54.824C40.4891 55.3106 41.2451 55.3114 41.242 54.824C41.2285 52.6312 40.9815 50.294 40.1175 48.2627C40.0258 48.0468 39.7416 48.2173 39.7696 48.4095Z" fill="#49312C"/>
<path d="M29.4553 29.8118C29.8464 33.5974 24.8329 34.0556 24.5315 30.2614C24.1405 26.4766 29.1544 26.0183 29.4553 29.8118Z" fill="#49312C"/>
<path d="M52.35 27.6892C52.741 31.4749 47.7275 31.9331 47.4262 28.1389C47.0352 24.3536 52.0487 23.8954 52.35 27.6892Z" fill="#49312C"/>
<path d="M23.3201 25.6184C23.5189 25.5858 23.6766 25.4662 23.8319 25.3446C23.9865 25.2235 24.1096 25.1334 24.2688 25.0064C24.4998 24.8227 24.8015 24.6154 25.0916 24.4472C25.2415 24.3602 25.3949 24.2787 25.5506 24.2026C25.6286 24.1645 25.7067 24.1269 25.7851 24.0904C25.829 24.0702 25.8729 24.0504 25.9168 24.031C25.9362 24.0224 25.9979 23.9964 25.9439 24.0189C26.1129 23.949 26.2845 23.8865 26.4581 23.8302C26.6592 23.7653 26.8701 23.7246 27.0584 23.6271C27.5438 23.3766 27.3193 22.5744 26.7792 22.5961C26.3532 22.6136 25.9016 22.8373 25.5168 23.0062C25.1724 23.1576 24.8446 23.3386 24.5316 23.5471C24.2004 23.7673 23.8773 24.0115 23.5853 24.2822C23.2956 24.5505 22.95 24.9093 22.931 25.3221C22.9217 25.5395 23.1349 25.6487 23.3201 25.6184Z" fill="#49312C"/>
<path d="M52.0752 22.8292C52.1925 22.4402 51.7284 22.166 51.4473 22.015C51.1378 21.8488 50.8206 21.7059 50.4866 21.5964C50.1892 21.4989 49.8859 21.4185 49.5787 21.3564C49.2296 21.2857 48.851 21.2162 48.4934 21.222C48.2068 21.2271 47.968 21.4364 47.9303 21.7191C47.8962 21.9746 48.0589 22.3042 48.3412 22.3481C48.5276 22.3773 48.7155 22.3901 48.9031 22.4114C48.938 22.4153 48.9877 22.4219 48.924 22.4134C48.9629 22.4188 49.0017 22.4246 49.0401 22.4305C49.1174 22.4425 49.1951 22.4553 49.2724 22.4681C49.5912 22.5221 49.9065 22.5947 50.2163 22.6863C50.515 22.7745 50.8159 22.8615 51.1095 22.9655C51.391 23.0665 51.9502 23.2432 52.0752 22.8292Z" fill="#49312C"/>
<path d="M59.6953 74.3062C60.159 74.135 60.6448 74.0313 61.1317 73.9505C61.3596 73.9129 61.5903 73.8919 61.8206 73.8752C62.0804 73.8566 62.3456 73.8756 62.5988 73.8076C62.9343 73.7176 62.909 73.2535 62.5988 73.1518C62.3343 73.0652 62.0415 73.0939 61.7678 73.1137C61.4971 73.1335 61.2265 73.1759 60.9601 73.2291C60.4378 73.3339 59.945 73.5312 59.4624 73.7541C59.1548 73.8966 59.3734 74.4251 59.6953 74.3062Z" fill="#49312C"/>
<path d="M61.073 75.2431C62.4298 75.0108 63.9609 75.1495 65.2625 75.5801C66.5991 76.0224 67.7963 76.8297 68.6859 77.9228C70.2982 79.9028 71.1668 83.1363 69.7996 85.47C69.0754 86.706 67.6033 87.4504 66.1906 87.0155C65.7367 86.8757 65.4233 87.579 65.8621 87.7945C67.2612 88.4814 68.9162 88.0333 69.9941 86.9577C71.1532 85.8013 71.561 84.0523 71.472 82.4602C71.2942 79.273 69.2396 76.361 66.3036 75.1161C65.4784 74.7662 64.6106 74.5507 63.7186 74.4633C62.7513 74.369 61.8691 74.515 60.946 74.7825C60.6463 74.8699 60.7752 75.2939 61.073 75.2431Z" fill="#49312C"/>
<path d="M64.4058 83.2122C64.7875 83.6544 65.031 84.3616 65.0861 84.9359C65.1459 85.5599 65.0465 86.1742 64.7056 86.7077C64.0156 87.7876 62.6553 88.0571 61.49 87.7251C60.9848 87.5814 60.6435 88.3375 61.1261 88.5876C62.3268 89.21 63.835 88.8838 64.857 88.0598C65.8997 87.2195 66.3027 85.7777 65.949 84.5002C65.8534 84.1557 65.7105 83.83 65.497 83.5422C65.2729 83.2405 65.0159 83.0304 64.713 82.813C64.466 82.6363 64.2287 83.0071 64.4058 83.2122Z" fill="#49312C"/>
<path d="M59.0572 84.3581C59.7332 85.1491 59.6738 86.6802 58.9753 87.4312C58.1912 88.2746 57.0613 88.3103 56.0963 87.7749C55.4964 87.4421 54.9337 87.0965 54.2623 86.9225C53.6158 86.7548 52.9525 86.6918 52.299 86.5629C51.0739 86.3218 49.4379 85.7723 49.5074 84.235C49.5249 83.8502 48.8954 83.8482 48.9086 84.235C48.9483 85.4116 49.7237 86.2208 50.6646 86.827C51.7791 87.5446 53.2333 87.6098 54.4417 88.1267C55.0397 88.3826 55.5616 88.7817 56.1674 89.0237C56.6931 89.2334 57.2399 89.2784 57.7967 89.1856C58.8817 89.0046 59.8482 88.3123 60.2594 87.279C60.4807 86.7233 60.5351 86.0958 60.4105 85.5094C60.2777 84.8835 59.8851 84.4113 59.437 83.9775C59.1857 83.7341 58.8347 84.0979 59.0572 84.3581Z" fill="#49312C"/>
<path d="M49.0552 82.7817C49.0657 82.3096 49.2249 81.8102 49.3356 81.352C49.4471 80.8907 49.5857 80.4375 49.7554 79.994C50.0831 79.1378 50.5638 78.315 51.1708 77.6269C52.4006 76.2321 53.993 75.5024 55.7622 75.0442C56.2542 74.9169 56.1691 74.0975 55.6395 74.1371C53.635 74.2874 51.6923 75.4353 50.3891 76.9361C49.7061 77.7228 49.1776 78.6175 48.8219 79.5964C48.6378 80.1028 48.5186 80.6301 48.4538 81.1648C48.3866 81.7213 48.4736 82.2292 48.4972 82.7817C48.5124 83.1398 49.0471 83.1425 49.0552 82.7817Z" fill="#49312C"/>
<path d="M59.8556 59.8189C60.3029 60.2511 60.6827 60.7466 61.1106 61.1986C61.5218 61.6327 61.9443 62.0564 62.354 62.4924C63.19 63.3824 64.0136 64.2763 64.7534 65.2502C66.1874 67.1378 67.305 69.2627 67.7042 71.6193C67.9205 72.8949 67.9135 74.2746 67.6319 75.5386C67.5119 76.0764 68.2952 76.2958 68.459 75.7665C70.0061 70.7631 66.9629 65.8331 63.5884 62.3728C63.0704 61.8416 62.5252 61.3395 61.9731 60.844C61.4174 60.3451 60.7922 59.9338 60.2365 59.4383C59.9791 59.2096 59.6044 59.5766 59.8556 59.8189Z" fill="#49312C"/>
</svg>
