<svg width="64" height="84" viewBox="0 0 64 84" fill="none" xmlns="http://www.w3.org/2000/svg">
<path d="M57.0675 78.3383C56.3888 78.2653 27.4397 78.4715 27.0782 78.2723C25.7668 73.6956 20.7021 68.4965 22.5081 63.7731C25.9695 61.6925 30.5213 65.2494 34.4747 64.1462C43.6234 64.0899 48.1896 55.6503 52.103 59.5319C56.6043 64.4037 57.9245 72.6433 57.0675 78.3383Z" fill="#FAF1DD"/>
<path d="M62.2017 78.4675C61.267 81.8773 56.2795 83.0453 54.5018 79.733C53.2934 81.7355 50.1267 81.4855 49.2068 79.3458C43.6139 81.5161 43.6407 71.9124 47.9793 70.2803C55.0435 68.5461 56.5867 68.3384 52.6224 61.1635C45.818 69.4878 32.403 70.3956 23.6077 64.7647C23.4302 70.6566 31.8554 70.7187 33.2122 75.8895C34.1632 78.4341 31.313 81.5787 28.7862 80.1737C27.7129 81.4913 25.6253 82.4803 24.0201 81.5965C23.8061 81.5491 23.5921 81.4893 23.384 81.414C18.3915 85.6225 13.6875 78.7409 15.8294 73.8873C17.1729 69.9743 20.5194 67.2231 22.1752 63.4802C11.6624 57.7514 16.9935 44.3356 15.7474 34.8654C14.6951 27.2036 9.30768 20.9017 2.47221 17.6053C-6.90981 8.18175 20.5757 6.79003 27.8038 25.7203L37.7733 24.9961C35.2567 3.80508 64.2888 -5.55908 56.7086 7.50647C51.7405 11.5511 48.7253 17.803 49.6067 24.2754C50.002 31.6436 57.0422 35.5881 59.5258 42.0104C61.7081 47.9791 59.4893 55.0911 54.3123 58.7703C54.4036 66.2989 64.5102 70.6915 62.2017 78.4675Z" fill="#774A46"/>
<path d="M53.2995 54.5558C51.8216 57.0364 48.8405 57.0861 46.292 57.2849C43.5703 61.0209 36.7325 62.8502 32.9414 60.3607C22.5696 66.0681 18.1778 53.3175 26.0139 47.4062C26.043 39.0548 37.3029 36.9408 27.3967 26.6707C26.8635 26.0541 28.1997 25.8561 28.5624 25.6572C44.623 19.3751 30.4368 33.9858 41.2839 38.3217C48.0068 40.1708 45.5503 43.5188 51.3692 45.486C51.3661 45.4829 51.363 45.4798 51.3598 45.4798C54.0567 47.3511 55.1063 51.6559 53.2995 54.5558Z" fill="#FAF1DD"/>
<path d="M47.4325 56.1443C45.1461 55.168 43.0142 53.5798 41.5146 51.5921C40.1427 49.7732 39.4041 47.6324 39.1164 45.4062C37.873 46.9552 35.9656 47.8682 34.0302 46.6578C34.243 47.3964 34.3945 48.1543 34.485 48.9317C34.7917 51.5622 34.6251 54.4675 33.5592 56.9178C33.0354 58.1219 32.2308 59.1479 31.2464 60.0111C30.3599 60.7885 29.313 61.5368 28.1543 61.8524C32.2436 62.9417 37.8194 54.8768 37.1725 48.6933C39.4297 54.1406 46.6465 60.281 50.1456 56.896C49.216 56.7698 48.3089 56.5186 47.4325 56.1443Z" fill="#FFAEF2"/>
<path d="M26.4573 40.6469C27.2938 44.6174 22.1777 45.634 21.433 41.6453C20.5965 37.6752 25.7125 36.6582 26.4573 40.6469Z" fill="#49312C"/>
<path d="M44.0892 36.9805C44.8344 40.9692 49.9504 39.9526 49.1136 35.9818C48.3684 31.9934 43.2528 33.01 44.0892 36.9805Z" fill="#49312C"/>
<path d="M58.5675 4.86426C55.2055 14.1725 63.689 30.2723 53.9699 34.3624C52.6298 31.0148 48.7526 29.5093 47.4362 26.1473C45.2313 18.0599 49.4981 4.92872 58.5675 4.86426Z" fill="#FFAEF2"/>
<path d="M18.3091 28.3049C20.0243 30.7617 17.0389 44.2265 14.0978 41.6267C5.12432 36.7184 7.21383 24.4901 1.36273 17.1945C1.02917 14.7337 4.44322 15.9053 5.78639 16.2283C11.6033 17.8643 16.5232 22.5112 18.3091 28.3049Z" fill="#FFAEF2"/>
<path d="M18.0423 34.7457C17.8303 35.3771 17.5453 35.9848 17.3189 36.6131C17.094 37.2375 16.9178 37.8813 16.7224 38.5155C16.3256 39.8035 15.9637 41.1028 15.5987 42.4001C14.8919 44.9129 14.2617 47.489 14.2271 50.1136C14.1666 54.7364 16.1765 59.277 19.6604 62.3213C21.5002 63.9286 23.6872 65.1191 26.0396 65.7789C26.5467 65.921 26.7619 65.137 26.2567 64.991C22.127 63.7965 18.6524 60.878 16.7888 56.9999C15.832 55.0094 15.3047 52.7887 15.2736 50.5803C15.2383 48.0695 15.8165 45.6161 16.4646 43.2067C16.8343 41.8316 17.2447 40.4671 17.5985 39.0878C17.7697 38.4192 17.9561 37.7524 18.1134 37.0803C18.2835 36.3514 18.3549 35.6054 18.5223 34.8781C18.5941 34.5648 18.144 34.4428 18.0423 34.7457Z" fill="#49312C"/>
<path d="M36.7229 47.842C36.7691 47.7321 36.6538 47.9833 36.6596 47.9674C36.5835 48.174 36.5932 48.4054 36.554 48.6225C36.4406 49.2504 36.3944 49.8853 36.3338 50.521C36.1944 51.9841 36.0643 53.4954 35.5863 54.8949C34.9945 56.6276 33.889 58.1428 32.4895 59.3108C30.9964 60.5573 29.0153 61.5475 27.0236 61.4217C25.0141 61.2951 23.0345 59.7531 22.911 57.6516C22.8819 57.1545 22.1025 57.1522 22.1348 57.6516C22.2586 59.5943 23.6694 61.1786 25.4412 61.8698C27.535 62.686 30.0311 62.2018 31.9319 61.1153C33.7057 60.1018 35.1611 58.5389 36.0911 56.7223C36.9139 55.1143 37.2184 53.3378 37.3558 51.5519C37.4203 50.7144 37.4855 49.8566 37.4234 49.017C37.3927 48.6054 37.3636 48.1569 37.232 47.8416C37.1279 47.5927 36.8273 47.5935 36.7229 47.842Z" fill="#49312C"/>
<path d="M22.3212 55.8627C22.0532 55.2616 22.0319 54.4163 22.1534 53.7814C22.2886 53.0758 22.6027 52.4153 23.0225 51.8352C23.9474 50.5564 25.3617 49.7282 26.645 48.8583C26.9875 48.6261 26.6792 48.079 26.3173 48.2976C24.8095 49.2071 23.1696 50.1025 22.1286 51.5723C21.6494 52.2483 21.3407 53.0607 21.2502 53.8843C21.2083 54.2668 21.2184 54.659 21.2922 55.0376C21.376 55.4674 21.6001 55.7928 21.8478 56.1392C22.0552 56.4289 22.4649 56.185 22.3212 55.8627Z" fill="#49312C"/>
<path d="M27.9823 25.7015C26.9393 21.4409 23.9442 17.6797 20.5084 15.0559C16.6797 12.1319 11.9166 10.5324 7.10155 10.5056C5.0897 10.4944 2.50315 10.572 0.993002 12.1117C0.219872 12.9 -0.092329 14.0144 0.0233881 15.1009C0.153861 16.3225 0.729336 17.3997 1.34675 18.44C2.67323 20.6751 3.79584 23.0019 4.62139 25.47C5.43685 27.9086 5.91293 30.44 6.63907 32.9039C7.84323 36.9885 10.2162 41.4743 14.6896 42.6144C15.1924 42.7425 15.7097 42.8132 16.2273 42.8389C16.854 42.8699 16.8525 41.8949 16.2273 41.8646C11.945 41.6576 9.18524 37.5838 7.92361 33.9088C7.14737 31.6473 6.68838 29.2953 6.04456 26.9961C5.39142 24.6635 4.50684 22.3961 3.39899 20.2418C2.85962 19.1929 2.22201 18.202 1.6675 17.1625C1.14211 16.1777 0.686622 14.9766 1.02795 13.854C1.61624 11.9191 4.25832 11.7595 5.91836 11.6838C10.4325 11.478 15.0321 12.712 18.8018 15.2162C20.7348 16.5 22.457 18.1216 23.8751 19.9575C25.3002 21.8028 26.3801 23.857 27.3509 25.9674C27.5198 26.3328 28.072 26.0684 27.9823 25.7015Z" fill="#49312C"/>
<path d="M20.2143 30.7068C19.5286 29.7581 18.9135 28.7407 18.3869 27.6954C17.8534 26.6357 17.5008 25.5356 17.1315 24.4134C16.9405 23.8329 16.0877 24.0674 16.2163 24.6658C16.4729 25.8595 16.9964 27.0384 17.5625 28.1144C18.1388 29.2106 18.851 30.2016 19.6843 31.116C19.9378 31.3937 20.4415 31.0205 20.2143 30.7068Z" fill="#49312C"/>
<path d="M18.5718 31.4305C18.1178 30.798 17.681 30.1541 17.2216 29.5251C16.7556 28.8871 16.3052 28.2207 15.7899 27.6212C15.4676 27.2465 14.8183 27.7412 15.1006 28.1532C15.5472 28.8051 16.0757 29.4117 16.5723 30.026C17.0616 30.6314 17.5715 31.2193 18.0658 31.8208C18.2957 32.1008 18.7853 31.7284 18.5718 31.4305Z" fill="#49312C"/>
<path d="M17.5083 31.7114C17.1045 31.8551 16.6983 31.9836 16.2902 32.1141C15.8828 32.2442 15.484 32.4084 15.0829 32.5564C14.8619 32.6379 14.688 32.8663 14.7676 33.1121C14.8359 33.3233 15.0883 33.5217 15.3233 33.4274C15.7415 33.2596 16.1678 33.1047 16.5791 32.9206C16.9623 32.749 17.3184 32.5808 17.704 32.4209C17.8873 32.3448 18.0182 32.177 17.9611 31.9685C17.911 31.7871 17.6962 31.6442 17.5083 31.7114Z" fill="#49312C"/>
<path d="M17.1054 34.124C16.9648 34.1597 16.8208 34.1795 16.6806 34.2164C16.5295 34.2564 16.3816 34.3275 16.2402 34.3919C15.9603 34.5197 15.7051 34.7045 15.4663 34.8964C15.0108 35.2618 14.6283 35.7763 14.3903 36.3071C14.2956 36.5183 14.3223 36.7944 14.5495 36.9144C14.7487 37.0196 15.0485 36.9781 15.1568 36.7552C15.2729 36.516 15.4081 36.283 15.563 36.0663C15.5844 36.0368 15.6061 36.0077 15.6275 35.9786C15.5677 36.0601 15.6407 35.963 15.6484 35.953C15.6869 35.906 15.7261 35.8594 15.7665 35.8143C15.8597 35.7099 15.9595 35.6128 16.0593 35.5149C16.1544 35.4217 16.2523 35.332 16.3552 35.2478C16.3785 35.2287 16.4018 35.2097 16.4258 35.1911C16.3614 35.2412 16.4565 35.1693 16.4612 35.1662C16.5155 35.1266 16.5695 35.087 16.6239 35.0478C16.7322 34.9697 16.8483 34.9033 16.9571 34.8261C17.0716 34.7445 17.1831 34.67 17.3127 34.6152C17.4343 34.5636 17.4708 34.3884 17.4226 34.2793C17.3687 34.1566 17.2382 34.0902 17.1054 34.124Z" fill="#49312C"/>
<path d="M24.0559 28.1353C24.3712 27.959 24.7518 27.8608 25.0834 27.7097C25.4189 27.5571 25.7532 27.4022 26.0891 27.2511C26.7648 26.9471 27.4494 26.6617 28.1468 26.4112C29.5288 25.9153 30.9574 25.5402 32.4043 25.2921C33.855 25.0432 35.3306 24.9344 36.8023 24.9566C37.5366 24.9675 38.2705 25.0121 39.0009 25.0902C39.7282 25.1682 40.4505 25.3534 41.1782 25.4039C41.7207 25.4416 41.7727 24.6556 41.3009 24.4968C40.7468 24.3104 40.1263 24.2623 39.5481 24.1881C38.9563 24.112 38.3618 24.0576 37.7657 24.0258C36.5736 23.9621 35.3772 23.9866 34.1886 24.0976C31.8338 24.3178 29.5172 24.8568 27.3205 25.7359C26.7089 25.9809 26.1047 26.245 25.5207 26.5506C25.2372 26.6989 24.956 26.8581 24.685 27.0278C24.3689 27.2259 24.1076 27.495 23.7969 27.6922C23.5197 27.8693 23.7663 28.2972 24.0559 28.1353Z" fill="#49312C"/>
<path d="M32.0411 60.2601C32.1766 60.5028 32.2469 60.7436 32.4403 60.9537C32.5956 61.1226 32.7964 61.2674 32.9882 61.3921C33.4115 61.6674 33.9058 61.8456 34.3881 61.9877C35.4757 62.3089 36.6399 62.4292 37.7718 62.4075C38.8909 62.3861 40.0143 62.2161 41.0888 61.9023C42.1423 61.5948 43.3892 61.1863 44.2007 60.4131C44.4997 60.1285 44.1934 59.5495 43.7837 59.6963C42.8381 60.0349 41.9854 60.5832 41.0181 60.8853C40.0516 61.1866 39.0529 61.3653 38.0413 61.4126C37.0484 61.4592 36.0675 61.373 35.0936 61.1777C34.6416 61.0869 34.1873 60.9859 33.759 60.8119C33.5326 60.7203 33.3113 60.61 33.1059 60.478C32.9152 60.3557 32.6014 60.1937 32.4671 60.0116C32.2823 59.7623 31.8831 59.9771 32.0411 60.2601Z" fill="#49312C"/>
<path d="M21.63 63.2802C21.2801 63.7489 21.1081 64.3935 20.8487 64.9193C20.5761 65.4719 20.2581 66.0004 19.9303 66.5219C19.2659 67.5788 18.5021 68.5687 17.7558 69.5682C16.2911 71.5299 14.8419 73.6229 14.426 76.0895C14.2082 77.3818 14.2253 78.8655 14.9005 80.0312C15.1308 80.4285 15.7203 80.1578 15.624 79.7264C15.4616 78.9991 15.3118 78.2936 15.3242 77.5429C15.3366 76.7962 15.4605 76.0588 15.6717 75.3435C16.1082 73.8648 16.9275 72.5357 17.8059 71.2814C18.6912 70.0171 19.6655 68.8164 20.5058 67.5206C20.9205 66.8814 21.2925 66.2205 21.6013 65.5235C21.8735 64.9092 22.2501 64.1139 22.1682 63.4266C22.134 63.1338 21.8078 63.0422 21.63 63.2802Z" fill="#49312C"/>
<path d="M16.0904 81.2078C16.2705 81.4773 16.4569 81.748 16.6837 81.981C16.9151 82.219 17.2006 82.4104 17.4992 82.5526C18.103 82.8399 18.7957 83.0108 19.4668 82.9393C19.6807 82.9164 19.8652 82.7723 19.8652 82.5409C19.8652 82.3351 19.6827 82.1297 19.4668 82.1425C18.9002 82.1763 18.3806 82.1207 17.8553 81.8959C17.3466 81.6785 16.7936 81.3717 16.441 80.9372C16.2822 80.7411 15.9502 80.9977 16.0904 81.2078Z" fill="#49312C"/>
<path d="M17.5273 75.0691C18.0213 73.4397 19.6848 72.4573 21.1903 71.9319C22.9094 71.3316 24.7795 70.8248 26.6135 70.9308C28.2747 71.0267 29.7918 71.7288 30.7641 73.1081C31.7178 74.4606 32.3966 76.2053 32.3624 77.8735C32.3279 79.5805 30.9478 81.4863 29.0552 80.8662C28.5818 80.7109 28.3818 81.4525 28.8501 81.6098C30.641 82.2121 32.4358 80.9885 33.0676 79.3316C33.8011 77.4071 33.1519 75.2718 32.237 73.5263C31.3186 71.7742 29.8512 70.5149 27.8898 70.1103C25.7425 69.6672 23.5353 70.2218 21.4928 70.885C19.4771 71.5397 17.3926 72.6495 17.0085 74.9258C16.9522 75.2617 17.4248 75.4069 17.5273 75.0691Z" fill="#49312C"/>
<path d="M27.4208 78.3642C27.8091 79.0034 28.2553 79.8662 28.046 80.6354C27.8728 81.2707 27.0947 81.4971 26.5386 81.6598C25.8699 81.8551 25.0494 82.0959 24.4067 81.6998C24.1842 81.5627 24.0033 81.3328 23.9019 81.0785C23.7886 80.7931 23.822 80.5061 23.8266 80.2052C23.8336 79.7656 23.2212 79.606 23.0038 79.9823C22.6438 80.6055 22.8352 81.4975 23.2403 82.0574C23.7431 82.7521 24.526 83.0636 25.3756 83.017C26.1662 82.9739 26.996 82.7455 27.7128 82.412C28.4689 82.0605 28.9686 81.4109 29.018 80.5656C29.0455 80.0976 28.9135 79.6429 28.6999 79.2309C28.4693 78.7863 28.1349 78.4388 27.8266 78.0508C27.6429 77.8182 27.2709 78.1172 27.4208 78.3642Z" fill="#49312C"/>
<path d="M23.1888 80.2357C23.0984 80.5654 22.9003 80.9052 22.7174 81.1917C22.5442 81.4628 22.3443 81.7206 22.0942 81.9256C21.6057 82.3256 21.0054 82.5019 20.3934 82.4246C19.8618 82.3574 19.3321 82.0231 19.0514 81.535C18.7539 81.0174 18.7675 80.4264 18.9923 79.8575C19.0766 79.6443 18.9174 79.3853 18.7221 79.3069C18.4941 79.2152 18.2779 79.3034 18.1392 79.4979C17.2966 80.6784 17.8771 82.4701 19.0545 83.1822C20.3266 83.9519 22.0627 83.6769 23.0149 82.5365C23.2797 82.2192 23.4828 81.8841 23.6168 81.4923C23.7519 81.0958 23.7465 80.7176 23.7173 80.3072C23.696 80.0148 23.2727 79.9301 23.1888 80.2357Z" fill="#49312C"/>
<path d="M20.7599 37.5482C21.0705 37.4655 21.3167 37.2833 21.5917 37.1241C21.8666 36.9649 22.147 36.8108 22.4397 36.6861C22.5248 36.65 22.3896 36.7059 22.4747 36.6721C22.5092 36.6585 22.5438 36.6446 22.5788 36.6314C22.6483 36.605 22.7185 36.5797 22.7888 36.5549C22.9387 36.5021 23.0898 36.4535 23.2432 36.412C23.3876 36.3727 23.5336 36.3386 23.6804 36.3102C23.7631 36.2943 23.8462 36.2803 23.9297 36.2675C24.0233 36.2531 23.8579 36.2757 23.9514 36.2644C23.9976 36.259 24.0442 36.2539 24.0905 36.2493C24.4186 36.2159 24.6787 35.979 24.6314 35.6256C24.5836 35.2703 24.2714 35.12 23.9441 35.1678C23.2517 35.2688 22.5799 35.4862 21.9594 35.8105C21.6495 35.9724 21.3583 36.1599 21.0849 36.3778C20.7945 36.6092 20.5405 36.8449 20.4127 37.2018C20.339 37.4099 20.565 37.6002 20.7599 37.5482Z" fill="#49312C"/>
<path d="M49.1963 28.5886C49.5625 29.1032 49.8677 29.6596 50.2222 30.1834C50.6074 30.7527 51.0373 31.2932 51.4497 31.8431C52.1968 32.8391 52.973 33.8122 53.7388 34.7939C55.1553 36.6096 56.5622 38.4592 57.606 40.5211C59.7009 44.6582 59.8776 49.6736 57.9089 53.8946C56.9004 56.0571 55.4062 57.9431 53.5423 59.4315C53.1303 59.7604 53.712 60.3297 54.1201 60.0093C57.6666 57.224 59.9265 52.991 60.2574 48.4939C60.4379 46.0437 60.043 43.5589 59.1029 41.2888C58.1745 39.0471 56.7956 37.0434 55.3184 35.1313C54.4362 33.9897 53.545 32.8508 52.6325 31.7328C52.1467 31.1379 51.659 30.5426 51.1627 29.9567C50.6668 29.3707 50.089 28.8643 49.5866 28.2869C49.4037 28.0768 49.0317 28.3572 49.1963 28.5886Z" fill="#49312C"/>
<path d="M41.9567 46.2548C41.5607 46.5309 41.0605 46.6769 40.5864 46.5958C40.1088 46.5115 39.6673 46.1768 39.5244 45.7155C39.4921 45.6083 39.4723 45.5011 39.4657 45.3908L39.3912 45.3974C39.3197 45.9527 37.4197 47.6318 36.897 47.4372C36.4846 47.8174 34.2922 47.1157 34.0161 46.6284L33.9381 46.635C33.9738 46.7453 34.0029 46.8559 34.0127 46.9728C34.0581 47.4536 33.7789 47.9343 33.3696 48.1941C32.9603 48.4507 32.4439 48.5059 31.9697 48.4018C30.6771 48.1226 29.8294 46.7162 29.914 45.3943C29.9983 44.0756 30.846 42.8936 31.9115 42.1139C32.9801 41.331 34.253 40.8895 35.5166 40.4965C36.8353 40.3766 38.3225 40.1067 39.609 40.422C40.892 40.7338 42.1261 41.5003 42.7109 42.689C43.2918 43.8776 43.0448 45.5015 41.9567 46.2548Z" fill="#49312C"/>
<path d="M36.7062 47.7482C36.7167 48.0884 36.8378 48.3688 36.9404 48.6926C37.1605 49.3881 37.5065 50.0521 37.8416 50.6986C38.6489 52.2565 39.5622 53.8354 40.8336 55.0652C43.8053 57.9395 48.8798 59.2372 52.4802 56.7322C54.2412 55.5067 55.3169 53.1893 54.5997 51.0834C54.4393 50.6128 53.6871 50.8163 53.851 51.29C54.4649 53.0631 53.6009 55.033 52.0822 56.0515C50.489 57.1202 48.3901 57.1718 46.569 56.7746C44.7163 56.3703 43.0008 55.4931 41.6288 54.1795C40.4837 53.0829 39.6811 51.69 38.8967 50.3262C38.5185 49.668 38.1775 48.978 37.7457 48.3532C37.5353 48.0484 37.3861 47.7723 37.1566 47.5618C36.9951 47.4135 36.6984 47.5098 36.7062 47.7482Z" fill="#49312C"/>
<path d="M54.2648 49.5681C54.3529 49.1747 54.4341 48.8291 54.3824 48.4206C54.3327 48.0288 54.1809 47.6448 54.0035 47.2945C53.6357 46.5696 53.0463 45.9521 52.3803 45.4939C50.876 44.4595 48.9406 44.27 47.1862 44.0036C46.7828 43.9422 46.5972 44.5441 47.0134 44.6299C48.5826 44.9534 50.243 45.1883 51.6235 46.0578C52.2126 46.429 52.7438 46.9202 53.1138 47.5132C53.4579 48.0642 53.7514 48.8334 53.727 49.4951C53.7153 49.8011 54.1968 49.8714 54.2648 49.5681Z" fill="#49312C"/>
<path d="M37.654 23.7103C37.7433 21.4511 37.9487 19.2218 38.5281 17.029C39.1035 14.8525 40.0106 12.7716 41.228 10.877C43.4491 7.41984 46.7479 4.66127 50.4834 2.97094C51.4061 2.55351 52.3675 2.19393 53.3441 1.92483C54.2753 1.66854 55.321 1.48293 56.2639 1.77999C58.6722 2.53875 58.0272 5.75437 57.7822 7.59846C57.4498 10.1007 57.3806 12.6345 57.5896 15.1504C57.7981 17.662 58.3188 20.1347 58.5584 22.6425C58.7879 25.0481 58.7168 27.4354 57.8563 29.7164C57.1313 31.6377 55.8321 33.335 53.948 34.2227C53.3814 34.4895 53.8753 35.331 54.44 35.0642C58.2823 33.2473 59.6499 28.7017 59.6006 24.7522C59.5668 22.0476 59.0053 19.3907 58.6702 16.716C58.3332 14.0285 58.2897 11.3115 58.57 8.61623C58.81 6.31004 59.596 3.6602 57.8866 1.70932C56.357 -0.0365373 53.7286 0.555638 51.8247 1.20451C47.6581 2.62457 43.9361 5.32567 41.2824 8.83446C38.4267 12.6096 36.7663 17.2946 36.8106 22.0402C36.816 22.632 36.8874 23.2176 36.9764 23.802C37.0369 24.2008 37.6392 24.0816 37.654 23.7103Z" fill="#49312C"/>
<path d="M46.7159 25.5438C47.5379 23.2629 47.863 20.6324 47.4269 18.2296C47.3321 17.7073 46.4553 17.8222 46.4949 18.3558C46.5819 19.5335 46.6771 20.6864 46.5974 21.8692C46.5186 23.0419 46.3361 24.2208 46.0651 25.3644C45.9637 25.7916 46.5699 25.9492 46.7159 25.5438Z" fill="#49312C"/>
<path d="M48.4801 25.5788C48.7049 24.8421 48.9488 24.1121 49.1674 23.3732C49.3845 22.6389 49.635 21.9003 49.793 21.1505C49.9095 20.5979 49.1235 20.3785 48.9465 20.9171C48.7069 21.6452 48.5527 22.4094 48.3718 23.1538C48.1897 23.9028 48.0343 24.6569 47.8588 25.4071C47.7641 25.811 48.359 25.976 48.4801 25.5788Z" fill="#49312C"/>
<path d="M48.9863 26.0347C49.4165 26.0351 49.8437 26.0506 50.2735 26.0654C50.7011 26.0801 51.1329 26.0592 51.5608 26.0549C51.7969 26.0526 52.0233 25.8487 52.0124 25.6033C52.0019 25.3664 51.8136 25.1416 51.5608 25.1517C51.1329 25.1684 50.7003 25.1688 50.2735 25.2045C49.8441 25.2406 49.4169 25.2771 48.9863 25.2989C48.7879 25.309 48.6182 25.4608 48.6182 25.6666C48.6186 25.8666 48.7867 26.0347 48.9863 26.0347Z" fill="#49312C"/>
<path d="M50.2687 27.9124C50.5114 27.9152 50.7696 27.9847 51.0057 28.0414C51.2631 28.1031 51.5148 28.173 51.7617 28.2705C52.2087 28.4468 52.6673 28.7318 52.9969 29.0234C53.1763 29.1822 53.4482 29.2001 53.6248 29.0234C53.791 28.8572 53.8004 28.5601 53.6248 28.3955C53.1725 27.9699 52.609 27.6325 52.013 27.4515C51.7229 27.3634 51.4099 27.304 51.107 27.2908C50.7929 27.2772 50.5051 27.3405 50.1972 27.3843C49.8904 27.4278 49.9751 27.909 50.2687 27.9124Z" fill="#49312C"/>
<path d="M48.3329 31.458C48.0913 31.1912 47.7566 31.0774 47.4196 30.9765C47.0685 30.8716 46.702 30.8192 46.3377 30.7862C45.6353 30.7221 44.9196 30.7982 44.237 30.9703C43.9484 31.0429 43.7749 31.3656 43.8525 31.6475C43.9302 31.9306 44.244 32.1173 44.5298 32.0319C45.1235 31.8548 45.6838 31.7811 46.3043 31.7861C46.615 31.7888 46.9256 31.8176 47.2336 31.8583C47.5364 31.8987 47.8277 31.9779 48.1337 31.9383C48.3729 31.908 48.5092 31.6529 48.3329 31.458Z" fill="#49312C"/>
<path d="M55.5543 62.3168C55.4728 63.0041 55.849 63.7994 56.1212 64.4137C56.4299 65.1107 56.8023 65.7712 57.2167 66.4104C58.057 67.7062 59.0312 68.9073 59.9166 70.1712C60.795 71.4255 61.6143 72.7547 62.0508 74.2334C62.262 74.949 62.3859 75.6864 62.3983 76.4332C62.4107 77.1838 62.2608 77.8893 62.0981 78.6166C62.0026 79.0442 62.5894 79.3226 62.8216 78.9218C64.0362 76.825 63.2868 74.0039 62.2733 71.9912C61.1491 69.7588 59.4363 67.9046 58.0636 65.8326C57.6842 65.2598 57.3196 64.6719 57.0019 64.0623C56.8501 63.7707 56.7084 63.4728 56.5705 63.1742C56.4175 62.843 56.3123 62.4648 56.0929 62.1708C55.9158 61.9332 55.5892 62.024 55.5543 62.3168Z" fill="#49312C"/>
<path d="M61.2816 79.8283C60.9294 80.2628 60.376 80.5696 59.8673 80.787C59.3419 81.0115 58.822 81.0674 58.2558 81.0332C58.0407 81.0204 57.8574 81.2254 57.8574 81.4316C57.8574 81.6658 58.0411 81.8071 58.2558 81.83C58.9268 81.9015 59.6196 81.7306 60.2234 81.4433C60.515 81.3047 60.7942 81.119 61.0222 80.8888C61.2563 80.6523 61.4478 80.3747 61.6322 80.0986C61.7712 79.8912 61.4423 79.6303 61.2816 79.8283Z" fill="#49312C"/>
<path d="M60.7154 73.8154C60.3776 71.8113 58.6958 70.679 56.9057 70.0083C54.9416 69.2725 52.6824 68.6384 50.5688 68.8853C49.6148 68.9972 48.6572 69.2612 47.832 69.7664C47.0138 70.2674 46.3584 70.9916 45.8454 71.7958C44.7853 73.4581 44.0312 75.6284 44.47 77.6006C44.9014 79.5395 46.8216 81.1894 48.8739 80.499C49.3414 80.3417 49.143 79.5997 48.6688 79.7554C47.0146 80.2975 45.6893 78.863 45.4152 77.3405C45.1193 75.6964 45.8132 73.881 46.643 72.4881C47.5027 71.0448 48.8284 70.1264 50.4978 69.879C52.3294 69.6076 54.1844 70.0868 55.9241 70.6223C57.6342 71.1488 59.6309 72.0913 60.197 73.9586C60.2988 74.2957 60.7721 74.1516 60.7154 73.8154Z" fill="#49312C"/>
<path d="M49.8967 76.9418C49.6361 77.2703 49.3507 77.5658 49.1325 77.9273C48.9073 78.3012 48.7593 78.6977 48.7139 79.1322C48.6265 79.9663 49.0319 80.7395 49.7464 81.1643C50.393 81.5487 51.203 81.7603 51.9427 81.864C52.7737 81.9805 53.6726 81.8625 54.2695 81.2155C54.8104 80.6288 55.1467 79.6118 54.7199 78.8732C54.5029 78.4973 53.8901 78.6562 53.8971 79.0961C53.9018 79.3974 53.9344 79.6832 53.8218 79.9694C53.7216 80.2242 53.5395 80.4537 53.317 80.5907C52.6743 80.9868 51.8538 80.7461 51.1851 80.5507C50.629 80.3884 49.8509 80.162 49.6777 79.5268C49.468 78.7579 49.9149 77.8947 50.3029 77.2555C50.4516 77.0109 50.0831 76.7072 49.8967 76.9418Z" fill="#49312C"/>
<path d="M54.0075 79.1975C53.9558 79.9205 54.0727 80.5779 54.5138 81.1756C54.9569 81.7759 55.5475 82.2423 56.2841 82.4154C57.0157 82.5875 57.7718 82.5079 58.4509 82.1894C59.1219 81.8749 59.5712 81.2987 59.8213 80.6133C60.0791 79.9069 60.0298 79.0099 59.5856 78.3879C59.4508 78.1991 59.2279 78.0978 59.0027 78.1968C58.8089 78.2819 58.6458 78.528 58.7324 78.7474C58.9569 79.3159 58.9701 79.9097 58.6734 80.4249C58.3915 80.915 57.8618 81.2474 57.3314 81.3146C56.7171 81.3922 56.1183 81.2148 55.6306 80.8156C55.3805 80.611 55.1809 80.3527 55.0074 80.0817C54.8241 79.7951 54.6264 79.455 54.5359 79.1257C54.4525 78.8228 54.0284 78.9024 54.0075 79.1975Z" fill="#49312C"/>
</svg>
