<svg width="65" height="76" viewBox="0 0 65 76" fill="none" xmlns="http://www.w3.org/2000/svg">
<path d="M63.3702 33.2242C64.4797 27.8775 64.809 21.5387 63.7034 13.8528C63.9015 10.9852 61.93 6.60693 59.3318 3.78778C59.3349 3.63517 59.2767 3.47907 59.124 3.34277C57.5619 1.96581 55.743 0.442465 53.5149 0.624195C52.5958 0.698751 51.6832 1.02066 51.0207 1.68623C50.2736 2.43645 49.9944 3.50819 50.0562 4.54421C50.1894 6.78866 51.3943 8.90613 52.4789 10.819C52.9953 11.7284 53.4955 12.6409 53.963 13.5698C54.1544 14.0862 54.3431 14.6027 54.5249 15.1222C56.3154 20.1742 57.6753 25.3391 57.033 30.64C58.6829 32.2134 60.9654 33.0522 63.3702 33.2242Z" fill="#755A58"/>
<path d="M57.0332 30.6403C56.5921 34.2819 55.2062 37.9876 52.3653 41.7647C53.1416 39.5758 49.5916 34.012 51.092 32.7652C51.0757 32.6906 51.0563 32.6223 51.0369 32.5477C52.6705 30.6803 53.5928 28.3159 54.1613 25.9219C54.8237 23.1156 55.1615 20.0922 54.866 17.2144C54.7946 16.5096 54.6645 15.8114 54.4276 15.1587C54.1939 14.5059 53.8561 13.8951 53.3656 13.3659C52.5082 10.784 44.2554 14.4927 42.6866 15.3338C40.6274 16.7888 38.7631 18.2667 36.785 19.1304C36.6973 19.2441 36.6033 19.3544 36.5027 19.4616C35.457 20.5691 34.0245 20.2378 32.7062 19.9229C32.5342 19.8806 32.3587 19.8417 32.1832 19.806C31.9754 19.7734 31.7642 19.7315 31.5498 19.6794C30.5818 19.5078 29.6001 19.4123 28.6184 19.4018C29.5349 26.6943 27.5987 34.2411 21.729 39.0236C16.8572 43.2457 8.73763 45.1947 3.21622 40.6475C2.57356 40.0049 1.95885 39.3346 1.39735 38.6256C-0.220358 45.6999 1.43229 53.9845 9.42532 55.6558C8.11321 58.2509 7.66162 61.2227 8.13614 64.0903C-1.88349 66.9258 6.13205 79.9723 13.4789 73.7038C14.7619 74.8924 16.99 74.5744 18.0517 73.2522C18.2532 75.0124 20.9877 73.0347 21.2312 72.057C25.2941 72.083 29.3574 72.1121 33.4234 72.1412C35.3495 74.1647 39.0066 74.4828 41.3512 72.8623C42.449 74.694 44.9109 75.4151 46.84 74.5546C49.9838 75.6753 52.092 71.8232 51.6271 69.1112C44.6018 59.09 59.2866 52.8972 63.3693 33.2242C60.9657 33.0525 58.6832 32.2138 57.0332 30.6403Z" fill="#FFE6D5"/>
<path d="M21.7289 39.0239C27.5982 34.2415 29.5347 26.6946 28.6183 19.4021C28.4304 19.4002 28.2428 19.3959 28.0549 19.4005C26.5967 19.4332 25.0897 19.8681 23.7026 19.199C22.761 18.7412 22.2185 17.8221 21.4586 17.1561C17.6974 14.6779 14.4464 10.5761 9.55837 9.39723C9.53235 9.32888 9.49662 9.26403 9.44148 9.20229C8.99996 8.69244 8.25284 8.58527 7.63892 8.81243C6.94733 9.07221 6.54117 9.66672 6.28139 10.3292C5.99248 11.0631 5.81037 11.849 5.61543 12.6125C5.39448 13.4632 5.19955 14.321 5.03063 15.1815C4.4105 18.3482 4.04664 21.7518 4.61513 24.9511C4.81667 26.0815 5.21585 27.2181 5.92724 28.1209C4.91413 29.9005 4.08237 31.8106 3.31623 33.3953C2.4833 34.9556 1.82667 36.7488 1.39758 38.6259C1.95908 39.3354 2.57378 40.0052 3.21644 40.6478C8.73746 45.1946 16.8571 43.246 21.7289 39.0239Z" fill="#FECBA1"/>
<path d="M48.505 27.6497C49.3939 28.3475 49.9697 29.225 50.3767 30.1935C50.5572 29.8817 50.7339 29.5714 50.9102 29.2794C53.4545 25.0631 55.0951 19.0819 51.9792 14.7363C51.5292 14.8462 51.0877 14.9914 50.6598 15.1755C47.7626 16.4228 45.475 18.9821 44.0522 21.8467C43.6115 23.1581 43.3754 24.5059 43.4271 25.7807C45.2525 25.983 47.0345 26.4952 48.505 27.6497Z" fill="#FFAEF2"/>
<path d="M14.681 18.8551C14.5486 17.7799 14.1463 16.7435 13.664 15.7812C13.1503 14.7565 12.553 13.7511 11.8292 12.8592C11.0794 11.9346 10.2212 11.1906 9.12656 10.7075C8.63573 10.4909 8.13015 10.3122 7.62301 10.1367C7.61524 10.1554 7.61018 10.174 7.60047 10.193C6.9116 11.5148 6.35439 12.8957 5.93307 14.3254C5.59989 15.4558 5.35642 16.618 5.20188 17.7919C5.15955 19.1001 5.21392 20.4138 5.33274 21.7077C5.47836 23.2974 5.83133 24.8196 6.20839 26.3659C6.2546 26.5557 6.29108 26.7631 6.32642 26.9759C7.65483 25.312 9.35216 24.0818 11.3426 23.2757C12.2571 22.9056 13.2031 22.6353 14.1637 22.4218C14.6033 21.2801 14.8324 20.0845 14.681 18.8551Z" fill="#FFAEF2"/>
<path d="M7.0936 25.0425C6.66685 26.2952 6.01992 27.4854 5.45648 28.681C4.9074 29.8467 4.32454 30.9965 3.75838 32.1537C2.59538 34.5305 1.45569 36.9454 0.783134 39.5145C0.153291 41.9205 -0.0618376 44.4744 0.519855 46.9123C0.998644 48.9195 1.99001 50.7868 3.32231 52.3568C4.81382 54.1147 6.81752 55.5693 9.041 56.2294C9.61842 56.4007 9.82615 55.5514 9.28523 55.3437C5.57762 53.9198 2.62917 50.9193 1.56481 47.0497C0.231342 42.202 2.34142 37.272 4.42084 32.9703C5.0367 31.6962 5.65995 30.4272 6.22417 29.1291C6.78528 27.8376 7.15844 26.5161 7.55413 25.1687C7.64073 24.8724 7.19185 24.754 7.0936 25.0425Z" fill="#49312C"/>
<path d="M23.4042 19.4195C22.9033 18.2491 21.9935 17.2371 21.1574 16.29C20.2973 15.3158 19.3607 14.4129 18.3693 13.5734C16.406 11.9107 14.2253 10.5143 11.8896 9.43555C11.3044 9.16529 10.7099 8.91327 10.108 8.68184C9.49989 8.44768 8.87084 8.22091 8.21148 8.20576C6.83375 8.17431 6.08896 9.22819 5.66337 10.4001C4.63978 13.2185 3.7688 16.1755 3.46941 19.1674C3.16847 22.1776 3.54395 25.5307 5.237 28.1134C5.56628 28.6159 6.34874 28.1693 6.0478 27.6396C4.77297 25.396 4.26972 22.9314 4.35631 20.3611C4.45184 17.5326 5.23118 14.7706 6.07459 12.0866C6.37126 11.1422 6.63647 9.39672 7.80257 9.13694C8.43009 8.99715 9.10732 9.26547 9.6859 9.48215C10.2373 9.68834 10.7817 9.91356 11.3176 10.1574C13.4875 11.1437 15.5351 12.4155 17.3877 13.9151C18.4315 14.7601 19.4088 15.6823 20.3307 16.6582C21.2619 17.6441 22.0311 18.7881 23.0011 19.7309C23.2248 19.9468 23.5133 19.6742 23.4042 19.4195Z" fill="#49312C"/>
<path d="M13.6965 22.5608C13.1618 21.6781 12.4784 20.8957 11.6994 20.22C11.3138 19.8853 10.9072 19.5723 10.4855 19.2846C10.0444 18.9836 9.59048 18.6877 9.08334 18.513C8.64028 18.3604 8.4399 18.9879 8.78239 19.2271C9.18196 19.5063 9.6227 19.7222 10.0312 19.9898C10.4308 20.2515 10.814 20.5357 11.1779 20.8448C11.9203 21.4754 12.5945 22.1833 13.2227 22.9266C13.4452 23.191 13.8716 22.8501 13.6965 22.5608Z" fill="#49312C"/>
<path d="M11.777 22.3134C11.2718 22.2225 10.7666 22.1317 10.2618 22.04C10.0133 21.995 9.76322 21.9612 9.51315 21.9259C9.24288 21.8874 8.90505 21.7806 8.6406 21.8773C8.33151 21.9907 8.28881 22.3612 8.55286 22.5499C8.77459 22.7087 9.11281 22.6963 9.37492 22.7304C9.63509 22.7646 9.89448 22.8003 10.1558 22.8244C10.6668 22.8714 11.1779 22.9188 11.6889 22.9661C12.0585 23.0007 12.1459 22.3798 11.777 22.3134Z" fill="#49312C"/>
<path d="M10.0862 23.1214C9.74678 23.168 9.4074 23.2146 9.06763 23.2612C8.90143 23.2841 8.73445 23.3043 8.56903 23.3314C8.39701 23.3594 8.22383 23.3788 8.05918 23.4367C7.87396 23.5015 7.75241 23.665 7.77921 23.8654C7.80522 24.0603 7.96675 24.1974 8.16285 24.204C8.36011 24.211 8.55583 24.1706 8.75115 24.1426C8.92356 24.1182 9.0952 24.0875 9.26683 24.0584C9.6101 24.0005 9.95336 23.9423 10.2966 23.8844C10.5013 23.8498 10.6341 23.5866 10.5731 23.3975C10.5001 23.1715 10.3071 23.0911 10.0862 23.1214Z" fill="#49312C"/>
<path d="M17.6054 74.6096C18.9214 74.8837 20.4428 74.7269 21.3413 73.6147C22.2333 72.5111 22.3036 71.02 21.8535 69.7165C20.9542 67.1117 18.6973 64.9767 16.2047 63.8929C13.492 62.7133 10.3564 62.7008 7.63235 63.8592C5.09899 64.9367 2.9621 67.0907 2.63204 69.9153C2.45303 71.4464 2.88911 73.0365 3.94998 74.1735C4.92814 75.222 6.38859 75.8475 7.82728 75.6693C8.4315 75.5944 8.44004 74.6352 7.82728 74.7102C5.44343 75.0022 3.58263 72.9317 3.56088 70.6457C3.53758 68.1873 5.21159 66.1925 7.29411 65.0831C9.55914 63.8762 12.3057 63.6468 14.7521 64.402C16.9398 65.0777 18.8643 66.5684 20.0987 68.4937C20.8237 69.624 21.4404 71.0732 20.9169 72.411C20.3667 73.8167 18.8674 73.8291 17.6062 74.1153C17.3638 74.17 17.3584 74.5579 17.6054 74.6096Z" fill="#49312C"/>
<path d="M6.65665 72.92C6.77276 73.7141 7.0442 74.4092 7.65035 74.9648C8.25185 75.5162 8.9982 75.8603 9.81288 75.9275C11.405 76.0587 13.0743 75.0037 13.6109 73.4974C13.8035 72.9569 12.9135 72.5709 12.6743 73.1025C12.1668 74.2298 11.1401 75.0324 9.85713 74.9516C9.28165 74.9155 8.69763 74.6608 8.25301 74.2993C7.78354 73.9176 7.29621 73.3801 7.11642 72.793C7.02439 72.4917 6.61316 72.6233 6.65665 72.92Z" fill="#49312C"/>
<path d="M12.9821 73.698C13.1048 73.8669 13.1673 74.0513 13.3094 74.2121C13.4255 74.3437 13.5638 74.461 13.7001 74.5709C14.0072 74.8183 14.335 74.9965 14.7031 75.1374C15.4331 75.417 16.2567 75.4597 17.0093 75.2454C17.7611 75.031 18.4119 74.5771 18.8576 73.9341C19.2603 73.3524 19.5912 72.3699 19.3182 71.6721C19.1236 71.1743 18.3855 71.2248 18.3614 71.8014C18.3501 72.0721 18.4029 72.3319 18.3427 72.6029C18.2794 72.8879 18.1746 73.1466 18.0158 73.3916C17.7067 73.868 17.2073 74.1834 16.6652 74.3294C16.1123 74.4785 15.5302 74.4505 14.9877 74.2734C14.7019 74.1802 14.4266 74.044 14.1645 73.8976C14.0352 73.8253 13.9136 73.743 13.7902 73.6615C13.6581 73.5741 13.4737 73.5108 13.3572 73.4087C13.1665 73.2417 12.8132 73.4654 12.9821 73.698Z" fill="#49312C"/>
<path d="M12.8055 71.3297C12.8381 71.7153 12.8964 72.1024 12.9088 72.4896C12.9154 72.6868 12.9084 72.8845 12.8879 73.081C12.8677 73.2739 12.8067 73.4693 12.8051 73.665C12.8028 73.9516 13.2401 74.0999 13.3725 73.8188C13.4738 73.6032 13.4955 73.3586 13.5157 73.1233C13.5336 72.9128 13.5359 72.7008 13.5227 72.49C13.4948 72.0403 13.4047 71.619 13.1651 71.233C13.0707 71.0808 12.7888 71.1293 12.8055 71.3297Z" fill="#49312C"/>
<path d="M49.8228 29.0955C49.9171 30.3664 49.9758 31.6238 50.2142 32.8796C50.4557 34.1509 50.7586 35.4079 51.0677 36.6641C51.6735 39.1264 52.2699 41.6061 52.4283 44.1453C52.5774 46.535 52.3631 49.0136 51.3531 51.213C50.5365 52.9907 49.2795 54.5498 47.7368 55.7504C45.9664 57.1285 43.9022 57.9191 41.6981 58.2636C41.1902 58.3428 41.3051 59.2056 41.82 59.1656C45.895 58.8507 49.7105 56.15 51.7142 52.6443C54.2678 48.1772 53.5308 42.8425 52.3938 38.069C52.0462 36.6097 51.6657 35.1582 51.3085 33.7013C51.1244 32.9503 50.9617 32.1942 50.7838 31.4417C50.6006 30.665 50.392 29.89 50.2992 29.0955C50.2651 28.7976 49.7995 28.7844 49.8228 29.0955Z" fill="#49312C"/>
<path d="M38.1715 21.0062C37.4884 20.6711 36.8287 20.369 36.1025 20.1267C35.4137 19.8968 34.7159 19.7018 34.0091 19.5345C32.5429 19.1873 31.0483 18.9551 29.5463 18.8355C26.5668 18.5983 23.496 18.7959 20.591 19.5205C20.146 19.6316 20.3347 20.303 20.7797 20.2055C23.6455 19.5776 26.5438 19.3213 29.474 19.5485C32.3938 19.7748 35.2176 20.5313 37.9932 21.4287C38.2394 21.5075 38.4083 21.1223 38.1715 21.0062Z" fill="#49312C"/>
<path d="M35.8518 20.5538C36.8824 19.908 37.7728 19.053 38.7657 18.349C39.7656 17.6399 40.8067 16.9837 41.8854 16.4008C44.0308 15.2417 46.3219 14.3567 48.6917 13.782C49.8237 13.5075 51.0822 13.17 52.2553 13.231C52.8183 13.2605 53.308 13.485 53.5717 14.0022C53.833 14.5148 53.871 15.1252 53.927 15.6875C54.2112 18.5583 54.4691 21.49 54.0749 24.3631C53.6944 27.1369 52.6642 29.7257 50.7909 31.8253C50.391 32.2735 51.0212 32.9173 51.455 32.4894C53.3251 30.6437 54.3898 28.0249 54.8682 25.4788C55.4422 22.4247 55.227 19.3135 54.9024 16.2455C54.7778 15.0669 54.7576 13.5964 53.7196 12.8093C52.7104 12.0443 51.3008 12.3554 50.156 12.5584C47.5489 13.0213 45.0039 13.8535 42.6255 15.0172C41.3045 15.6638 40.0226 16.4058 38.8231 17.2578C37.6392 18.0989 36.3473 19.0071 35.5015 20.2031C35.3509 20.4156 35.6429 20.6847 35.8518 20.5538Z" fill="#49312C"/>
<path d="M44.74 25.732C45.5076 25.1395 46.3114 24.5912 47.1661 24.1318C47.5824 23.9081 48.0111 23.7066 48.4518 23.5361C48.9135 23.3575 49.3958 23.2375 49.8513 23.0457C50.033 22.9692 50.1596 22.8267 50.1313 22.617C50.108 22.4438 49.9406 22.2547 49.7476 22.2784C48.7349 22.4019 47.7175 22.8985 46.8306 23.3855C45.9239 23.8833 45.0848 24.5057 44.3742 25.2579C44.1501 25.4948 44.4576 25.9499 44.74 25.732Z" fill="#49312C"/>
<path d="M46.311 26.0947C46.8252 26.156 47.3393 26.2174 47.8538 26.2795C48.1054 26.3098 48.3578 26.3288 48.6106 26.3494C48.9042 26.3735 49.1876 26.427 49.4657 26.3067C49.7344 26.1906 49.675 25.8038 49.4657 25.6714C49.2323 25.5238 48.9069 25.5475 48.6397 25.5285C48.378 25.5099 48.1163 25.4893 47.8538 25.4807C47.3397 25.464 46.8256 25.4469 46.311 25.4299C46.1316 25.4236 45.9786 25.5871 45.9786 25.7623C45.9786 25.9595 46.1316 26.0733 46.311 26.0947Z" fill="#49312C"/>
<path d="M47.4882 27.3087C47.8066 27.4353 48.1247 27.5623 48.4427 27.6889C48.5957 27.7499 48.7483 27.8132 48.9028 27.8702C49.069 27.9316 49.2325 28.0019 49.4073 28.0329C49.601 28.0679 49.7882 27.9964 49.8682 27.8066C49.9439 27.6268 49.8755 27.4214 49.7082 27.3185C49.5377 27.214 49.3459 27.1507 49.1603 27.0777C49.0015 27.0152 48.8399 26.9589 48.6792 26.9006C48.3522 26.7822 48.0253 26.6638 47.6983 26.5449C47.5034 26.4743 47.2564 26.6242 47.2113 26.8214C47.1593 27.0501 47.2816 27.2264 47.4882 27.3087Z" fill="#49312C"/>
<path d="M37.3119 73.5689C36.2006 73.3169 34.8415 73.3235 34.1829 72.2277C33.5414 71.1602 33.8179 69.8264 34.3456 68.7744C35.3773 66.7191 37.2075 65.0361 39.3292 64.1554C41.6894 63.1761 44.4103 63.1839 46.7763 64.1387C48.9454 65.014 50.8741 66.7832 51.2861 69.1674C51.511 70.469 51.2298 71.9062 50.3254 72.9018C49.4976 73.8132 48.3217 74.3145 47.09 74.1638C46.4784 74.0889 46.4846 75.048 47.09 75.1229C48.3594 75.2802 49.6179 74.8123 50.5817 73.9949C51.6189 73.115 52.1917 71.8386 52.3058 70.4966C52.5505 67.618 50.6411 65.1018 48.2208 63.7652C45.6431 62.342 42.4485 62.0504 39.655 62.9804C37.0886 63.8351 34.8298 65.6656 33.5519 68.0611C32.8009 69.4687 32.4401 71.166 33.2684 72.6242C34.0924 74.0745 35.7901 74.3797 37.3111 74.0628C37.5589 74.012 37.5538 73.6237 37.3119 73.5689Z" fill="#49312C"/>
<path d="M47.8019 72.2483C47.626 72.823 47.1542 73.3468 46.6994 73.7262C46.2475 74.1033 45.6525 74.37 45.0608 74.4069C43.7782 74.4877 42.7515 73.685 42.2439 72.5578C42.0071 72.032 41.1124 72.4059 41.3069 72.9527C41.8424 74.4555 43.5141 75.5186 45.105 75.3827C45.9213 75.3128 46.6637 74.9719 47.2675 74.4197C47.8745 73.8648 48.1451 73.1686 48.2612 72.3749C48.3051 72.079 47.8943 71.9466 47.8019 72.2483Z" fill="#49312C"/>
<path d="M41.5624 72.863C41.4532 72.9589 41.2882 73.0105 41.1659 73.0909C41.0424 73.1721 40.9224 73.2567 40.7939 73.3301C40.5341 73.4788 40.2576 73.6175 39.9738 73.7134C39.4173 73.9017 38.8236 73.9359 38.2543 73.7833C37.7285 73.6427 37.235 73.3383 36.9271 72.8816C36.7644 72.6401 36.6529 72.3819 36.5861 72.0984C36.5186 71.8114 36.5694 71.5423 36.5574 71.255C36.5333 70.6822 35.7967 70.6236 35.6006 71.1257C35.3323 71.8114 35.6503 72.7741 36.0371 73.3519C36.479 74.0124 37.1445 74.4834 37.9091 74.6993C38.6484 74.9078 39.4534 74.8733 40.1741 74.6073C40.5566 74.4659 40.9014 74.2815 41.2187 74.0248C41.3554 73.9141 41.4924 73.7976 41.6093 73.666C41.7507 73.5064 41.8144 73.32 41.9367 73.1519C42.104 72.9216 41.7542 72.6945 41.5624 72.863Z" fill="#49312C"/>
<path d="M41.7528 70.6866C41.5132 71.0722 41.4232 71.4943 41.3952 71.9435C41.382 72.1544 41.3843 72.3664 41.4022 72.5769C41.4224 72.8122 41.4437 73.0568 41.5455 73.2723C41.6779 73.5535 42.1155 73.4055 42.1128 73.1186C42.1112 72.9229 42.0503 72.7275 42.0301 72.5346C42.0095 72.3385 42.0025 72.1404 42.0087 71.9432C42.0215 71.556 42.0794 71.1689 42.112 70.7833C42.1291 70.5837 41.8468 70.5347 41.7528 70.6866Z" fill="#49312C"/>
<path d="M47.4961 57.3078C47.4946 57.6371 47.4181 57.9602 47.4243 58.2941C47.4305 58.6226 47.4426 58.9496 47.4771 59.2765C47.5408 59.878 47.6185 60.4815 47.7419 61.074C47.8674 61.6763 48.0176 62.2731 48.192 62.863C48.3598 63.4319 48.51 64.165 48.8898 64.6287C49.0894 64.8721 49.5161 64.6702 49.5049 64.3739C49.4831 63.8023 49.1597 63.1896 48.995 62.6417C48.8242 62.0739 48.6758 61.4992 48.55 60.9195C48.4246 60.3409 48.3011 59.7623 48.2068 59.1779C48.1582 58.8766 48.1027 58.5764 48.0538 58.2751C48.0017 57.9543 47.8829 57.6274 47.8511 57.3082C47.8293 57.0849 47.4973 57.0744 47.4961 57.3078Z" fill="#49312C"/>
<path d="M53.2095 41.2156C56.9925 34.9188 57.9799 27.0811 56.5824 19.9272C55.8811 16.3368 54.55 12.8622 52.6255 9.74911C51.6112 8.10849 50.3644 6.41428 50.4622 4.38845C50.548 2.61425 51.8691 1.45902 53.5982 1.36427C57.2227 1.16584 60.033 4.40903 61.3761 7.43243C62.9523 10.9797 63.421 15.0305 63.687 18.8678C64.191 26.1406 63.1095 33.5981 60.7727 40.4922C58.4374 47.3824 54.795 53.8859 49.9943 59.3638C49.4025 60.0395 48.7929 60.6988 48.1685 61.3442C47.8364 61.6871 48.3622 62.2132 48.6923 61.868C53.8844 56.4383 57.9322 49.9806 60.6368 42.9758C63.3297 36.0014 64.7121 28.5248 64.5704 21.0451C64.5347 19.1645 64.4263 17.289 64.2011 15.4208C63.9576 13.4 63.6559 11.3625 63.1092 9.39924C62.1015 5.77861 59.84 2.15643 56.1685 0.795782C54.6781 0.243602 52.8348 0.187684 51.4334 1.01945C49.839 1.96577 49.3641 3.84598 49.6712 5.58212C50.0265 7.59047 51.3732 9.24274 52.3665 10.9657C53.3171 12.6141 54.1007 14.3549 54.7108 16.157C57.1373 23.3253 56.8954 31.4294 53.9345 38.4058C53.5683 39.2682 53.1994 40.1272 52.775 40.9628C52.6298 41.249 53.0418 41.4948 53.2095 41.2156Z" fill="#492C26"/>
<path d="M29.7983 44.3553C29.2298 45.0375 28.6551 45.726 27.9114 46.2099C27.1709 46.6906 26.2258 46.9407 25.3847 46.658C24.8974 46.4922 24.4819 46.1609 24.0854 45.8266C23.4194 45.2616 22.7636 44.6543 22.3318 43.8909C21.9 43.1278 21.7179 42.1823 22.0363 41.3672L22.7022 40.7564C24.784 40.318 26.983 40.4543 28.9933 41.1529C29.6787 41.3901 30.4258 41.7862 30.5749 42.4941C30.7174 43.1764 30.2433 43.8194 29.7983 44.3553Z" fill="#FFAEF2"/>
<path d="M18.2667 43.0384C17.9809 43.0974 17.7145 43.0672 17.4283 43.1724C17.1414 43.278 16.8726 43.4275 16.6556 43.6461C16.2331 44.0721 16.0805 44.6705 16.0684 45.2553C16.0455 46.3822 16.4156 47.657 16.9173 48.6589C17.4423 49.7065 18.3106 50.6008 19.4495 50.9487C20.6835 51.3258 22.0523 51.0536 23.1753 50.468C24.5014 49.776 25.6842 48.6328 26.5871 47.4531C26.876 47.0757 26.2752 46.6691 25.9533 46.9643C24.9002 47.93 24.0351 49.053 22.7396 49.7232C21.5343 50.3468 19.9982 50.5228 18.8406 49.7003C17.8493 48.9955 17.3674 47.7269 17.1052 46.5845C16.974 46.0121 16.8486 45.3543 16.9868 44.7738C17.0649 44.4457 17.2408 44.1801 17.5138 43.9828C17.6423 43.89 17.7859 43.8174 17.9261 43.744C18.0725 43.6675 18.2352 43.5351 18.3875 43.4799C18.6632 43.3786 18.5571 42.9782 18.2667 43.0384Z" fill="#49312C"/>
<path d="M34.7191 44.9888C34.9715 45.1476 35.2604 45.4346 35.4646 45.6571C35.7147 45.9297 35.8312 46.2512 35.8262 46.6205C35.8176 47.2686 35.5159 47.9407 35.2286 48.51C34.6997 49.558 33.9436 50.6476 32.7903 51.055C31.5361 51.4981 30.1646 51.0045 29.1736 50.1953C28.0428 49.2719 27.4359 47.9931 26.6096 46.8278C26.3086 46.4034 25.6897 46.763 25.9129 47.2352C26.9622 49.4544 28.8676 51.8425 31.4848 52.0728C34.0349 52.2972 35.7116 49.9394 36.4645 47.7986C36.6886 47.1614 36.802 46.4061 36.5185 45.7697C36.3803 45.459 36.164 45.2082 35.8922 45.007C35.7621 44.9107 35.6297 44.8307 35.4821 44.7632C35.3093 44.6839 35.1198 44.6696 34.9497 44.5946C34.6857 44.4778 34.4643 44.8284 34.7191 44.9888Z" fill="#49312C"/>
<path d="M23.75 51.6555C23.7733 51.758 23.7881 51.8947 23.8362 52.0217C23.8886 52.1599 23.9551 52.288 24.0323 52.4142C24.1803 52.6558 24.3531 52.8841 24.5503 53.0872C24.7464 53.2891 24.9658 53.4689 25.1961 53.6304C25.4353 53.7982 25.6939 53.9193 25.9654 54.0261C26.182 54.1115 26.462 53.9329 26.5117 53.7159C26.5703 53.4584 26.4325 53.2635 26.2014 53.1695C26.0989 53.128 26.29 53.2103 26.1894 53.1645C26.1603 53.1512 26.1312 53.138 26.102 53.1245C26.0492 53.0996 25.9968 53.0732 25.9448 53.0456C25.8411 52.9905 25.737 52.9365 25.6361 52.8763C25.5312 52.8134 25.4291 52.7459 25.3305 52.6736C25.3208 52.6666 25.2485 52.6115 25.2967 52.6488C25.3448 52.6861 25.273 52.6294 25.2637 52.622C25.214 52.5816 25.165 52.54 25.1173 52.4969C24.9433 52.3412 24.7771 52.1739 24.6288 51.9937C24.6086 51.9692 24.5888 51.9444 24.5694 51.9195C24.6163 51.9793 24.5523 51.8954 24.5484 51.8904C24.5057 51.8322 24.4622 51.7751 24.4164 51.7195C24.3966 51.6955 24.3768 51.6718 24.3577 51.6473C24.4032 51.7052 24.263 51.532 24.3014 51.5735C24.2653 51.5343 24.2214 51.5044 24.1954 51.4679C24.0374 51.2489 23.686 51.3743 23.75 51.6555Z" fill="#49312C"/>
<path d="M20.2249 36.1255C20.214 39.9314 15.1799 39.8576 15.2809 36.0529C15.2921 32.2474 20.3262 32.3212 20.2249 36.1255Z" fill="#49312C"/>
<path d="M38.5888 38.3935C38.5779 42.1989 33.5438 42.1255 33.6452 38.3208C33.6561 34.515 38.6898 34.5888 38.5888 38.3935Z" fill="#49312C"/>
<path d="M14.5171 31.3079C14.8802 31.2889 15.1932 31.0338 15.4941 30.8505C15.8044 30.6614 16.1123 30.4785 16.4435 30.327C16.7068 30.2067 17.0419 30.0855 17.3588 29.9908C17.5269 29.9403 17.697 29.8964 17.8686 29.8587C18.0469 29.8195 18.2445 29.811 18.4146 29.7477C18.6721 29.6522 18.8538 29.4273 18.8107 29.1408C18.7687 28.8623 18.5489 28.6748 18.2674 28.6612C18.0608 28.6511 17.8325 28.7175 17.631 28.7649C17.45 28.8076 17.2706 28.8573 17.0935 28.9144C16.7048 29.039 16.3266 29.1986 15.9644 29.3862C15.6343 29.557 15.3151 29.7523 15.0165 29.9737C14.7151 30.197 14.2822 30.5262 14.2204 30.9196C14.1921 31.1033 14.2989 31.3196 14.5171 31.3079Z" fill="#49312C"/>
<path d="M38.84 33.5018C38.9437 33.1007 38.5344 32.8215 38.251 32.6277C37.9795 32.4421 37.7019 32.2818 37.4009 32.1494C36.7653 31.8698 36.0756 31.6104 35.3778 31.5514C35.0944 31.5273 34.8497 31.7882 34.8148 32.0488C34.7775 32.3268 34.948 32.6025 35.2256 32.6778C35.5304 32.7609 35.8438 32.8126 36.149 32.8984C36.4535 32.9842 36.7532 33.0875 37.0453 33.2087C36.9897 33.1858 37.0386 33.2059 37.0658 33.218C37.1 33.2331 37.1338 33.2487 37.168 33.2638C37.2627 33.3054 37.3582 33.3446 37.4545 33.3826C37.4716 33.3896 37.4887 33.3966 37.5058 33.4036C37.4716 33.3888 37.472 33.3892 37.5062 33.404C37.5407 33.4187 37.5749 33.4339 37.6091 33.4494C37.6774 33.4801 37.745 33.5115 37.8125 33.5442C37.9892 33.6296 38.1783 33.7263 38.3756 33.7461C38.5519 33.7636 38.7888 33.6999 38.84 33.5018Z" fill="#49312C"/>
<path d="M9.14341 56.1366C8.34349 56.6728 7.78275 57.4316 7.32571 58.2719C7.10204 58.6831 6.91876 59.1188 6.76654 59.5611C6.61432 60.0034 6.42212 60.5315 6.44426 61.0049C6.46639 61.4689 7.05507 61.5124 7.21699 61.1093C7.37543 60.7144 7.42047 60.2643 7.55288 59.857C7.68763 59.4423 7.85771 59.0423 8.05225 58.6528C8.44096 57.8747 8.97022 57.1695 9.45911 56.4531C9.58841 56.2636 9.33213 56.01 9.14341 56.1366Z" fill="#49312C"/>
<path d="M8.6137 59.4469C8.3908 59.7094 8.16093 59.9552 7.98736 60.2554C7.80796 60.5656 7.67827 60.9116 7.58158 61.2557C7.38742 61.9469 7.35362 62.7006 7.50934 63.403C7.55982 63.6318 7.82542 63.7661 8.04327 63.7059C8.29334 63.6372 8.37916 63.4054 8.34654 63.1724C8.26577 62.5985 8.26578 62.0141 8.37645 61.4436C8.43353 61.1501 8.52361 60.8681 8.62263 60.5866C8.72398 60.2977 8.83038 59.9999 8.99658 59.742C9.14375 59.5133 8.79426 59.2341 8.6137 59.4469Z" fill="#49312C"/>
</svg>
