<svg width="20" height="10" viewBox="0 0 20 10" fill="none" xmlns="http://www.w3.org/2000/svg">
<path d="M17.0833 10C15.6167 10 14.3992 8.91167 14.1967 7.5H5.80333C5.60083 8.91167 4.38333 10 2.91667 10C1.30833 10 0 8.69167 0 7.08333C0 6.29083 0.319167 5.54417 0.875 5C0.319167 4.45583 0 3.70917 0 2.91667C0 1.30833 1.30833 0 2.91667 0C4.38333 0 5.60083 1.08833 5.80333 2.5H14.1958C14.3983 1.08833 15.6158 0 17.0825 0C18.6917 0 20 1.30833 20 2.91667C20 3.70917 19.6808 4.45583 19.125 5C19.6808 5.54417 20 6.29083 20 7.08333C20 8.69167 18.6917 10 17.0833 10ZM5.41667 6.66667H14.5833C14.8133 6.66667 15 6.85333 15 7.08333C15 8.23167 15.935 9.16667 17.0833 9.16667C18.2317 9.16667 19.1667 8.23167 19.1667 7.08333C19.1667 6.385 18.8192 5.735 18.2358 5.34667C18.12 5.26917 18.05 5.13917 18.05 5C18.05 4.86083 18.1192 4.73083 18.2358 4.65333C18.8192 4.265 19.1667 3.615 19.1667 2.91667C19.1667 1.76833 18.2317 0.833333 17.0833 0.833333C15.935 0.833333 15 1.76833 15 2.91667C15 3.14667 14.8133 3.33333 14.5833 3.33333H5.41667C5.18667 3.33333 5 3.14667 5 2.91667C5 1.76833 4.065 0.833333 2.91667 0.833333C1.76833 0.833333 0.833333 1.76833 0.833333 2.91667C0.833333 3.615 1.18083 4.265 1.76417 4.65333C1.88 4.73083 1.95 4.86083 1.95 5C1.95 5.13917 1.88083 5.26917 1.76417 5.34667C1.18083 5.735 0.833333 6.385 0.833333 7.08333C0.833333 8.23167 1.76833 9.16667 2.91667 9.16667C4.065 9.16667 5 8.23167 5 7.08333C5 6.85333 5.18667 6.66667 5.41667 6.66667Z" fill="#BFBFBF"/>
</svg>
