<svg width="20" height="10" viewBox="0 0 20 10" fill="none" xmlns="http://www.w3.org/2000/svg">
<path d="M16.775 10C15.315 10 13.8483 8.97333 13.4692 7.5025H6.13917C5.76 8.97333 4.685 10 3.225 10C1.44667 10 0 8.60667 0 6.89417C0 6.1975 0.24 5.53583 0.6675 5C0.24 4.46417 0 3.8025 0 3.10583C0 1.39333 1.44667 0 3.225 0C4.685 0 5.95583 1.14583 6.335 2.5H13.6658C14.045 1.14583 15.3158 0 16.7758 0C18.5533 0 20 1.39333 20 3.10583C20 3.8025 19.76 4.46417 19.3325 5C19.76 5.53583 20 6.1975 20 6.89417C20 8.60667 18.5533 10 16.775 10Z" fill="#FFB800"/>
</svg>
