<svg width="16" height="16" viewBox="0 0 16 16" fill="none" xmlns="http://www.w3.org/2000/svg">
<path d="M12.6583 1.3418L14.6583 3.3418L13.1337 4.86713L11.1337 2.86713L12.6583 1.3418ZM5.33301 10.6671H7.33301L12.191 5.80913L10.191 3.80913L5.33301 8.66713V10.6671Z" fill="#FF6694"/>
<path d="M12.6667 12.6667H5.43867C5.42133 12.6667 5.40333 12.6733 5.386 12.6733C5.364 12.6733 5.342 12.6673 5.31933 12.6667H3.33333V3.33333H7.898L9.23133 2H3.33333C2.598 2 2 2.59733 2 3.33333V12.6667C2 13.4027 2.598 14 3.33333 14H12.6667C13.0203 14 13.3594 13.8595 13.6095 13.6095C13.8595 13.3594 14 13.0203 14 12.6667V6.888L12.6667 8.22133V12.6667Z" fill="#FF6694"/>
</svg>
