<svg width="24" height="24" viewBox="0 0 24 24" fill="none" xmlns="http://www.w3.org/2000/svg">
<path d="M2 13.4583C2 18.1758 5.91419 22 10.7428 22C15.5713 22 19.4855 18.1758 19.4855 13.4583C19.432 11.8502 18.9842 10.2781 18.1796 8.87417L18.2061 8.925C17.7727 8.37304 17.5385 7.69648 17.5399 7.00083C17.5399 5.5425 19.1145 4.08333 20.7641 4.08333H20.9748C21.2502 4.07279 21.5107 3.95854 21.7018 3.76451C21.8929 3.57049 21.9998 3.31174 22 3.04247C22.0002 2.77319 21.8938 2.51428 21.703 2.31996C21.5122 2.12564 21.2518 2.01098 20.9765 2H20.7615C18.1387 2 15.8946 3.36667 15.3623 6.16667C13.9902 5.28185 12.3664 4.84454 10.724 4.9175L10.7402 4.91667C5.91334 4.91917 2.00171 8.74167 2.00085 13.4575L2 13.4583ZM9.67656 13.4583C9.67673 13.2523 9.7394 13.051 9.85666 12.8798C9.97392 12.7086 10.1405 12.5753 10.3353 12.4966C10.5302 12.4178 10.7445 12.3973 10.9513 12.4376C11.158 12.4779 11.3479 12.5772 11.497 12.7229C11.646 12.8686 11.7474 13.0542 11.7885 13.2563C11.8296 13.4583 11.8084 13.6677 11.7277 13.858C11.647 14.0483 11.5103 14.2109 11.335 14.3253C11.1597 14.4398 10.9536 14.5008 10.7428 14.5008H10.7402C10.458 14.5 10.1877 14.3898 9.98849 14.1946C9.78927 13.9993 9.67741 13.7349 9.67741 13.4592L9.67656 13.4583ZM4.13238 13.4583C4.13272 12.9618 4.33488 12.4858 4.69441 12.1349C5.05394 11.784 5.5414 11.5869 6.0496 11.5871C6.5578 11.5872 7.04512 11.7846 7.40441 12.1357C7.7637 12.4869 7.96554 12.9631 7.96554 13.4596C7.96554 13.9561 7.7637 14.4323 7.40441 14.7834C7.04512 15.1346 6.5578 15.3319 6.0496 15.3321C5.5414 15.3322 5.05394 15.1352 4.69441 14.7843C4.33488 14.4334 4.13272 13.9573 4.13238 13.4608V13.4583ZM13.5148 13.4583C13.5152 12.9618 13.7173 12.4858 14.0769 12.1349C14.4364 11.784 14.9239 11.5869 15.4321 11.5871C15.9403 11.5872 16.4276 11.7846 16.7869 12.1357C17.1462 12.4869 17.348 12.9631 17.348 13.4596C17.348 13.9561 17.1462 14.4323 16.7869 14.7834C16.4276 15.1346 15.9403 15.3319 15.4321 15.3321C14.9239 15.3322 14.4364 15.1352 14.0769 14.7843C13.7173 14.4334 13.5152 13.9573 13.5148 13.4608V13.4583ZM8.82361 18.0417C8.82361 17.6708 8.93617 17.3083 9.14704 17C9.35792 16.6916 9.65765 16.4513 10.0083 16.3094C10.359 16.1675 10.7449 16.1303 11.1172 16.2027C11.4894 16.275 11.8314 16.4536 12.0998 16.7158C12.3682 16.9781 12.551 17.3122 12.625 17.6759C12.6991 18.0396 12.6611 18.4166 12.5158 18.7592C12.3705 19.1018 12.1246 19.3946 11.809 19.6007C11.4934 19.8067 11.1223 19.9167 10.7428 19.9167H10.7393C10.2309 19.9158 9.74368 19.7178 9.38451 19.3663C9.02533 19.0148 8.82361 18.5384 8.82361 18.0417ZM8.82361 8.875C8.82372 8.6291 8.87341 8.38563 8.96983 8.15849C9.06625 7.93135 9.20752 7.72499 9.38557 7.55119C9.56362 7.37739 9.77496 7.23955 10.0075 7.14555C10.2401 7.05155 10.4894 7.00322 10.741 7.00333C10.9927 7.00344 11.2419 7.05198 11.4744 7.14619C11.7069 7.24039 11.9181 7.37841 12.096 7.55236C12.2739 7.72632 12.415 7.9328 12.5112 8.16003C12.6074 8.38725 12.6569 8.63077 12.6568 8.87667C12.6568 9.37328 12.4548 9.84956 12.0954 10.2007C11.736 10.5519 11.2485 10.7492 10.7402 10.7492C10.2319 10.7492 9.74439 10.5519 9.38496 10.2007C9.02553 9.84956 8.82361 9.37328 8.82361 8.87667V8.875Z" fill="#FFA800"/>
</svg>
