<svg width="24" height="24" viewBox="0 0 24 24" fill="none" xmlns="http://www.w3.org/2000/svg">
<path d="M5 22C4.45 22 3.97933 21.8043 3.588 21.413C3.19667 21.0217 3.00067 20.5507 3 20V6C3 5.45 3.196 4.97934 3.588 4.588C3.98 4.19667 4.45067 4.00067 5 4H6V3C6 2.71667 6.096 2.47934 6.288 2.288C6.48 2.09667 6.71733 2.00067 7 2C7.28267 1.99934 7.52033 2.09534 7.713 2.288C7.90567 2.48067 8.00133 2.718 8 3V4H16V3C16 2.71667 16.096 2.47934 16.288 2.288C16.48 2.09667 16.7173 2.00067 17 2C17.2827 1.99934 17.5203 2.09534 17.713 2.288C17.9057 2.48067 18.0013 2.718 18 3V4H19C19.55 4 20.021 4.196 20.413 4.588C20.805 4.98 21.0007 5.45067 21 6V20C21 20.55 20.8043 21.021 20.413 21.413C20.0217 21.805 19.5507 22.0007 19 22H5ZM5 20H19V10H5V20ZM8 14C7.71667 14 7.47933 13.904 7.288 13.712C7.09667 13.52 7.00067 13.2827 7 13C6.99933 12.7173 7.09533 12.48 7.288 12.288C7.48067 12.096 7.718 12 8 12H16C16.2833 12 16.521 12.096 16.713 12.288C16.905 12.48 17.0007 12.7173 17 13C16.9993 13.2827 16.9033 13.5203 16.712 13.713C16.5207 13.9057 16.2833 14.0013 16 14H8ZM8 18C7.71667 18 7.47933 17.904 7.288 17.712C7.09667 17.52 7.00067 17.2827 7 17C6.99933 16.7173 7.09533 16.48 7.288 16.288C7.48067 16.096 7.718 16 8 16H13C13.2833 16 13.521 16.096 13.713 16.288C13.905 16.48 14.0007 16.7173 14 17C13.9993 17.2827 13.9033 17.5203 13.712 17.713C13.5207 17.9057 13.2833 18.0013 13 18H8Z" fill="#FF894B"/>
</svg>
