<svg width="16" height="14" viewBox="0 0 16 14" fill="none" xmlns="http://www.w3.org/2000/svg">
<path fill-rule="evenodd" clip-rule="evenodd" d="M6.40008 11.494H1.14925C0.804246 11.494 0.524246 11.214 0.524246 10.869C0.524246 10.524 0.804246 10.244 1.14925 10.244H6.40008C6.74508 10.244 7.02508 10.524 7.02508 10.869C7.02508 11.214 6.74508 11.494 6.40008 11.494Z" fill="#101268"/>
<path fill-rule="evenodd" clip-rule="evenodd" d="M13.9924 3.41699H8.74242C8.39742 3.41699 8.11742 3.13699 8.11742 2.79199C8.11742 2.44699 8.39742 2.16699 8.74242 2.16699H13.9924C14.3374 2.16699 14.6174 2.44699 14.6174 2.79199C14.6174 3.13699 14.3374 3.41699 13.9924 3.41699Z" fill="#101268"/>
<mask id="mask0_1321_51" style="mask-type:luminance" maskUnits="userSpaceOnUse" x="0" y="0" width="6" height="6">
<path fill-rule="evenodd" clip-rule="evenodd" d="M0.5 0.166992H5.68817V5.32666H0.5V0.166992Z" fill="white"/>
</mask>
<g mask="url(#mask0_1321_51)">
<path fill-rule="evenodd" clip-rule="evenodd" d="M3.094 1.41669C2.35317 1.41669 1.74983 2.01335 1.74983 2.74752C1.74983 3.48085 2.35317 4.07669 3.094 4.07669C3.83567 4.07669 4.43817 3.48085 4.43817 2.74752C4.43817 2.01335 3.83567 1.41669 3.094 1.41669ZM3.094 5.32669C1.664 5.32669 0.499832 4.17002 0.499832 2.74752C0.499832 1.32502 1.664 0.166687 3.094 0.166687C4.52483 0.166687 5.68817 1.32502 5.68817 2.74752C5.68817 4.17002 4.52483 5.32669 3.094 5.32669Z" fill="#101268"/>
</g>
<path fill-rule="evenodd" clip-rule="evenodd" d="M12.4897 9.50665C11.7481 9.50665 11.1447 10.1033 11.1447 10.8367C11.1447 11.5708 11.7481 12.1667 12.4897 12.1667C13.2306 12.1667 13.8331 11.5708 13.8331 10.8367C13.8331 10.1033 13.2306 9.50665 12.4897 9.50665ZM12.4897 13.4167C11.0589 13.4167 9.89474 12.2592 9.89474 10.8367C9.89474 9.41415 11.0589 8.25665 12.4897 8.25665C13.9197 8.25665 15.0831 9.41415 15.0831 10.8367C15.0831 12.2592 13.9197 13.4167 12.4897 13.4167Z" fill="#101268"/>
</svg>
