<svg width="99" height="107" viewBox="0 0 99 107" fill="none" xmlns="http://www.w3.org/2000/svg">
<path d="M76.332 27.91C76.2324 26.815 75.8429 25.6948 75.229 24.6682C74.0061 22.6001 72.075 20.9797 70.6471 19.0671C69.1849 17.1566 68.0405 15.0094 67.2518 12.8743C67.13 12.5481 67.0199 12.2227 66.9152 11.8978C66.8994 11.5478 66.8822 11.1987 66.8603 10.851C66.6766 7.90169 66.0522 4.73999 63.8797 2.7372C61.2717 0.332855 56.2682 0.367526 53.8702 2.98192C51.3551 1.36252 48.1079 0.98317 45.2492 1.86372C42.3901 2.74427 39.9507 4.83895 38.538 7.47555C37.0633 10.2276 36.6988 13.4189 36.3608 16.5231C36.2982 17.098 36.2356 17.6729 36.173 18.2478C36.139 18.3529 36.1084 18.4572 36.0734 18.5622C35.2474 21.0534 34.0174 23.5773 32.9268 26.2021C32.3856 27.5158 31.879 28.8558 31.4979 30.2204C31.1088 31.5803 30.8577 32.9732 30.7827 34.329C30.7069 35.6852 30.8045 37.0121 31.095 38.2269C31.3714 39.4447 31.8655 40.5363 32.4522 41.4407C32.0136 40.4528 31.6757 39.3427 31.5319 38.1467C31.3748 36.9538 31.3869 35.6852 31.5414 34.3953C31.8382 31.8058 32.7891 29.1797 33.8653 26.5909C34.5068 25.0452 35.1831 23.4928 35.7711 21.9367C35.3517 25.7871 34.9323 29.6374 34.5132 33.4875C34.317 35.29 34.1322 37.1814 34.8216 38.8587C35.4907 40.4861 36.9347 41.7144 38.5558 42.399C40.1769 43.0837 41.9676 43.2718 43.7274 43.2574C49.3018 43.2109 54.8376 41.1341 59.067 37.5021C61.6834 37.6637 65.3197 36.9841 67.8193 36.1948C70.3189 35.4055 72.628 33.4518 73.0518 30.865C73.3914 28.7916 72.491 26.713 71.3654 24.9391C70.2398 23.1653 68.8591 21.53 68.0556 19.5885C67.3605 17.9085 67.1384 16.1054 67.0273 14.2793C67.7103 16.1303 68.6905 17.9651 69.9456 19.6043C71.4664 21.6236 73.414 23.1626 74.6709 25.0253C75.302 25.9422 75.75 26.9514 75.95 27.9659C76.1539 28.9777 76.0843 30.001 75.7258 30.8734C76.2172 30.0683 76.4384 29.0026 76.332 27.91Z" fill="#562D3C"/>
<path d="M43.2549 4.88742C46.0362 2.90248 50.1259 2.99874 52.8106 5.1126C53.947 3.14887 56.6813 2.04077 58.9459 2.1771C61.2106 2.31342 63.3301 3.01052 64.6197 5.71007C65.3827 7.30759 66.2111 10.1223 66.9153 11.8978C66.8995 11.5478 66.8823 11.1987 66.8604 10.851C66.6767 7.90169 66.0522 4.73999 63.8798 2.7372C61.2718 0.332855 56.2682 0.367526 53.8703 2.98191C51.3552 1.36252 48.108 0.98317 45.2492 1.86372C42.3901 2.74427 39.9508 4.83895 38.5381 7.47555C37.0634 10.2276 36.6989 13.4189 36.3609 16.5231C36.2983 17.098 36.2357 17.6729 36.1731 18.2478C36.777 16.5958 37.7289 14.5674 38.3327 12.9157C39.428 9.91929 40.6583 6.74008 43.2549 4.88742Z" fill="#B3757E"/>
<path d="M50.9547 8.19476C49.7106 8.48693 48.2993 8.97703 46.8825 9.69668C45.4651 10.413 44.0456 11.3571 42.7659 12.4656C41.4881 13.5764 40.3538 14.8487 39.4446 16.151C38.5321 17.452 37.8481 18.7802 37.3839 19.9708C38.0292 18.8664 38.832 17.6368 39.8058 16.421C40.7765 15.2038 41.9153 14.0022 43.16 12.9193C44.4071 11.8395 45.7576 10.8815 47.0993 10.0922C48.44 9.29983 49.7706 8.67812 50.9547 8.19476Z" fill="#B3757E"/>
<path d="M49.8908 7.81976C48.9813 7.87295 47.9308 8.03384 46.8415 8.34015C45.7523 8.64444 44.6267 9.09313 43.5654 9.66434C42.5051 10.2372 41.5118 10.9313 40.6591 11.6742C39.8049 12.4157 39.0929 13.2051 38.549 13.9358C39.8425 12.6527 41.6871 11.1525 43.7683 10.041C45.8411 8.91305 48.1081 8.19575 49.8908 7.81976Z" fill="#B3757E"/>
<path d="M50.2368 6.72161C49.3788 6.20122 48.0324 5.85284 46.6927 5.97065C45.3517 6.07062 44.079 6.63241 43.3166 7.28441C44.2473 6.90708 45.4698 6.54388 46.7314 6.44694C47.992 6.33889 49.2572 6.49979 50.2368 6.72161Z" fill="#B3757E"/>
<path d="M63.9056 21.1846C62.9537 20.537 61.8887 19.754 60.8267 18.8361C59.7634 17.9202 58.7038 16.871 57.7337 15.7431C56.7659 14.6134 55.8894 13.407 55.1452 12.2172C54.3989 11.0283 53.7863 9.8569 53.2902 8.81781C53.6177 9.92052 54.1142 11.1663 54.7948 12.4215C55.4731 13.6773 56.3341 14.9406 57.3233 16.0952C58.315 17.2484 59.4332 18.2905 60.5716 19.1512C61.7093 20.0142 62.8652 20.6938 63.9056 21.1846Z" fill="#B3757E"/>
<path d="M65.0619 17.1005C63.3116 16.1399 61.125 14.7319 59.1889 13.0139C57.2409 11.3093 55.569 9.31729 54.3957 7.7016C55.3004 9.4802 56.8912 11.6281 58.8785 13.3656C60.8527 15.119 63.1837 16.427 65.0619 17.1005Z" fill="#B3757E"/>
<path d="M63.3041 11.0262C62.6269 9.95482 61.4228 8.74272 59.9859 7.8763C58.556 6.99811 56.9262 6.4858 55.6632 6.3764C56.8289 6.87794 58.2978 7.54946 59.6722 8.39164C61.0519 9.2254 62.3232 10.2214 63.3041 11.0262Z" fill="#B3757E"/>
<path d="M42.3209 42.2789C41.6221 42.0787 40.9254 41.7222 40.2986 41.218C39.6732 40.7124 39.1151 40.0688 38.6671 39.3306C37.7647 37.8472 37.3412 36.0077 37.1332 34.1537C36.9178 32.2916 36.8744 30.41 36.9706 28.6425C37.0635 26.874 37.2948 25.2213 37.557 23.7924C37.075 25.1621 36.6697 26.8074 36.4607 28.5988C36.2479 30.3891 36.2338 32.3223 36.4553 34.2321C36.6677 36.1343 37.1719 38.0856 38.2386 39.6104C38.7664 40.3677 39.4164 41.0005 40.1239 41.46C40.8328 41.9191 41.6003 42.1911 42.3209 42.2789Z" fill="#B3757E"/>
<path d="M49.2598 41.4953C47.9653 41.4523 46.53 40.9598 45.2795 40.0439C44.0196 39.1388 42.9832 37.818 42.1882 36.3679C41.3938 34.9131 40.7865 33.3432 40.3136 31.8423C39.843 30.3373 39.5304 28.8842 39.3146 27.6088C39.3301 30.1909 40.0137 33.6236 41.656 36.6617C42.481 38.1701 43.6295 39.5501 45.024 40.4219C46.4021 41.3055 47.9743 41.6589 49.2598 41.4953Z" fill="#B3757E"/>
<path d="M68.8249 33.3648C69.7872 32.9619 70.7055 31.9898 71.1198 30.7248C71.3312 30.0981 71.4261 29.3986 71.3696 28.7039C71.3228 28.0071 71.1367 27.3154 70.8613 26.6684C70.3049 25.3705 69.3641 24.2809 68.3536 23.4694C67.3405 22.6504 66.2714 22.0728 65.3293 21.6342C66.1923 22.2149 67.1846 22.8921 68.114 23.7471C69.043 24.597 69.8916 25.6489 70.4123 26.8616C70.9371 28.0657 71.1017 29.4232 70.7688 30.6185C70.4557 31.8178 69.7098 32.8131 68.8249 33.3648Z" fill="#B3757E"/>
<path d="M65.6646 34.7414C66.0248 34.2358 66.359 33.5832 66.5734 32.8372C66.7905 32.093 66.8882 31.2603 66.8407 30.4342C66.7909 29.6082 66.5963 28.7926 66.2937 28.079C65.9931 27.3634 65.5852 26.7542 65.1681 26.2944C65.5084 26.8144 65.8423 27.4459 66.0894 28.1578C66.3385 28.8684 66.5011 29.6557 66.5492 30.4514C66.5947 31.2475 66.5253 32.0486 66.3614 32.7831C66.1991 33.5189 65.9416 34.185 65.6646 34.7414Z" fill="#B3757E"/>
<path d="M28.6715 54.0401C28.4568 50.2032 26.8498 46.4588 24.2163 43.6599C23.9086 43.3331 23.3879 43.0086 23.0617 43.3166C22.8207 43.5441 22.9062 43.9393 23.0095 44.2544C23.5929 46.0289 24.1759 47.8035 24.7592 49.5777C23.9823 47.4699 22.8995 45.4749 21.5554 43.6748C21.3474 43.3964 21.1185 43.1109 20.7971 42.9787C20.4756 42.8464 20.0384 42.9312 19.8926 43.2466C19.7741 43.5031 19.8815 43.802 19.9889 44.0632C20.7166 45.8351 21.4443 47.6066 22.1717 49.3785C21.3218 48.305 20.4722 47.2316 19.6223 46.1582C19.456 45.9482 19.2834 45.7324 19.0491 45.6025C18.8148 45.4722 18.5008 45.4476 18.2914 45.6153C17.9235 45.9101 18.117 46.4958 18.3395 46.9115C19.2228 48.5615 20.1057 50.2116 20.9889 51.8616C20.1673 50.8629 19.3456 49.8642 18.5243 48.8652C18.1726 48.4377 17.6051 47.9674 17.1375 48.2643C16.8363 48.4555 16.7804 48.8928 16.911 49.2246C17.0416 49.5565 17.3112 49.8103 17.5637 50.0624C19.1416 51.6374 20.349 53.5813 21.062 55.6938C21.5453 57.1264 21.8126 58.6522 22.5743 59.9585C23.336 61.2646 24.7902 62.336 26.2749 62.0505C27.1127 59.3756 28.828 56.8389 28.6715 54.0401Z" fill="#F4C1B1"/>
<path d="M35.6157 67.4008C33.8 64.2785 31.9844 61.1561 30.1688 58.0335C30.8114 56.3114 29.8032 54.2925 28.4915 53.005C27.1801 51.7175 25.4244 51.0005 23.6993 50.3667C23.4196 50.264 23.1321 50.1614 22.8339 50.1637C22.536 50.1661 22.2209 50.2953 22.0779 50.5569C21.816 51.0349 22.2334 51.5899 22.6205 51.9736C23.5569 52.902 24.4933 53.8303 25.4298 54.759C24.251 55.683 23.4886 57.0759 23.5815 58.571C23.6747 60.0659 24.5415 61.4917 25.8259 62.2622L28.8055 70.2592L35.6157 67.4008Z" fill="#FFE0CB"/>
<path d="M87.0219 68.4859L98.6263 64.1343L90.9635 45.6458C88.7615 40.3332 83.4408 37.1668 77.9047 37.539C77.6765 40.2776 76.7326 42.9593 75.1577 45.2129C72.8671 48.4907 69.2685 50.8261 65.342 51.5828C62.0114 52.2247 58.405 51.7117 55.5695 49.8503C53.1325 48.2504 51.3522 45.6071 50.9344 42.7426C47.1746 43.2286 44.0375 46.0931 43.3356 49.9714L40.3799 66.3101L49.6745 69.56L51.474 76.7418C52.6488 81.431 52.3011 86.3726 50.4807 90.8508L44.3067 106.039H92.1796L85.7872 90.7552C83.771 85.934 83.4741 80.5659 84.9467 75.5519L87.0219 68.4859Z" fill="white"/>
<path d="M48.743 51.6667L47.6962 68.6776L44.794 66.9548L48.743 51.6667Z" fill="#A34262"/>
<path d="M69.1325 73.8125C72.6082 73.551 75.6147 72.2833 78.2258 69.9746C74.0886 71.1975 69.5862 70.9864 65.5311 69.5215C64.0932 69.0021 62.5095 69.0267 61.1254 69.6757C58.8297 70.7521 56.2645 71.256 53.7326 71.1042C55.0419 72.1241 56.6866 72.8835 58.3312 72.6617C56.5671 74.5985 54.1402 76.1462 51.543 77.0405C52.6295 81.6402 52.2623 86.4664 50.4807 90.8496L44.3067 106.038H92.1796L85.7872 90.754C85.3917 89.8085 85.0648 88.8418 84.8023 87.8613C83.2038 87.422 81.6466 86.8424 80.1585 86.0985C75.1398 83.5901 70.6021 79.2271 69.1325 73.8125Z" fill="#322A2D"/>
<path d="M78.8353 58.9798C78.7475 57.6152 78.7202 56.0725 78.8626 54.4538C79.0013 52.8361 79.3059 51.1457 79.7849 49.5034C80.2693 47.8628 80.9263 46.2757 81.684 44.8395C82.439 43.4008 83.2957 42.1174 84.1069 41.0167C82.9941 41.8057 81.8378 42.9302 80.8536 44.3292C79.8663 45.7237 79.0541 47.3852 78.5381 49.1372C78.0255 50.8902 77.8111 52.7271 77.8881 54.434C77.9602 56.1436 78.3254 57.7145 78.8353 58.9798Z" fill="#322A2D"/>
<path d="M96.9536 62.2684C93.5909 62.7251 88.3914 64.3001 85.3408 65.7862C88.7031 65.3294 93.9026 63.7545 96.9536 62.2684Z" fill="#322A2D"/>
<path d="M94.1072 59.2868C92.0139 60.1515 88.9242 62.0496 87.2068 63.5263C89.3005 62.6616 92.3898 60.7635 94.1072 59.2868Z" fill="#322A2D"/>
<path d="M62.9266 53.6172C61.7663 53.4226 60.4737 53.1267 59.1617 52.6552C57.8496 52.1869 56.5203 51.5477 55.282 50.7608C54.0463 49.9694 52.9062 49.034 51.9284 48.0414C50.9476 47.0504 50.1343 46.0032 49.4685 45.0331C49.7954 46.1601 50.4002 47.4153 51.2939 48.589C52.1825 49.7648 53.3529 50.8537 54.6808 51.7029C56.0104 52.5488 57.4914 53.151 58.9321 53.461C60.3734 53.7767 61.767 53.7959 62.9266 53.6172Z" fill="#322A2D"/>
<path d="M47.6978 68.7574C47.6961 68.7574 47.6948 68.7574 47.6928 68.7574C47.6484 68.7547 47.6147 68.716 47.6174 68.6719L48.6642 51.6614C48.6669 51.6173 48.6999 51.5856 48.7497 51.5856C48.7941 51.5883 48.8278 51.6267 48.8251 51.6711L47.7783 68.6817C47.7756 68.7244 47.7399 68.7574 47.6978 68.7574Z" fill="#6A4A7D"/>
<path d="M97.7291 72.3949L97.6944 71.6309C97.5911 69.3585 97.1633 67.1123 96.4234 64.9614L87.0225 68.4867L97.7291 72.3949Z" fill="#F4C1B1"/>
<path d="M55.5706 49.8491C58.4061 51.7106 62.0125 52.2235 65.3431 51.5816C69.2696 50.825 72.8685 48.4896 75.1588 45.2118C76.7337 42.9582 77.6776 40.2765 77.9058 37.5379C76.9879 37.5995 76.0639 37.7554 75.1473 38.0183L67.763 40.1365L61.6385 31.4148L53.2837 37.7005L55.9492 43.0054L52.9518 42.7098C52.2671 42.6422 51.5923 42.6563 50.9355 42.7411C51.3533 45.6059 53.1336 48.2496 55.5706 49.8491Z" fill="#FFE0CB"/>
<path d="M61.638 31.4146L53.2832 37.7003L54.5071 40.1362C57.8506 41.4073 62.5246 38.224 61.638 31.4146Z" fill="#EEA297"/>
<path d="M63.0897 28.7049C63.6888 29.4303 64.8518 29.4582 65.6721 28.9971C66.492 28.5359 67.0343 27.7089 67.4816 26.8812C67.9011 26.105 68.2737 25.2709 68.2939 24.389C68.3141 23.5071 67.9071 22.5656 67.1137 22.1795C66.2662 21.7669 65.2072 22.0947 64.5041 22.7228C63.8009 23.3509 63.2593 24.1968 62.851 25.0467C62.2818 24.5075 62.1159 23.7101 62.0869 22.9261C57.5586 19.8519 53.7453 15.2169 52.0084 10.0269C46.2141 12.0273 41.3435 16.5569 38.9287 22.1913C39.5787 25.3426 40.5609 28.6086 41.9524 31.5098C43.3442 34.411 45.5625 37.0425 48.536 38.2718C51.4833 39.49 55.02 39.1662 57.6966 37.4327C60.3736 35.6982 62.9961 31.8929 63.0897 28.7049Z" fill="#FFE0CB"/>
<path d="M66.2793 23.3208C64.9302 23.8085 63.9096 25.1031 63.7497 26.5286C63.7235 26.7632 63.7194 27.0056 63.7931 27.2298C63.8669 27.4539 64.0288 27.6589 64.2516 27.7363C64.6447 27.8727 65.055 27.5842 65.3304 27.2725C65.6673 26.8915 65.9407 26.4159 65.9279 25.9076C65.9151 25.399 65.5327 24.8793 65.0248 24.8554C65.3301 24.2858 65.74 23.6756 66.2793 23.3208Z" fill="#F4C1B1"/>
<path d="M51.6731 10.7327C53.822 20.8328 62.0879 22.9255 62.0879 22.9255C57.5596 19.851 53.7462 15.2163 52.0094 10.0259C46.2151 12.0263 41.3445 16.556 38.9297 22.1903C39.1438 23.2288 39.3979 24.2793 39.687 25.3255C43.6367 16.6085 51.6731 10.7327 51.6731 10.7327Z" fill="#F4C1B1"/>
<path d="M49.6759 19.0067C52.0809 19.2814 54.486 19.5564 56.891 19.8314C56.1993 18.6213 55.0595 17.7727 53.6785 17.5846C52.2974 17.3961 50.6665 18.0262 49.6759 19.0067Z" fill="#562D3C"/>
<path d="M39.6572 22.2269C41.2069 21.5268 42.7567 20.8263 44.3067 20.1262C43.4477 19.6523 42.3938 19.6068 41.4705 19.939C40.5475 20.2713 40.0171 21.3144 39.6572 22.2269Z" fill="#562D3C"/>
<path d="M56.7007 29.4116C53.7759 30.8358 50.7684 32.0903 47.6982 33.1661C48.8289 34.0217 50.1521 34.7528 51.5695 34.775C52.9873 34.7973 54.4252 34.2823 55.4371 33.2893C56.4496 32.2966 56.9208 30.8122 56.7007 29.4116Z" fill="white"/>
<path d="M67.0312 53.4393L73.6694 62.4255C74.2574 63.2216 75.2134 63.6592 76.2003 63.5841L78.8584 63.3822L79.9329 60.1585L72.3142 50.0288L67.0312 53.4393Z" fill="#C86CFF"/>
<path d="M64.2754 55.0895L64.3293 56.1531C64.3821 57.1956 65.1772 58.0485 66.2132 58.1741L67.5209 58.3326L70.3773 61.6387C71.059 62.4277 72.0856 62.83 73.1216 62.7142L77.2396 62.2544L85.2939 76.734C87.3724 80.4706 92.3904 81.2953 95.5555 78.4204C98.4644 75.778 98.4526 71.2006 95.5302 68.5731L82.6333 56.9785L80.7349 51.9018C79.9981 49.9317 78.4009 48.4069 76.3988 47.7623L74.8541 47.2651L72.3155 49.3066C72.6379 52.812 68.2705 53.5835 67.0291 53.4398L64.2754 55.0895Z" fill="#FFE0CB"/>
<path d="M74.7 52.8887C76.1578 51.747 77.3693 50.1592 77.7749 48.3806C77.344 48.1272 76.8832 47.9185 76.3982 47.7623L74.8535 47.2651L72.3148 49.3066C72.6373 52.812 68.2699 53.5835 67.0285 53.4398L64.2744 55.0891L64.3283 56.1528C64.363 56.8354 64.7191 57.4319 65.2496 57.8011C66.3361 57.1235 67.5122 56.5688 68.6869 56.0542C70.7678 55.1423 72.9116 54.2893 74.7 52.8887Z" fill="#F4C1B1"/>
<path d="M91.1071 80.2263C90.7412 80.2263 90.373 80.1966 90.0044 80.136C87.969 79.8018 86.2267 78.5759 85.2236 76.7731L77.1953 62.3402L73.1302 62.794C72.0655 62.9121 71.015 62.5005 70.3162 61.6913L67.4803 58.4087L66.2036 58.2539C65.1258 58.1233 64.3035 57.2414 64.2486 56.1572L64.1924 55.0451L67.0118 53.3567L67.039 53.3597C67.8782 53.4576 70.0668 53.1227 71.3115 51.9073C72.0191 51.2162 72.3301 50.3437 72.2355 49.3141L72.2315 49.271L72.2655 49.2441L74.8374 47.1753L76.4232 47.6859C78.4616 48.342 80.0605 49.8684 80.8104 51.8736C80.8259 51.9153 80.8047 51.9618 80.7633 51.9776C80.7212 51.9927 80.6751 51.9722 80.6593 51.9305C79.9269 49.9715 78.3647 48.4803 76.374 47.8394L74.8707 47.3557L72.3998 49.343C72.4863 50.4047 72.1584 51.3061 71.4243 52.0227C70.1381 53.2782 67.962 53.6189 67.0478 53.5229L64.358 55.1336L64.4098 56.1488C64.4607 57.1545 65.2231 57.9728 66.2231 58.094L67.5618 58.2566L70.4387 61.5866C71.1028 62.3557 72.1012 62.7448 73.113 62.6344L77.2845 62.1689L77.3108 62.2157L85.365 76.6953C86.3438 78.4547 88.044 79.651 90.031 79.9772C92.0176 80.3044 94.0116 79.7143 95.5021 78.3611L95.6105 78.4803C94.3593 79.616 92.7622 80.2263 91.1071 80.2263Z" fill="#6A4A7D"/>
<path d="M70.2829 58.7482C70.2799 58.7482 70.2765 58.7478 70.2732 58.7475L66.8102 58.3271C66.7661 58.3217 66.7345 58.2816 66.7399 58.2372C66.7452 58.1931 66.7819 58.1628 66.8297 58.1669L70.2927 58.5873C70.3368 58.5927 70.3681 58.6327 70.363 58.6772C70.358 58.7182 70.3233 58.7482 70.2829 58.7482Z" fill="#6A4A7D"/>
<path d="M51.3125 54.3853C56.7776 42.9135 66.3593 30.6427 74.3455 38.0247C84.2844 47.2116 66.124 52.4825 57.6901 59.571L51.3125 54.3853Z" fill="#C86CFF"/>
<path d="M52.0314 54.33C51.681 54.2351 51.4262 54.2458 51.3121 54.3862C50.9563 54.8234 52.0957 56.3392 53.8568 57.7711C55.6179 59.203 57.3339 60.0091 57.6897 59.5719C57.8038 59.4315 57.7624 59.1797 57.5982 58.8563C56.8556 58.655 55.6812 57.972 54.4846 56.9992C53.288 56.0265 52.3801 55.016 52.0314 54.33Z" fill="#7D01C8"/>
<path d="M55.1438 56.1866C53.9472 55.2138 52.7728 54.5309 52.0303 54.3296C52.379 55.0152 53.2868 56.0257 54.4834 56.9988C55.6801 57.9716 56.8545 58.6546 57.597 58.8559C57.2486 58.1702 56.3405 57.1597 55.1438 56.1866Z" fill="#6A4A7D"/>
<path d="M71.6567 39.5845C71.5386 39.5845 71.4218 39.5919 71.3066 39.6053C72.9981 39.8056 74.3169 41.4395 74.3169 43.4258C74.3169 45.4121 72.9981 47.0459 71.3066 47.2462C71.4218 47.2597 71.5386 47.2671 71.6567 47.2671C73.5127 47.2671 75.0173 45.5474 75.0173 43.4258C75.0173 41.3042 73.5127 39.5845 71.6567 39.5845Z" fill="#6A4A7D"/>
<path d="M74.3164 43.4244C74.3164 41.4382 72.9976 39.8043 71.3061 39.604C69.6147 39.8043 68.2959 41.4382 68.2959 43.4244C68.2959 45.4107 69.6147 47.0446 71.3061 47.2449C72.9976 47.0446 74.3164 45.4107 74.3164 43.4244Z" fill="#634269"/>
<path d="M66.7795 38.9958C66.6206 38.915 66.4581 38.8477 66.2911 38.7935C65.6957 38.5996 65.0443 38.7369 64.5354 39.1018C60.8641 41.7324 57.7764 45.1738 55.5579 49.1076C55.2903 49.5823 55.5104 50.1871 56.0231 50.3716C56.0315 50.3746 56.0402 50.3776 56.0486 50.3807C56.9847 50.7169 58.0296 50.4133 58.6294 49.62C61.1909 46.2297 63.9995 42.726 66.9078 39.6959C67.1158 39.4795 67.0471 39.1321 66.7795 38.9958Z" fill="#37104A"/>
<path d="M56.0065 51.8305C55.8018 51.7776 55.5945 51.7308 55.3868 51.6901C54.8647 51.5881 54.3363 51.8382 54.0603 52.2926L53.6247 53.0096C53.4325 53.326 53.5692 53.738 53.9122 53.8773C54.064 53.9389 54.2181 54.0032 54.3716 54.0669C54.9576 54.3099 55.644 54.0891 55.9553 53.536C56.1135 53.2553 56.2563 52.9615 56.3946 52.6706C56.5565 52.3313 56.371 51.9244 56.0065 51.8305Z" fill="#37104A"/>
<path d="M71.0009 40.1988C70.1298 40.8316 69.2889 41.4991 68.4737 42.1965C68.3794 42.5156 68.3212 42.8529 68.3037 43.2033C69.2704 42.3402 70.2742 41.5199 71.3264 40.7552C71.6586 40.5138 71.3375 39.9541 71.0009 40.1988Z" fill="#6A4A7D"/>
<path d="M72.1557 40.8608C70.816 41.8342 69.544 42.8851 68.3369 44.012C68.3709 44.2648 68.4258 44.5092 68.5008 44.7431C69.753 43.5485 71.0772 42.4371 72.4811 41.4172C72.8134 41.1758 72.4919 40.6164 72.1557 40.8608Z" fill="#6A4A7D"/>
<path d="M72.7838 41.9682C71.3607 43.0022 70.0133 44.1231 68.7402 45.3308C68.8405 45.5308 68.956 45.7189 69.0849 45.8943C70.3502 44.6835 71.6889 43.5569 73.1093 42.5249C73.4416 42.2836 73.1201 41.7238 72.7838 41.9682Z" fill="#6A4A7D"/>
<path d="M73.3303 43.0678C71.9597 44.0635 70.658 45.1392 69.4268 46.2958C69.5809 46.452 69.7472 46.5917 69.9246 46.7139C71.1034 45.6091 72.3448 44.5768 73.6558 43.6245C73.9884 43.3829 73.6669 42.8234 73.3303 43.0678Z" fill="#6A4A7D"/>
<path d="M73.0994 44.812C72.1593 45.495 71.2518 46.2164 70.377 46.9747C70.6055 47.0824 70.8475 47.1595 71.0983 47.2076C71.8503 46.5678 72.6231 45.9515 73.4249 45.3688C73.7571 45.1271 73.4357 44.5673 73.0994 44.812Z" fill="#6A4A7D"/>
<path d="M65.4953 71.481C67.1463 77.2752 71.777 82.1331 77.4857 84.0594C83.1945 85.9858 89.8219 84.9265 94.6457 81.3168C93.5619 85.0581 91.178 88.2737 87.91 90.3933C88.5919 90.2772 89.254 90.2162 89.936 90.1001C88.4304 92.0033 86.3404 93.4274 84.002 94.0754C81.6633 94.7233 79.1199 94.6075 76.8499 93.7506C77.1047 94.3127 77.6194 94.959 78.2148 95.1222C76.2447 94.7839 74.4173 94.0532 72.8706 92.7865C71.3239 91.5199 70.0357 89.9668 68.8593 88.3508C66.4139 84.9918 64.3465 81.0728 64.5144 76.9215C64.5875 75.1099 65.6939 73.2828 65.4953 71.481Z" fill="#949AA3"/>
<path d="M68.6274 77.6465C67.2147 75.8056 66.1322 73.7143 65.4956 71.481C65.6939 73.2831 64.5878 75.1099 64.5145 76.9211C64.3882 80.0401 65.5239 83.0274 67.1332 85.7448C68.135 83.1715 68.6446 80.408 68.6274 77.6465Z" fill="#3A3F50"/>
<path d="M31.0954 95.831C40.1749 96.1535 52.4777 91.2644 53.982 90.1361L57.7425 94.0578C57.8499 97.3888 56.6681 101.418 55.6472 102.976C52.6925 101.74 51.1882 104.611 51.6715 106.039H58.6557C61.8208 102.665 63.5445 98.5259 64.3668 96.0263C64.8037 94.698 64.9256 93.2887 64.7334 91.9039L64.3126 88.8698C64.1238 87.5079 64.2443 86.1197 64.661 84.8093C72.073 61.5158 57.1174 57.3551 47.8568 61.0176C38.3475 64.7785 31.3364 66.2289 28.4356 64.2948C16.8578 78.4243 24.9167 95.4012 24.9167 95.4012L31.0954 95.831Z" fill="#949AA3"/>
<path d="M52.6647 69.5591C52.6647 69.5591 47.8577 76.7048 49.4205 87.7272C45.0087 89.9703 40.1535 91.5005 35.2398 92.0926C35.5242 89.0056 35.1829 85.8624 34.2428 82.9087C33.3545 87.7622 30.6041 92.3518 26.7793 95.5306L31.0955 95.8309C40.1751 96.1533 52.4779 91.2642 53.9821 90.1359C51.2456 87.2819 49.1236 82.4233 52.6647 69.5591Z" fill="#3A3F50"/>
<path d="M40.3804 94.9048C40.3434 94.9048 40.3101 94.8789 40.3017 94.8412C40.2922 94.7978 40.3198 94.7551 40.3632 94.7456C46.9065 93.3295 52.7115 90.8966 53.859 90.1234C51.7481 87.8914 49.5976 84.0875 51.4011 74.5747C51.4095 74.5313 51.4526 74.503 51.4954 74.5105C51.5391 74.5189 51.5677 74.5613 51.5596 74.605C49.7514 84.1423 51.9353 87.885 54.0401 90.08L54.103 90.1453L54.0303 90.2002C53.0767 90.9151 47.1192 93.448 40.3972 94.9032C40.3919 94.9042 40.3861 94.9048 40.3804 94.9048Z" fill="#6A4A7D"/>
<path d="M20.864 53.0642C20.4328 50.9938 19.6973 48.9782 18.6791 47.1245C17.5724 48.6857 16.7649 50.4579 16.3135 52.3176C17.7568 52.529 19.4207 52.8525 20.864 53.0642Z" fill="#797C99"/>
<path d="M19.5537 52.8552C20.002 52.9306 20.4433 53.0023 20.8647 53.0642C20.4336 50.9938 19.6981 48.9782 18.6799 47.1245C18.4994 47.4214 18.3456 47.795 18.2137 48.2114C18.9138 49.6712 19.3682 51.2469 19.5537 52.8552Z" fill="#F6DCC5"/>
<path d="M18.2124 48.2124C17.7849 49.5625 17.5921 51.3674 17.5086 52.5081C18.1828 52.6205 18.8759 52.7427 19.5524 52.8565C19.367 51.2479 18.9126 49.6722 18.2124 48.2124Z" fill="#EBA7AC"/>
<path d="M24.8094 81.1373C25.696 74.6099 30.128 67.8405 29.75 64.6226C29.6144 62.7342 28.8711 60.9254 27.8374 59.3393C26.8037 57.7532 25.4856 56.3725 24.1109 55.0712C23.1422 54.1539 22.1263 53.2609 20.9358 52.6591C18.9434 51.6523 16.5939 51.5409 14.3946 51.9236C12.1952 52.3063 10.1073 53.1515 8.03884 53.9913L6.32823 47.9625C3.80304 51.8307 3.64214 58.8149 3.64214 58.8149C-3.66448 79.1763 0.09638 90.6732 24.9171 95.4011C28.3551 86.2681 24.8094 81.1373 24.8094 81.1373Z" fill="#949AA3"/>
<path d="M8.03966 54.0718C8.00768 54.0718 7.97772 54.053 7.96492 54.0214C7.94809 53.98 7.96796 53.9332 8.00936 53.9167C10.0525 53.0873 12.1657 52.2296 14.3812 51.8445C16.1184 51.5419 18.6729 51.4248 20.9722 52.5874C21.0123 52.6073 21.0278 52.6558 21.0079 52.6955C20.9877 52.7359 20.9396 52.7517 20.8999 52.7312C18.6396 51.5897 16.1221 51.7052 14.4088 52.0034C12.2102 52.3858 10.1054 53.2401 8.06961 54.0661C8.06018 54.0698 8.04975 54.0718 8.03966 54.0718Z" fill="#6A4A7D"/>
<path d="M28.5615 69.6852C28.5518 69.6852 28.542 69.6835 28.5326 69.6798C28.4909 69.6637 28.4703 69.6172 28.4861 69.5755C29.1883 67.7534 29.8177 65.8934 29.669 64.6318C29.5438 62.8902 28.9046 61.1254 27.7692 59.3828C27.1896 58.4935 26.477 57.6029 25.59 56.6597C25.5597 56.6274 25.5614 56.5762 25.5937 56.5456C25.6257 56.5153 25.6765 56.517 25.7078 56.5493C26.6008 57.4995 27.3192 58.3972 27.9038 59.2943C29.0547 61.0601 29.7023 62.8505 29.8292 64.6163C29.9817 65.9092 29.3458 67.7918 28.6363 69.633C28.6245 69.6657 28.5939 69.6852 28.5615 69.6852Z" fill="#6A4A7D"/>
<path d="M24.9168 95.4823C24.9118 95.4823 24.9067 95.482 24.9017 95.4807C17.6613 94.1016 12.2239 92.1618 8.27823 89.5504C8.2412 89.5258 8.23077 89.476 8.25568 89.439C8.28025 89.4013 8.33074 89.3919 8.36709 89.4164C12.2949 92.0157 17.7132 93.9474 24.932 95.3228C24.9757 95.3309 25.0043 95.3733 24.9959 95.417C24.9885 95.4554 24.9548 95.4823 24.9168 95.4823Z" fill="#6A4A7D"/>
<path d="M6.32796 47.9623C6.32796 47.9623 6.03882 48.8964 5.75002 50.3717C6.33099 51.6899 6.67029 53.114 6.92611 54.555C7.24218 54.3669 7.61042 54.1757 8.03892 53.9909L6.32796 47.9623Z" fill="#CEC0B4"/>
<path d="M5.17317 56.1281C5.17317 56.1281 5.56296 55.367 6.9262 54.5548C6.67038 53.1135 6.33109 51.6897 5.75012 50.3715C5.45727 51.8684 5.16442 53.923 5.17317 56.1281Z" fill="#EBA7AC"/>
<path d="M9.55391 102.277C7.10951 101.807 5.65875 104.104 6.14245 106.038H12.5089C16.2994 101.21 18.4096 97.4697 19.7122 94.2279C16.4923 93.3759 13.7184 92.3722 11.3578 91.2096C11.6038 94.3097 11.5476 97.8527 9.55391 102.277Z" fill="#3A3F50"/>
<path d="M12.0903 104.105C11.9857 103.407 11.7164 102.72 11.2286 102.211C10.8708 101.837 10.4262 101.548 9.94182 101.367C9.82131 101.666 9.6924 101.969 9.55372 102.277C10.6497 102.591 11.5343 103.178 12.0903 104.105Z" fill="#6A4A7D"/>
<path d="M45.5851 94.0584C45.6925 97.3894 44.5107 101.419 43.4898 102.977C40.5347 101.741 39.0308 104.612 39.5142 106.039H46.4983C49.6634 102.665 51.3871 98.5265 52.2095 96.0269C52.6464 94.6986 52.7682 93.2893 52.5764 91.9045L52.4441 90.9499C50.8355 91.6817 48.2096 92.6871 45.1432 93.5979L45.5851 94.0584Z" fill="#3A3F50"/>
<path d="M16.2421 56.6151C16.5602 57.3341 16.4676 58.072 16.0354 58.2635C15.6032 58.4547 14.9946 58.0269 14.6765 57.3079C14.3585 56.5889 14.451 55.8507 14.8832 55.6595C15.3154 55.4683 15.924 55.8962 16.2421 56.6151Z" fill="black"/>
<path d="M23.0528 55.968C23.3258 56.5847 23.2656 57.2091 22.9185 57.3626C22.5715 57.5161 22.0689 57.1408 21.796 56.5241C21.523 55.9074 21.5832 55.2831 21.9303 55.1296C22.2776 54.9761 22.7798 55.3514 23.0528 55.968Z" fill="black"/>
<path d="M23.0543 58.3357C21.7654 58.3314 20.4769 58.6959 19.3813 59.3745C19.1975 59.4883 19.1621 59.7468 19.324 59.8902C19.9767 60.4688 20.9778 60.8754 21.8816 61.0242C22.2993 61.0928 22.7234 60.8835 22.9015 60.4994C23.1579 59.946 23.3165 59.2769 23.3687 58.6905C23.3855 58.5037 23.2421 58.3364 23.0543 58.3357Z" fill="black"/>
<path d="M16.0735 60.694C16.4461 61.7425 15.4094 63.068 13.758 63.6547C12.1066 64.2414 10.466 63.8671 10.0934 62.8186C9.72079 61.7701 10.7575 60.4446 12.4089 59.8579C14.0603 59.2712 15.7009 59.6455 16.0735 60.694Z" fill="#FFC3C7"/>
<path d="M27.0168 58.6576C27.0821 59.3029 26.523 59.8879 25.768 59.9643C25.013 60.0407 24.3478 59.5799 24.2825 58.9347C24.2172 58.2894 24.7763 57.7044 25.5313 57.628C26.2863 57.5512 26.9515 58.0124 27.0168 58.6576Z" fill="#FFC3C7"/>
<path d="M20.4397 82.3072C20.056 81.7885 19.2283 82.0965 19.2794 82.7394C19.4104 84.3864 19.6574 85.996 20.0408 87.5949C20.2569 88.497 19.1764 89.155 18.4743 88.5485C15.1948 85.7146 12.5016 82.1766 10.4709 78.3309C10.1642 77.7506 9.28335 77.9462 9.25743 78.6019C9.18304 80.4953 9.38938 82.4119 9.88183 84.2403C10.1272 85.1518 9.0282 85.8378 8.31764 85.2161C6.08226 83.2601 4.23634 80.8578 2.93772 78.1859C1.63137 75.4981 0.884119 72.5431 0.732985 69.5591C-1.44719 83.3335 4.85367 91.5792 24.9172 95.4007C25.9765 92.587 26.3716 90.1548 26.413 88.1338C24.1322 86.5083 22.0975 84.5486 20.4397 82.3072Z" fill="#3A3F50"/>
<path d="M57.5883 104.547C57.6748 103.336 56.868 102.4 56.2305 101.856C56.0369 102.302 55.8393 102.683 55.6475 102.976C56.5809 103.399 57.3264 104.104 57.5883 104.547Z" fill="#797C99"/>
<path d="M24.8094 81.1376C21.6935 87.0204 26.7435 92.5003 22.3381 102.278C19.8937 101.808 18.4429 104.105 18.9266 106.039H25.2931C32.9488 96.2881 33.7546 90.9694 34.8829 85.2479C36.0112 79.526 27.5494 75.8998 24.8094 81.1376Z" fill="#949AA3"/>
<path d="M24.8755 104.106C24.7708 103.408 24.5015 102.721 24.0138 102.212C23.656 101.838 23.2113 101.549 22.727 101.368C22.6065 101.667 22.4775 101.97 22.3389 102.278C23.4348 102.592 24.3191 103.179 24.8755 104.106Z" fill="#797C99"/>
<path d="M25.3324 106.119H18.8639L18.8487 106.058C18.5835 104.997 18.8915 103.805 19.6334 103.02C20.3143 102.301 21.2548 102.006 22.2905 102.187C22.4167 101.905 22.5379 101.62 22.6513 101.338C24.6161 96.4555 24.2273 92.6731 23.8846 89.336C23.5787 86.3591 23.3141 83.7885 24.7383 81.0997C24.7591 81.06 24.8086 81.0462 24.8473 81.0664C24.8867 81.0872 24.9015 81.136 24.8806 81.1754C23.4794 83.8208 23.7416 86.3688 24.0449 89.3195C24.3899 92.6754 24.7807 96.479 22.8008 101.398C22.6789 101.702 22.548 102.009 22.4113 102.311L22.3851 102.37L22.3228 102.357C21.3187 102.166 20.4058 102.44 19.7501 103.132C19.0591 103.862 18.7642 104.965 18.9901 105.959H25.2536C27.152 103.539 28.6856 101.325 29.9408 99.1914C29.9633 99.1527 30.0125 99.1402 30.0512 99.1628C30.0896 99.1853 30.1024 99.2348 30.0798 99.2732C28.8148 101.422 27.2698 103.651 25.3559 106.089L25.3324 106.119Z" fill="#6A4A7D"/>
<path d="M19.7132 106.119C19.6748 106.119 19.6408 106.092 19.6337 106.053C19.2712 104.044 20.2076 103.082 20.5641 102.904C20.6031 102.885 20.6519 102.9 20.6721 102.94C20.692 102.98 20.6758 103.028 20.6361 103.048C20.3079 103.213 19.4473 104.112 19.7926 106.024C19.8003 106.068 19.7714 106.11 19.7273 106.118C19.7226 106.119 19.7179 106.119 19.7132 106.119Z" fill="#6A4A7D"/>
<path d="M21.3445 106.119C21.3068 106.119 21.2731 106.093 21.2654 106.054C21.0035 104.745 21.3983 103.805 21.7622 103.555C21.7986 103.53 21.8491 103.539 21.8743 103.575C21.8995 103.612 21.8905 103.662 21.8534 103.687C21.5357 103.906 21.1789 104.8 21.4236 106.023C21.4323 106.066 21.4041 106.109 21.3603 106.117C21.3546 106.118 21.3492 106.119 21.3445 106.119Z" fill="#6A4A7D"/>
<path d="M58.6916 106.118H51.6146L51.5964 106.064C51.3096 105.217 51.6816 104.03 52.4615 103.303C52.9388 102.858 53.9785 102.217 55.6171 102.875C56.6734 101.211 57.7653 97.2217 57.6633 94.0596C57.662 94.0152 57.6966 93.9782 57.7414 93.9765C57.7895 93.9755 57.8229 94.0098 57.8245 94.0546C57.9286 97.2823 56.7966 101.37 55.7161 103.02L55.6797 103.076L55.6178 103.05C54.4394 102.556 53.3572 102.688 52.5722 103.421C51.7846 104.155 51.5318 105.27 51.7324 105.957H58.6226C61.675 102.693 63.3903 98.7424 64.2924 96.0001C64.7205 94.6988 64.8461 93.2858 64.6556 91.9138L64.2348 88.8797C64.046 87.5168 64.1675 86.1003 64.5865 84.7839C64.6 84.7415 64.6448 84.7186 64.6879 84.7317C64.7299 84.7452 64.7535 84.7906 64.74 84.833C64.3284 86.1266 64.2085 87.5181 64.3947 88.8578L64.8154 91.8919C65.009 93.2881 64.8807 94.7261 64.4452 96.0506C63.5357 98.8155 61.8035 102.802 58.7162 106.093L58.6916 106.118Z" fill="#6A4A7D"/>
<path d="M52.5723 106.118C52.5339 106.118 52.5003 106.091 52.4928 106.052C52.2512 104.723 52.8412 103.68 53.2394 103.469C53.2785 103.448 53.3276 103.462 53.3485 103.502C53.3694 103.541 53.3545 103.59 53.3152 103.611C53.0291 103.763 52.4114 104.703 52.6517 106.024C52.6595 106.067 52.6305 106.109 52.5868 106.117C52.5817 106.118 52.577 106.118 52.5723 106.118Z" fill="#6A4A7D"/>
<path d="M54.083 106.119C54.0466 106.119 54.013 106.094 54.0045 106.057C53.6959 104.742 54.4152 103.923 54.4462 103.889C54.4758 103.857 54.5266 103.854 54.5599 103.883C54.5932 103.913 54.5959 103.964 54.5663 103.997C54.5593 104.005 53.8733 104.79 54.1614 106.02C54.1718 106.063 54.1446 106.107 54.1011 106.117C54.0951 106.118 54.0887 106.119 54.083 106.119Z" fill="#6A4A7D"/>
</svg>
