<svg width="107" height="118" viewBox="0 0 107 118" fill="none" xmlns="http://www.w3.org/2000/svg">
<path d="M95.363 49.0846C101.782 42.6653 101.782 32.2574 95.363 25.8381C88.9437 19.4187 78.5358 19.4187 72.1165 25.8381C65.6971 32.2574 65.6971 42.6653 72.1164 49.0846C78.5358 55.504 88.9437 55.504 95.363 49.0846Z" fill="#FFF4DD"/>
<path d="M83.2068 16.24C86.1965 13.2503 86.1965 8.40304 83.2068 5.41334C80.2171 2.42364 75.3698 2.42363 72.3801 5.41333C69.3904 8.40302 69.3904 13.2503 72.3801 16.24C75.3698 19.2297 80.2171 19.2297 83.2068 16.24Z" fill="#FFC100"/>
<path d="M86.0599 104.5C95.3001 104.5 102.791 97.0096 102.791 87.7694C102.791 78.5292 95.3001 71.0386 86.0599 71.0386C76.8197 71.0386 69.3291 78.5292 69.3291 87.7694C69.3291 97.0096 76.8197 104.5 86.0599 104.5Z" fill="#FBEED1"/>
<path d="M104.316 117.957H0.68422C0.306285 117.957 0 117.509 0 116.957C0 116.404 0.306285 115.957 0.68422 115.957H104.316C104.694 115.957 105 116.404 105 116.957C105 117.509 104.694 117.957 104.316 117.957Z" fill="#6A4A7D"/>
<path d="M80.332 37.91C80.2324 36.815 79.8429 35.6948 79.229 34.6682C78.0061 32.6001 76.075 30.9797 74.6471 29.0671C73.1849 27.1566 72.0405 25.0094 71.2518 22.8743C71.13 22.5481 71.0199 22.2227 70.9152 21.8978C70.8994 21.5478 70.8822 21.1987 70.8603 20.851C70.6766 17.9017 70.0522 14.74 67.8797 12.7372C65.2717 10.3329 60.2682 10.3675 57.8702 12.9819C55.3551 11.3625 52.1079 10.9832 49.2492 11.8637C46.3901 12.7443 43.9507 14.8389 42.538 17.4756C41.0633 20.2276 40.6988 23.4189 40.3608 26.5231C40.2982 27.098 40.2356 27.6729 40.173 28.2478C40.139 28.3529 40.1084 28.4572 40.0734 28.5622C39.2474 31.0534 38.0174 33.5773 36.9268 36.2021C36.3856 37.5158 35.879 38.8558 35.4979 40.2204C35.1088 41.5803 34.8577 42.9732 34.7827 44.329C34.7069 45.6852 34.8045 47.0121 35.095 48.2269C35.3714 49.4447 35.8655 50.5363 36.4522 51.4407C36.0136 50.4528 35.6757 49.3427 35.5319 48.1467C35.3748 46.9538 35.3869 45.6852 35.5414 44.3953C35.8382 41.8058 36.7891 39.1797 37.8653 36.5909C38.5068 35.0452 39.1831 33.4928 39.7711 31.9367C39.3517 35.7871 38.9323 39.6374 38.5132 43.4875C38.317 45.29 38.1322 47.1814 38.8216 48.8587C39.4907 50.4861 40.9347 51.7144 42.5558 52.399C44.1769 53.0837 45.9676 53.2718 47.7274 53.2574C53.3018 53.2109 58.8376 51.1341 63.067 47.5021C65.6834 47.6637 69.3197 46.9841 71.8193 46.1948C74.3189 45.4055 76.628 43.4518 77.0518 40.865C77.3914 38.7916 76.491 36.713 75.3654 34.9391C74.2398 33.1653 72.8591 31.53 72.0556 29.5885C71.3605 27.9085 71.1384 26.1054 71.0273 24.2793C71.7103 26.1303 72.6905 27.9651 73.9456 29.6043C75.4664 31.6236 77.414 33.1626 78.6709 35.0253C79.302 35.9422 79.75 36.9514 79.95 37.9659C80.1539 38.9777 80.0843 40.001 79.7258 40.8734C80.2172 40.0683 80.4384 39.0026 80.332 37.91Z" fill="#562D3C"/>
<path d="M47.2549 14.8874C50.0362 12.9025 54.1259 12.9987 56.8106 15.1126C57.947 13.1489 60.6813 12.0408 62.9459 12.1771C65.2106 12.3134 67.3301 13.0105 68.6197 15.7101C69.3827 17.3076 70.2111 20.1223 70.9153 21.8978C70.8995 21.5478 70.8823 21.1987 70.8604 20.851C70.6767 17.9017 70.0522 14.74 67.8798 12.7372C65.2718 10.3329 60.2682 10.3675 57.8703 12.9819C55.3552 11.3625 52.108 10.9832 49.2492 11.8637C46.3901 12.7443 43.9508 14.8389 42.5381 17.4756C41.0634 20.2276 40.6989 23.4189 40.3609 26.5231C40.2983 27.098 40.2357 27.6729 40.1731 28.2478C40.777 26.5958 41.7289 24.5674 42.3327 22.9157C43.428 19.9193 44.6583 16.7401 47.2549 14.8874Z" fill="#B3757E"/>
<path d="M54.9547 18.1948C53.7106 18.4869 52.2993 18.977 50.8825 19.6967C49.4651 20.413 48.0456 21.3571 46.7659 22.4656C45.4881 23.5764 44.3538 24.8487 43.4446 26.151C42.5321 27.452 41.8481 28.7802 41.3839 29.9708C42.0292 28.8664 42.832 27.6368 43.8058 26.421C44.7765 25.2038 45.9153 24.0022 47.16 22.9193C48.4071 21.8395 49.7576 20.8815 51.0993 20.0922C52.44 19.2998 53.7706 18.6781 54.9547 18.1948Z" fill="#B3757E"/>
<path d="M53.8908 17.8198C52.9813 17.8729 51.9308 18.0338 50.8415 18.3401C49.7523 18.6444 48.6267 19.0931 47.5654 19.6643C46.5051 20.2372 45.5118 20.9313 44.6591 21.6742C43.8049 22.4157 43.0929 23.2051 42.549 23.9358C43.8425 22.6527 45.6871 21.1525 47.7683 20.041C49.8411 18.913 52.1081 18.1957 53.8908 17.8198Z" fill="#B3757E"/>
<path d="M54.2368 16.7216C53.3788 16.2012 52.0324 15.8528 50.6927 15.9707C49.3517 16.0706 48.079 16.6324 47.3166 17.2844C48.2473 16.9071 49.4698 16.5439 50.7314 16.4469C51.992 16.3389 53.2572 16.4998 54.2368 16.7216Z" fill="#B3757E"/>
<path d="M67.9056 31.1846C66.9537 30.537 65.8887 29.754 64.8267 28.8361C63.7634 27.9202 62.7038 26.871 61.7337 25.7431C60.7659 24.6134 59.8894 23.407 59.1452 22.2172C58.3989 21.0283 57.7863 19.8569 57.2902 18.8178C57.6177 19.9205 58.1142 21.1663 58.7948 22.4215C59.4731 23.6773 60.3341 24.9406 61.3233 26.0952C62.315 27.2484 63.4332 28.2905 64.5716 29.1512C65.7093 30.0142 66.8652 30.6938 67.9056 31.1846Z" fill="#B3757E"/>
<path d="M69.0619 27.1005C67.3116 26.1399 65.125 24.7319 63.1889 23.0139C61.2409 21.3093 59.569 19.3173 58.3957 17.7016C59.3004 19.4802 60.8912 21.6281 62.8785 23.3656C64.8527 25.119 67.1837 26.427 69.0619 27.1005Z" fill="#B3757E"/>
<path d="M67.3041 21.0262C66.6269 19.9548 65.4228 18.7427 63.9859 17.8763C62.556 16.9981 60.9262 16.4858 59.6632 16.3764C60.8289 16.8779 62.2978 17.5495 63.6722 18.3916C65.0519 19.2254 66.3232 20.2214 67.3041 21.0262Z" fill="#B3757E"/>
<path d="M46.3209 52.2789C45.6221 52.0787 44.9254 51.7222 44.2986 51.218C43.6732 50.7124 43.1151 50.0688 42.6671 49.3306C41.7647 47.8472 41.3412 46.0077 41.1332 44.1537C40.9178 42.2916 40.8744 40.41 40.9706 38.6425C41.0635 36.874 41.2948 35.2213 41.557 33.7924C41.075 35.1621 40.6697 36.8074 40.4607 38.5988C40.2479 40.3891 40.2338 42.3223 40.4553 44.2321C40.6677 46.1343 41.1719 48.0856 42.2386 49.6104C42.7664 50.3677 43.4164 51.0005 44.1239 51.46C44.8328 51.9191 45.6003 52.1911 46.3209 52.2789Z" fill="#B3757E"/>
<path d="M53.2598 51.4953C51.9653 51.4523 50.53 50.9598 49.2795 50.0439C48.0196 49.1388 46.9832 47.818 46.1882 46.3679C45.3938 44.9131 44.7865 43.3432 44.3136 41.8423C43.843 40.3373 43.5304 38.8842 43.3146 37.6088C43.3301 40.1909 44.0137 43.6236 45.656 46.6617C46.481 48.1701 47.6295 49.5501 49.024 50.4219C50.4021 51.3055 51.9743 51.6589 53.2598 51.4953Z" fill="#B3757E"/>
<path d="M72.8249 43.3648C73.7872 42.9619 74.7055 41.9898 75.1198 40.7248C75.3312 40.0981 75.4261 39.3986 75.3696 38.7039C75.3228 38.0071 75.1367 37.3154 74.8613 36.6684C74.3049 35.3705 73.3641 34.2809 72.3536 33.4694C71.3405 32.6504 70.2714 32.0728 69.3293 31.6342C70.1923 32.2149 71.1846 32.8921 72.114 33.7471C73.043 34.597 73.8916 35.6489 74.4123 36.8616C74.9371 38.0657 75.1017 39.4232 74.7688 40.6185C74.4557 41.8178 73.7098 42.8131 72.8249 43.3648Z" fill="#B3757E"/>
<path d="M69.6646 44.7414C70.0248 44.2358 70.359 43.5832 70.5734 42.8372C70.7905 42.093 70.8882 41.2603 70.8407 40.4342C70.7909 39.6082 70.5963 38.7926 70.2937 38.079C69.9931 37.3634 69.5852 36.7542 69.1681 36.2944C69.5084 36.8144 69.8423 37.4459 70.0894 38.1578C70.3385 38.8684 70.5011 39.6557 70.5492 40.4514C70.5947 41.2475 70.5253 42.0486 70.3614 42.7831C70.1991 43.5189 69.9416 44.185 69.6646 44.7414Z" fill="#B3757E"/>
<path d="M32.6715 64.0401C32.4568 60.2032 30.8498 56.4588 28.2163 53.6599C27.9086 53.3331 27.3879 53.0086 27.0617 53.3166C26.8207 53.5441 26.9062 53.9393 27.0095 54.2544C27.5929 56.0289 28.1759 57.8035 28.7592 59.5777C27.9823 57.4699 26.8995 55.4749 25.5554 53.6748C25.3474 53.3964 25.1185 53.1109 24.7971 52.9787C24.4756 52.8464 24.0384 52.9312 23.8926 53.2466C23.7741 53.5031 23.8815 53.802 23.9889 54.0632C24.7166 55.8351 25.4443 57.6066 26.1717 59.3785C25.3218 58.305 24.4722 57.2316 23.6223 56.1582C23.456 55.9482 23.2834 55.7324 23.0491 55.6025C22.8148 55.4722 22.5008 55.4476 22.2914 55.6153C21.9235 55.9101 22.117 56.4958 22.3395 56.9115C23.2228 58.5615 24.1057 60.2116 24.9889 61.8616C24.1673 60.8629 23.3456 59.8642 22.5243 58.8652C22.1726 58.4377 21.6051 57.9674 21.1375 58.2643C20.8363 58.4555 20.7804 58.8928 20.911 59.2246C21.0416 59.5565 21.3112 59.8103 21.5637 60.0624C23.1416 61.6374 24.349 63.5813 25.062 65.6938C25.5453 67.1264 25.8126 68.6522 26.5743 69.9585C27.336 71.2646 28.7902 72.336 30.2749 72.0505C31.1127 69.3756 32.828 66.8389 32.6715 64.0401Z" fill="#F4C1B1"/>
<path d="M39.6157 77.4008C37.8 74.2785 35.9844 71.1561 34.1688 68.0335C34.8114 66.3114 33.8032 64.2925 32.4915 63.005C31.1801 61.7175 29.4244 61.0005 27.6993 60.3667C27.4196 60.264 27.1321 60.1614 26.8339 60.1637C26.536 60.1661 26.2209 60.2953 26.0779 60.5569C25.816 61.0349 26.2334 61.5899 26.6205 61.9736C27.5569 62.902 28.4933 63.8303 29.4298 64.759C28.251 65.683 27.4886 67.0759 27.5815 68.571C27.6747 70.0659 28.5415 71.4917 29.8259 72.2622L32.8055 80.2592L39.6157 77.4008Z" fill="#FFE0CB"/>
<path d="M91.0219 78.4859L102.626 74.1343L94.9635 55.6458C92.7615 50.3332 87.4408 47.1668 81.9047 47.539C81.6765 50.2776 80.7326 52.9593 79.1577 55.2129C76.8671 58.4907 73.2685 60.8261 69.342 61.5828C66.0114 62.2247 62.405 61.7117 59.5695 59.8503C57.1325 58.2504 55.3522 55.6071 54.9344 52.7426C51.1746 53.2286 48.0375 56.0931 47.3356 59.9714L44.3799 76.3101L53.6745 79.56L55.474 86.7418C56.6488 91.431 56.3011 96.3726 54.4807 100.851L48.3067 116.039H96.1796L89.7872 100.755C87.771 95.934 87.4741 90.5659 88.9467 85.5519L91.0219 78.4859Z" fill="white"/>
<path d="M52.743 61.6667L51.6962 78.6776L48.794 76.9548L52.743 61.6667Z" fill="#A34262"/>
<path d="M73.1325 83.8125C76.6082 83.551 79.6147 82.2833 82.2258 79.9746C78.0886 81.1975 73.5862 80.9864 69.5311 79.5215C68.0932 79.0021 66.5095 79.0267 65.1254 79.6757C62.8297 80.7521 60.2645 81.256 57.7326 81.1042C59.0419 82.1241 60.6866 82.8835 62.3312 82.6617C60.5671 84.5985 58.1402 86.1462 55.543 87.0405C56.6295 91.6402 56.2623 96.4664 54.4807 100.85L48.3067 116.038H96.1796L89.7872 100.754C89.3917 99.8085 89.0648 98.8418 88.8023 97.8613C87.2038 97.422 85.6466 96.8424 84.1585 96.0985C79.1398 93.5901 74.6021 89.2271 73.1325 83.8125Z" fill="#322A2D"/>
<path d="M82.8353 68.9798C82.7475 67.6152 82.7202 66.0725 82.8626 64.4538C83.0013 62.8361 83.3059 61.1457 83.7849 59.5034C84.2693 57.8628 84.9263 56.2757 85.684 54.8395C86.439 53.4008 87.2957 52.1174 88.1069 51.0167C86.9941 51.8057 85.8378 52.9302 84.8536 54.3292C83.8663 55.7237 83.0541 57.3852 82.5381 59.1372C82.0255 60.8902 81.8111 62.7271 81.8881 64.434C81.9602 66.1436 82.3254 67.7145 82.8353 68.9798Z" fill="#322A2D"/>
<path d="M100.954 72.2684C97.5909 72.7251 92.3914 74.3001 89.3408 75.7862C92.7031 75.3294 97.9026 73.7545 100.954 72.2684Z" fill="#322A2D"/>
<path d="M98.1072 69.2868C96.0139 70.1515 92.9242 72.0496 91.2068 73.5263C93.3005 72.6616 96.3898 70.7635 98.1072 69.2868Z" fill="#322A2D"/>
<path d="M66.9266 63.6172C65.7663 63.4226 64.4737 63.1267 63.1617 62.6552C61.8496 62.1869 60.5203 61.5477 59.282 60.7608C58.0463 59.9694 56.9062 59.034 55.9284 58.0414C54.9476 57.0504 54.1343 56.0032 53.4685 55.0331C53.7954 56.1601 54.4002 57.4153 55.2939 58.589C56.1825 59.7648 57.3529 60.8537 58.6808 61.7029C60.0104 62.5488 61.4914 63.151 62.9321 63.461C64.3734 63.7767 65.767 63.7959 66.9266 63.6172Z" fill="#322A2D"/>
<path d="M51.6978 78.7574C51.6961 78.7574 51.6948 78.7574 51.6928 78.7574C51.6484 78.7547 51.6147 78.716 51.6174 78.6719L52.6642 61.6614C52.6669 61.6173 52.6999 61.5856 52.7497 61.5856C52.7941 61.5883 52.8278 61.6267 52.8251 61.6711L51.7783 78.6817C51.7756 78.7244 51.7399 78.7574 51.6978 78.7574Z" fill="#6A4A7D"/>
<path d="M101.729 82.3949L101.694 81.6309C101.591 79.3585 101.163 77.1123 100.423 74.9614L91.0225 78.4867L101.729 82.3949Z" fill="#F4C1B1"/>
<path d="M59.5706 59.8491C62.4061 61.7106 66.0125 62.2235 69.3431 61.5816C73.2696 60.825 76.8685 58.4896 79.1588 55.2118C80.7337 52.9582 81.6776 50.2765 81.9058 47.5379C80.9879 47.5995 80.0639 47.7554 79.1473 48.0183L71.763 50.1365L65.6385 41.4148L57.2837 47.7005L59.9492 53.0054L56.9518 52.7098C56.2671 52.6422 55.5923 52.6563 54.9355 52.7411C55.3533 55.6059 57.1336 58.2496 59.5706 59.8491Z" fill="#FFE0CB"/>
<path d="M65.638 41.4146L57.2832 47.7003L58.5071 50.1362C61.8506 51.4073 66.5246 48.224 65.638 41.4146Z" fill="#EEA297"/>
<path d="M67.0897 38.7049C67.6888 39.4303 68.8518 39.4582 69.6721 38.9971C70.492 38.5359 71.0343 37.7089 71.4816 36.8812C71.9011 36.105 72.2737 35.2709 72.2939 34.389C72.3141 33.5071 71.9071 32.5656 71.1137 32.1795C70.2662 31.7669 69.2072 32.0947 68.5041 32.7228C67.8009 33.3509 67.2593 34.1968 66.851 35.0467C66.2818 34.5075 66.1159 33.7101 66.0869 32.9261C61.5586 29.8519 57.7453 25.2169 56.0084 20.0269C50.2141 22.0273 45.3435 26.5569 42.9287 32.1913C43.5787 35.3426 44.5609 38.6086 45.9524 41.5098C47.3442 44.411 49.5625 47.0425 52.536 48.2718C55.4833 49.49 59.02 49.1662 61.6966 47.4327C64.3736 45.6982 66.9961 41.8929 67.0897 38.7049Z" fill="#FFE0CB"/>
<path d="M70.2793 33.3208C68.9302 33.8085 67.9096 35.1031 67.7497 36.5286C67.7235 36.7632 67.7194 37.0056 67.7931 37.2298C67.8669 37.4539 68.0288 37.6589 68.2516 37.7363C68.6447 37.8727 69.055 37.5842 69.3304 37.2725C69.6673 36.8915 69.9407 36.4159 69.9279 35.9076C69.9151 35.399 69.5327 34.8793 69.0248 34.8554C69.3301 34.2858 69.74 33.6756 70.2793 33.3208Z" fill="#F4C1B1"/>
<path d="M55.6731 20.7327C57.822 30.8328 66.0879 32.9255 66.0879 32.9255C61.5596 29.851 57.7462 25.2163 56.0094 20.0259C50.2151 22.0263 45.3445 26.556 42.9297 32.1903C43.1438 33.2288 43.3979 34.2793 43.687 35.3255C47.6367 26.6085 55.6731 20.7327 55.6731 20.7327Z" fill="#F4C1B1"/>
<path d="M53.6759 29.0067C56.0809 29.2814 58.486 29.5564 60.891 29.8314C60.1993 28.6213 59.0595 27.7727 57.6785 27.5846C56.2974 27.3961 54.6665 28.0262 53.6759 29.0067Z" fill="#562D3C"/>
<path d="M43.6572 32.2269C45.2069 31.5268 46.7567 30.8263 48.3067 30.1262C47.4477 29.6523 46.3938 29.6068 45.4705 29.939C44.5475 30.2713 44.0171 31.3144 43.6572 32.2269Z" fill="#562D3C"/>
<path d="M60.7007 39.4116C57.7759 40.8358 54.7684 42.0903 51.6982 43.1661C52.8289 44.0217 54.1521 44.7528 55.5695 44.775C56.9873 44.7973 58.4252 44.2823 59.4371 43.2893C60.4496 42.2966 60.9208 40.8122 60.7007 39.4116Z" fill="white"/>
<path d="M71.0312 63.4393L77.6694 72.4255C78.2574 73.2216 79.2134 73.6592 80.2003 73.5841L82.8584 73.3822L83.9329 70.1585L76.3142 60.0288L71.0312 63.4393Z" fill="#C86CFF"/>
<path d="M68.2754 65.0895L68.3293 66.1531C68.3821 67.1956 69.1772 68.0485 70.2132 68.1741L71.5209 68.3326L74.3773 71.6387C75.059 72.4277 76.0856 72.83 77.1216 72.7142L81.2396 72.2544L89.2939 86.734C91.3724 90.4706 96.3904 91.2953 99.5555 88.4204C102.464 85.778 102.453 81.2006 99.5302 78.5731L86.6333 66.9785L84.7349 61.9018C83.9981 59.9317 82.4009 58.4069 80.3988 57.7623L78.8541 57.2651L76.3155 59.3066C76.6379 62.812 72.2705 63.5835 71.0291 63.4398L68.2754 65.0895Z" fill="#FFE0CB"/>
<path d="M78.7 62.8887C80.1578 61.747 81.3693 60.1592 81.7749 58.3806C81.344 58.1272 80.8832 57.9185 80.3982 57.7623L78.8535 57.2651L76.3148 59.3066C76.6373 62.812 72.2699 63.5835 71.0285 63.4398L68.2744 65.0891L68.3283 66.1528C68.363 66.8354 68.7191 67.4319 69.2496 67.8011C70.3361 67.1235 71.5122 66.5688 72.6869 66.0542C74.7678 65.1423 76.9116 64.2893 78.7 62.8887Z" fill="#F4C1B1"/>
<path d="M95.1071 90.2263C94.7412 90.2263 94.373 90.1966 94.0044 90.136C91.969 89.8018 90.2267 88.5759 89.2236 86.7731L81.1953 72.3402L77.1302 72.794C76.0655 72.9121 75.015 72.5005 74.3162 71.6913L71.4803 68.4087L70.2036 68.2539C69.1258 68.1233 68.3035 67.2414 68.2486 66.1572L68.1924 65.0451L71.0118 63.3567L71.039 63.3597C71.8782 63.4576 74.0668 63.1227 75.3115 61.9073C76.0191 61.2162 76.3301 60.3437 76.2355 59.3141L76.2315 59.271L76.2655 59.2441L78.8374 57.1753L80.4232 57.6859C82.4616 58.342 84.0605 59.8684 84.8104 61.8736C84.8259 61.9153 84.8047 61.9618 84.7633 61.9776C84.7212 61.9927 84.6751 61.9722 84.6593 61.9305C83.9269 59.9715 82.3647 58.4803 80.374 57.8394L78.8707 57.3557L76.3998 59.343C76.4863 60.4047 76.1584 61.3061 75.4243 62.0227C74.1381 63.2782 71.962 63.6189 71.0478 63.5229L68.358 65.1336L68.4098 66.1488C68.4607 67.1545 69.2231 67.9728 70.2231 68.094L71.5618 68.2566L74.4387 71.5866C75.1028 72.3557 76.1012 72.7448 77.113 72.6344L81.2845 72.1689L81.3108 72.2157L89.365 86.6953C90.3438 88.4547 92.044 89.651 94.031 89.9772C96.0176 90.3044 98.0116 89.7143 99.5021 88.3611L99.6105 88.4803C98.3593 89.616 96.7622 90.2263 95.1071 90.2263Z" fill="#6A4A7D"/>
<path d="M74.2829 68.7482C74.2799 68.7482 74.2765 68.7478 74.2732 68.7475L70.8102 68.3271C70.7661 68.3217 70.7345 68.2816 70.7399 68.2372C70.7452 68.1931 70.7819 68.1628 70.8297 68.1669L74.2927 68.5873C74.3368 68.5927 74.3681 68.6327 74.363 68.6772C74.358 68.7182 74.3233 68.7482 74.2829 68.7482Z" fill="#6A4A7D"/>
<path d="M55.3125 64.3853C60.7776 52.9135 70.3593 40.6427 78.3455 48.0247C88.2844 57.2116 70.124 62.4825 61.6901 69.571L55.3125 64.3853Z" fill="#C86CFF"/>
<path d="M56.0314 64.33C55.681 64.2351 55.4262 64.2458 55.3121 64.3862C54.9563 64.8234 56.0957 66.3392 57.8568 67.7711C59.6179 69.203 61.3339 70.0091 61.6897 69.5719C61.8038 69.4315 61.7624 69.1797 61.5982 68.8563C60.8556 68.655 59.6812 67.972 58.4846 66.9992C57.288 66.0265 56.3801 65.016 56.0314 64.33Z" fill="#7D01C8"/>
<path d="M59.1438 66.1866C57.9472 65.2138 56.7728 64.5309 56.0303 64.3296C56.379 65.0152 57.2868 66.0257 58.4834 66.9988C59.6801 67.9716 60.8545 68.6546 61.597 68.8559C61.2486 68.1702 60.3405 67.1597 59.1438 66.1866Z" fill="#6A4A7D"/>
<path d="M75.6567 49.5845C75.5386 49.5845 75.4218 49.5919 75.3066 49.6053C76.9981 49.8056 78.3169 51.4395 78.3169 53.4258C78.3169 55.4121 76.9981 57.0459 75.3066 57.2462C75.4218 57.2597 75.5386 57.2671 75.6567 57.2671C77.5127 57.2671 79.0173 55.5474 79.0173 53.4258C79.0173 51.3042 77.5127 49.5845 75.6567 49.5845Z" fill="#6A4A7D"/>
<path d="M78.3164 53.4244C78.3164 51.4382 76.9976 49.8043 75.3061 49.604C73.6147 49.8043 72.2959 51.4382 72.2959 53.4244C72.2959 55.4107 73.6147 57.0446 75.3061 57.2449C76.9976 57.0446 78.3164 55.4107 78.3164 53.4244Z" fill="#634269"/>
<path d="M70.7795 48.9958C70.6206 48.915 70.4581 48.8477 70.2911 48.7935C69.6957 48.5996 69.0443 48.7369 68.5354 49.1018C64.8641 51.7324 61.7764 55.1738 59.5579 59.1076C59.2903 59.5823 59.5104 60.1871 60.0231 60.3716C60.0315 60.3746 60.0402 60.3776 60.0486 60.3807C60.9847 60.7169 62.0296 60.4133 62.6294 59.62C65.1909 56.2297 67.9995 52.726 70.9078 49.6959C71.1158 49.4795 71.0471 49.1321 70.7795 48.9958Z" fill="#37104A"/>
<path d="M60.0065 61.8305C59.8018 61.7776 59.5945 61.7308 59.3868 61.6901C58.8647 61.5881 58.3363 61.8382 58.0603 62.2926L57.6247 63.0096C57.4325 63.326 57.5692 63.738 57.9122 63.8773C58.064 63.9389 58.2181 64.0032 58.3716 64.0669C58.9576 64.3099 59.644 64.0891 59.9553 63.536C60.1135 63.2553 60.2563 62.9615 60.3946 62.6706C60.5565 62.3313 60.371 61.9244 60.0065 61.8305Z" fill="#37104A"/>
<path d="M75.0009 50.1988C74.1298 50.8316 73.2889 51.4991 72.4737 52.1965C72.3794 52.5156 72.3212 52.8529 72.3037 53.2033C73.2704 52.3402 74.2742 51.5199 75.3264 50.7552C75.6586 50.5138 75.3375 49.9541 75.0009 50.1988Z" fill="#6A4A7D"/>
<path d="M76.1557 50.8608C74.816 51.8342 73.544 52.8851 72.3369 54.012C72.3709 54.2648 72.4258 54.5092 72.5008 54.7431C73.753 53.5485 75.0772 52.4371 76.4811 51.4172C76.8134 51.1758 76.4919 50.6164 76.1557 50.8608Z" fill="#6A4A7D"/>
<path d="M76.7838 51.9682C75.3607 53.0022 74.0133 54.1231 72.7402 55.3308C72.8405 55.5308 72.956 55.7189 73.0849 55.8943C74.3502 54.6835 75.6889 53.5569 77.1093 52.5249C77.4416 52.2836 77.1201 51.7238 76.7838 51.9682Z" fill="#6A4A7D"/>
<path d="M77.3303 53.0678C75.9597 54.0635 74.658 55.1392 73.4268 56.2958C73.5809 56.452 73.7472 56.5917 73.9246 56.7139C75.1034 55.6091 76.3448 54.5768 77.6558 53.6245C77.9884 53.3829 77.6669 52.8234 77.3303 53.0678Z" fill="#6A4A7D"/>
<path d="M77.0994 54.812C76.1593 55.495 75.2518 56.2164 74.377 56.9747C74.6055 57.0824 74.8475 57.1595 75.0983 57.2076C75.8503 56.5678 76.6231 55.9515 77.4249 55.3688C77.7571 55.1271 77.4357 54.5673 77.0994 54.812Z" fill="#6A4A7D"/>
<path d="M69.4953 81.481C71.1463 87.2752 75.777 92.1331 81.4857 94.0594C87.1945 95.9858 93.8219 94.9265 98.6457 91.3168C97.5619 95.0581 95.178 98.2737 91.91 100.393C92.5919 100.277 93.254 100.216 93.936 100.1C92.4304 102.003 90.3404 103.427 88.002 104.075C85.6633 104.723 83.1199 104.608 80.8499 103.751C81.1047 104.313 81.6194 104.959 82.2148 105.122C80.2447 104.784 78.4173 104.053 76.8706 102.787C75.3239 101.52 74.0357 99.9668 72.8593 98.3508C70.4139 94.9918 68.3465 91.0728 68.5144 86.9215C68.5875 85.1099 69.6939 83.2828 69.4953 81.481Z" fill="#949AA3"/>
<path d="M72.6274 87.6465C71.2147 85.8056 70.1322 83.7143 69.4956 81.481C69.6939 83.2831 68.5878 85.1099 68.5145 86.9211C68.3882 90.0401 69.5239 93.0274 71.1332 95.7448C72.135 93.1715 72.6446 90.408 72.6274 87.6465Z" fill="#3A3F50"/>
<path d="M35.0954 105.831C44.1749 106.154 56.4777 101.264 57.982 100.136L61.7425 104.058C61.8499 107.389 60.6681 111.418 59.6472 112.976C56.6925 111.74 55.1882 114.611 55.6715 116.039H62.6557C65.8208 112.665 67.5445 108.526 68.3668 106.026C68.8037 104.698 68.9256 103.289 68.7334 101.904L68.3126 98.8698C68.1238 97.5079 68.2443 96.1197 68.661 94.8093C76.073 71.5158 61.1174 67.3551 51.8568 71.0176C42.3475 74.7785 35.3364 76.2289 32.4356 74.2948C20.8578 88.4243 28.9167 105.401 28.9167 105.401L35.0954 105.831Z" fill="#949AA3"/>
<path d="M56.6647 79.5591C56.6647 79.5591 51.8577 86.7048 53.4205 97.7272C49.0087 99.9703 44.1535 101.5 39.2398 102.093C39.5242 99.0056 39.1829 95.8624 38.2428 92.9087C37.3545 97.7622 34.6041 102.352 30.7793 105.531L35.0955 105.831C44.1751 106.153 56.4779 101.264 57.9821 100.136C55.2456 97.2819 53.1236 92.4233 56.6647 79.5591Z" fill="#3A3F50"/>
<path d="M44.3804 104.905C44.3434 104.905 44.3101 104.879 44.3017 104.841C44.2922 104.798 44.3198 104.755 44.3632 104.746C50.9065 103.33 56.7115 100.897 57.859 100.123C55.7481 97.8914 53.5976 94.0875 55.4011 84.5747C55.4095 84.5313 55.4526 84.503 55.4954 84.5105C55.5391 84.5189 55.5677 84.5613 55.5596 84.605C53.7514 94.1423 55.9353 97.885 58.0401 100.08L58.103 100.145L58.0303 100.2C57.0767 100.915 51.1192 103.448 44.3972 104.903C44.3919 104.904 44.3861 104.905 44.3804 104.905Z" fill="#6A4A7D"/>
<path d="M24.864 63.0642C24.4328 60.9938 23.6973 58.9782 22.6791 57.1245C21.5724 58.6857 20.7649 60.4579 20.3135 62.3176C21.7568 62.529 23.4207 62.8525 24.864 63.0642Z" fill="#797C99"/>
<path d="M23.5537 62.8552C24.002 62.9306 24.4433 63.0023 24.8647 63.0642C24.4336 60.9938 23.6981 58.9782 22.6799 57.1245C22.4994 57.4214 22.3456 57.795 22.2137 58.2114C22.9138 59.6712 23.3682 61.2469 23.5537 62.8552Z" fill="#F6DCC5"/>
<path d="M22.2124 58.2124C21.7849 59.5625 21.5921 61.3674 21.5086 62.5081C22.1828 62.6205 22.8759 62.7427 23.5524 62.8565C23.367 61.2479 22.9126 59.6722 22.2124 58.2124Z" fill="#EBA7AC"/>
<path d="M28.8094 91.1373C29.696 84.6099 34.128 77.8405 33.75 74.6226C33.6144 72.7342 32.8711 70.9254 31.8374 69.3393C30.8037 67.7532 29.4856 66.3725 28.1109 65.0712C27.1422 64.1539 26.1263 63.2609 24.9358 62.6591C22.9434 61.6523 20.5939 61.5409 18.3946 61.9236C16.1952 62.3063 14.1073 63.1515 12.0388 63.9913L10.3282 57.9625C7.80304 61.8307 7.64214 68.8149 7.64214 68.8149C0.335517 89.1763 4.09638 100.673 28.9171 105.401C32.3551 96.2681 28.8094 91.1373 28.8094 91.1373Z" fill="#949AA3"/>
<path d="M12.0397 64.0718C12.0077 64.0718 11.9777 64.053 11.9649 64.0214C11.9481 63.98 11.968 63.9332 12.0094 63.9167C14.0525 63.0873 16.1657 62.2296 18.3812 61.8445C20.1184 61.5419 22.6729 61.4248 24.9722 62.5874C25.0123 62.6073 25.0278 62.6558 25.0079 62.6955C24.9877 62.7359 24.9396 62.7517 24.8999 62.7312C22.6396 61.5897 20.1221 61.7052 18.4088 62.0034C16.2102 62.3858 14.1054 63.2401 12.0696 64.0661C12.0602 64.0698 12.0498 64.0718 12.0397 64.0718Z" fill="#6A4A7D"/>
<path d="M32.5615 79.6852C32.5518 79.6852 32.542 79.6835 32.5326 79.6798C32.4909 79.6637 32.4703 79.6172 32.4861 79.5755C33.1883 77.7534 33.8177 75.8934 33.669 74.6318C33.5438 72.8902 32.9046 71.1254 31.7692 69.3828C31.1896 68.4935 30.477 67.6029 29.59 66.6597C29.5597 66.6274 29.5614 66.5762 29.5937 66.5456C29.6257 66.5153 29.6765 66.517 29.7078 66.5493C30.6008 67.4995 31.3192 68.3972 31.9038 69.2943C33.0547 71.0601 33.7023 72.8505 33.8292 74.6163C33.9817 75.9092 33.3458 77.7918 32.6363 79.633C32.6245 79.6657 32.5939 79.6852 32.5615 79.6852Z" fill="#6A4A7D"/>
<path d="M28.9168 105.482C28.9118 105.482 28.9067 105.482 28.9017 105.481C21.6613 104.102 16.2239 102.162 12.2782 99.5504C12.2412 99.5258 12.2308 99.476 12.2557 99.439C12.2803 99.4013 12.3307 99.3919 12.3671 99.4164C16.2949 102.016 21.7132 103.947 28.932 105.323C28.9757 105.331 29.0043 105.373 28.9959 105.417C28.9885 105.455 28.9548 105.482 28.9168 105.482Z" fill="#6A4A7D"/>
<path d="M10.328 57.9623C10.328 57.9623 10.0388 58.8964 9.75002 60.3717C10.331 61.6899 10.6703 63.114 10.9261 64.555C11.2422 64.3669 11.6104 64.1757 12.0389 63.9909L10.328 57.9623Z" fill="#CEC0B4"/>
<path d="M9.17317 66.1281C9.17317 66.1281 9.56296 65.367 10.9262 64.5548C10.6704 63.1135 10.3311 61.6897 9.75012 60.3715C9.45727 61.8684 9.16442 63.923 9.17317 66.1281Z" fill="#EBA7AC"/>
<path d="M13.5539 112.277C11.1095 111.807 9.65875 114.104 10.1424 116.038H16.5089C20.2994 111.21 22.4096 107.47 23.7122 104.228C20.4923 103.376 17.7184 102.372 15.3578 101.21C15.6038 104.31 15.5476 107.853 13.5539 112.277Z" fill="#3A3F50"/>
<path d="M16.0903 114.105C15.9857 113.407 15.7164 112.72 15.2286 112.211C14.8708 111.837 14.4262 111.548 13.9418 111.367C13.8213 111.666 13.6924 111.969 13.5537 112.277C14.6497 112.591 15.5343 113.178 16.0903 114.105Z" fill="#6A4A7D"/>
<path d="M49.5851 104.058C49.6925 107.389 48.5107 111.419 47.4898 112.977C44.5347 111.741 43.0308 114.612 43.5142 116.039H50.4983C53.6634 112.665 55.3871 108.526 56.2095 106.027C56.6464 104.699 56.7682 103.289 56.5764 101.904L56.4441 100.95C54.8355 101.682 52.2096 102.687 49.1432 103.598L49.5851 104.058Z" fill="#3A3F50"/>
<path d="M20.2421 66.6151C20.5602 67.3341 20.4676 68.072 20.0354 68.2635C19.6032 68.4547 18.9946 68.0269 18.6765 67.3079C18.3585 66.5889 18.451 65.8507 18.8832 65.6595C19.3154 65.4683 19.924 65.8962 20.2421 66.6151Z" fill="black"/>
<path d="M27.0528 65.968C27.3258 66.5847 27.2656 67.2091 26.9185 67.3626C26.5715 67.5161 26.0689 67.1408 25.796 66.5241C25.523 65.9074 25.5832 65.2831 25.9303 65.1296C26.2776 64.9761 26.7798 65.3514 27.0528 65.968Z" fill="black"/>
<path d="M27.0543 68.3357C25.7654 68.3314 24.4769 68.6959 23.3813 69.3745C23.1975 69.4883 23.1621 69.7468 23.324 69.8902C23.9767 70.4688 24.9778 70.8754 25.8816 71.0242C26.2993 71.0928 26.7234 70.8835 26.9015 70.4994C27.1579 69.946 27.3165 69.2769 27.3687 68.6905C27.3855 68.5037 27.2421 68.3364 27.0543 68.3357Z" fill="black"/>
<path d="M20.0735 70.694C20.4461 71.7425 19.4094 73.068 17.758 73.6547C16.1066 74.2414 14.466 73.8671 14.0934 72.8186C13.7208 71.7701 14.7575 70.4446 16.4089 69.8579C18.0603 69.2712 19.7009 69.6455 20.0735 70.694Z" fill="#FFC3C7"/>
<path d="M31.0168 68.6576C31.0821 69.3029 30.523 69.8879 29.768 69.9643C29.013 70.0407 28.3478 69.5799 28.2825 68.9347C28.2172 68.2894 28.7763 67.7044 29.5313 67.628C30.2863 67.5512 30.9515 68.0124 31.0168 68.6576Z" fill="#FFC3C7"/>
<path d="M24.4397 92.3072C24.056 91.7885 23.2283 92.0965 23.2794 92.7394C23.4104 94.3864 23.6574 95.996 24.0408 97.5949C24.2569 98.497 23.1764 99.155 22.4743 98.5485C19.1948 95.7146 16.5016 92.1766 14.4709 88.3309C14.1642 87.7506 13.2833 87.9462 13.2574 88.6019C13.183 90.4953 13.3894 92.4119 13.8818 94.2403C14.1272 95.1518 13.0282 95.8378 12.3176 95.2161C10.0823 93.2601 8.23634 90.8578 6.93772 88.1859C5.63137 85.4981 4.88412 82.5431 4.73298 79.5591C2.55281 93.3335 8.85367 101.579 28.9172 105.401C29.9765 102.587 30.3716 100.155 30.413 98.1338C28.1322 96.5083 26.0975 94.5486 24.4397 92.3072Z" fill="#3A3F50"/>
<path d="M61.5883 114.547C61.6748 113.336 60.868 112.4 60.2305 111.856C60.0369 112.302 59.8393 112.683 59.6475 112.976C60.5809 113.399 61.3264 114.104 61.5883 114.547Z" fill="#797C99"/>
<path d="M28.8094 91.1376C25.6935 97.0204 30.7435 102.5 26.3381 112.278C23.8937 111.808 22.4429 114.105 22.9266 116.039H29.2931C36.9488 106.288 37.7546 100.969 38.8829 95.2479C40.0112 89.526 31.5494 85.8998 28.8094 91.1376Z" fill="#949AA3"/>
<path d="M28.8755 114.106C28.7708 113.408 28.5015 112.721 28.0138 112.212C27.656 111.838 27.2113 111.549 26.727 111.368C26.6065 111.667 26.4775 111.97 26.3389 112.278C27.4348 112.592 28.3191 113.179 28.8755 114.106Z" fill="#797C99"/>
<path d="M29.3324 116.119H22.8639L22.8487 116.058C22.5835 114.997 22.8915 113.805 23.6334 113.02C24.3143 112.301 25.2548 112.006 26.2905 112.187C26.4167 111.905 26.5379 111.62 26.6513 111.338C28.6161 106.455 28.2273 102.673 27.8846 99.336C27.5787 96.3591 27.3141 93.7885 28.7383 91.0997C28.7591 91.06 28.8086 91.0462 28.8473 91.0664C28.8867 91.0872 28.9015 91.136 28.8806 91.1754C27.4794 93.8208 27.7416 96.3688 28.0449 99.3195C28.3899 102.675 28.7807 106.479 26.8008 111.398C26.6789 111.702 26.548 112.009 26.4113 112.311L26.3851 112.37L26.3228 112.357C25.3187 112.166 24.4058 112.44 23.7501 113.132C23.0591 113.862 22.7642 114.965 22.9901 115.959H29.2536C31.152 113.539 32.6856 111.325 33.9408 109.191C33.9633 109.153 34.0125 109.14 34.0512 109.163C34.0896 109.185 34.1024 109.235 34.0798 109.273C32.8148 111.422 31.2698 113.651 29.3559 116.089L29.3324 116.119Z" fill="#6A4A7D"/>
<path d="M23.7132 116.119C23.6748 116.119 23.6408 116.092 23.6337 116.053C23.2712 114.044 24.2076 113.082 24.5641 112.904C24.6031 112.885 24.6519 112.9 24.6721 112.94C24.692 112.98 24.6758 113.028 24.6361 113.048C24.3079 113.213 23.4473 114.112 23.7926 116.024C23.8003 116.068 23.7714 116.11 23.7273 116.118C23.7226 116.119 23.7179 116.119 23.7132 116.119Z" fill="#6A4A7D"/>
<path d="M25.3445 116.119C25.3068 116.119 25.2731 116.093 25.2654 116.054C25.0035 114.745 25.3983 113.805 25.7622 113.555C25.7986 113.53 25.8491 113.539 25.8743 113.575C25.8995 113.612 25.8905 113.662 25.8534 113.687C25.5357 113.906 25.1789 114.8 25.4236 116.023C25.4323 116.066 25.4041 116.109 25.3603 116.117C25.3546 116.118 25.3492 116.119 25.3445 116.119Z" fill="#6A4A7D"/>
<path d="M62.6916 116.118H55.6146L55.5964 116.064C55.3096 115.217 55.6816 114.03 56.4615 113.303C56.9388 112.858 57.9785 112.217 59.6171 112.875C60.6734 111.211 61.7653 107.222 61.6633 104.06C61.662 104.015 61.6966 103.978 61.7414 103.976C61.7895 103.975 61.8229 104.01 61.8245 104.055C61.9286 107.282 60.7966 111.37 59.7161 113.02L59.6797 113.076L59.6178 113.05C58.4394 112.556 57.3572 112.688 56.5722 113.421C55.7846 114.155 55.5318 115.27 55.7324 115.957H62.6226C65.675 112.693 67.3903 108.742 68.2924 106C68.7205 104.699 68.8461 103.286 68.6556 101.914L68.2348 98.8797C68.046 97.5168 68.1675 96.1003 68.5865 94.7839C68.6 94.7415 68.6448 94.7186 68.6879 94.7317C68.7299 94.7452 68.7535 94.7906 68.74 94.833C68.3284 96.1266 68.2085 97.5181 68.3947 98.8578L68.8154 101.892C69.009 103.288 68.8807 104.726 68.4452 106.051C67.5357 108.815 65.8035 112.802 62.7162 116.093L62.6916 116.118Z" fill="#6A4A7D"/>
<path d="M56.5723 116.118C56.5339 116.118 56.5003 116.091 56.4928 116.052C56.2512 114.723 56.8412 113.68 57.2394 113.469C57.2785 113.448 57.3276 113.462 57.3485 113.502C57.3694 113.541 57.3545 113.59 57.3152 113.611C57.0291 113.763 56.4114 114.703 56.6517 116.024C56.6595 116.067 56.6305 116.109 56.5868 116.117C56.5817 116.118 56.577 116.118 56.5723 116.118Z" fill="#6A4A7D"/>
<path d="M58.083 116.119C58.0466 116.119 58.013 116.094 58.0045 116.057C57.6959 114.742 58.4152 113.923 58.4462 113.889C58.4758 113.857 58.5266 113.854 58.5599 113.883C58.5932 113.913 58.5959 113.964 58.5663 113.997C58.5593 114.005 57.8733 114.79 58.1614 116.02C58.1718 116.063 58.1446 116.107 58.1011 116.117C58.0951 116.118 58.0887 116.119 58.083 116.119Z" fill="#6A4A7D"/>
</svg>
