<svg width="20" height="24" viewBox="0 0 20 24" fill="none" xmlns="http://www.w3.org/2000/svg">
<path d="M7.6 20C7.16 20 6.78347 19.8435 6.4704 19.5304C6.15733 19.2173 6.00053 18.8405 6 18.4V16H3.6C3.16 16 2.78347 15.8435 2.4704 15.5304C2.15733 15.2173 2.00053 14.8405 2 14.4V12.8H7.16L8.52 14.84C8.58667 14.9467 8.68 15.0333 8.8 15.1C8.92 15.1667 9.04667 15.2 9.18 15.2C9.35333 15.2 9.51333 15.1467 9.66 15.04C9.80667 14.9333 9.90667 14.8 9.96 14.64L11.04 11.4L11.72 12.44C11.8 12.5467 11.9 12.6333 12.02 12.7C12.14 12.7667 12.2667 12.8 12.4 12.8H18V14.4C18 14.84 17.8432 15.2168 17.5296 15.5304C17.216 15.844 16.8395 16.0005 16.4 16H14V18.4C14 18.84 13.8435 19.2168 13.5304 19.5304C13.2173 19.844 12.8405 20.0005 12.4 20H7.6ZM8.96 12.6L8.26 11.56C8.19333 11.4533 8.1 11.3667 7.98 11.3C7.86 11.2333 7.73333 11.2 7.6 11.2H2V9.6C2 9.16 2.1568 8.78347 2.4704 8.4704C2.784 8.15733 3.16053 8.00053 3.6 8H6V5.6C6 5.16 6.1568 4.78347 6.4704 4.4704C6.784 4.15733 7.16053 4.00053 7.6 4H12.4C12.84 4 13.2168 4.1568 13.5304 4.4704C13.844 4.784 14.0005 5.16053 14 5.6V8H16.4C16.84 8 17.2168 8.1568 17.5304 8.4704C17.844 8.784 18.0005 9.16053 18 9.6V11.2H12.82L11.46 9.16C11.3933 9.05333 11.3 8.96667 11.18 8.9C11.06 8.83333 10.9333 8.8 10.8 8.8C10.6267 8.8 10.4701 8.85333 10.3304 8.96C10.1907 9.06667 10.0939 9.2 10.04 9.36L8.96 12.6Z" fill="#5B5BD1"/>
</svg>
