<svg width="22" height="21" viewBox="0 0 22 21" fill="none" xmlns="http://www.w3.org/2000/svg">
<path d="M14.4153 4.49651L21.7588 11.8415C22.2729 12.3556 21.909 13.2346 21.1819 13.2346H20.366V18.1312C20.366 18.7806 20.1081 19.4033 19.649 19.8625C19.19 20.3216 18.5674 20.5796 17.9181 20.5796H17.1022V14.8668C17.1022 14.2423 16.8637 13.6414 16.4353 13.187C16.007 12.7327 15.4213 12.4592 14.798 12.4226L14.6544 12.4185H13.0225C12.3732 12.4185 11.7506 12.6764 11.2916 13.1356C10.8325 13.5947 10.5746 14.2175 10.5746 14.8668V20.5796H9.75866C9.10945 20.5796 8.48683 20.3216 8.02777 19.8625C7.56871 19.4033 7.31081 18.7806 7.31081 18.1312V13.2346H6.49487C5.76867 13.2346 5.40394 12.3556 5.91799 11.8415L13.2615 4.49651C13.4145 4.34352 13.622 4.25757 13.8384 4.25757C14.0548 4.25757 14.2623 4.34352 14.4153 4.49651ZM14.6544 14.0507C14.8708 14.0507 15.0783 14.1367 15.2313 14.2897C15.3843 14.4428 15.4703 14.6504 15.4703 14.8668V20.5796H12.2065V14.8668C12.2065 14.6669 12.2799 14.474 12.4127 14.3246C12.5455 14.1752 12.7285 14.0798 12.927 14.0564L13.0225 14.0507H14.6544Z" fill="#0BD4C0"/>
<path d="M8.92735 0.60987C8.91287 0.61969 8.89865 0.629884 8.8847 0.640442C6.00328 2.81821 3.43943 5.38131 1.80544 8.30011C1.66344 8.5538 1.67226 8.79154 1.80065 9.07094C1.92907 9.35035 2.19238 9.65354 2.54362 9.93846C3.21302 10.4816 4.19179 10.9536 5.07198 11.2037L5.37674 10.8739L2.79349 8.48485L3.10614 8.1474L5.68905 10.5358L6.05318 10.1413L3.47072 7.75356L3.78302 7.41545L6.3654 9.8032L6.69083 9.45136L4.10906 7.06314L4.42202 6.72461L7.00339 9.11213L7.35475 8.73208L4.77276 6.34495L5.08566 6.00641L7.66704 8.39398L8.0312 7.99947L5.45024 5.61257L5.76248 5.27447L8.34347 7.66135L8.70799 7.26752L6.12705 4.88061L6.43928 4.54249L9.02056 6.92831L9.35913 6.56265L6.77856 4.17637L7.09082 3.8383L9.67099 6.22389L10.0602 5.80267L7.48068 3.41662L7.79363 3.0781L10.3731 5.46411L10.737 5.07067L8.15753 2.68466L8.47048 2.3462L11.0495 4.73153L11.4009 4.35145L8.82224 1.96674L9.13456 1.62862L11.7132 4.0133L12.0195 3.68167C11.7009 2.82175 11.1431 1.86478 10.5439 1.23069C10.2296 0.897988 9.90426 0.657814 9.62064 0.555152C9.37242 0.465369 9.17079 0.465027 8.97039 0.582728C8.95609 0.591161 8.94167 0.600261 8.9274 0.609844L8.92735 0.60987Z" fill="#0BD4C0"/>
</svg>
