<svg width="41" height="46" viewBox="0 0 41 46" fill="none" xmlns="http://www.w3.org/2000/svg">
<path opacity="0.58" d="M0 58V0.00102234C2.19134 -0.0354309 4.39023 0.90509 5.7806 2.53825C8.86358 6.16911 7.63946 12.1403 11.0776 15.4577C13.0876 17.3971 16.1555 17.8564 18.9966 17.9074C21.8378 17.9512 24.7697 17.7033 27.4597 18.6146C32.53 20.3353 35.3561 26.569 33.2252 31.33C32.2353 33.5391 30.4294 35.2962 29.0617 37.3012C27.694 39.3135 26.757 41.8944 27.762 44.0963C29.8022 48.5656 37.4945 47.6615 40.1997 51.7882C41.4163 53.6401 41.1594 56.0679 40.0108 57.9927H0V58Z" fill="#FF8DDF"/>
</svg>
