<svg width="24" height="24" viewBox="0 0 24 24" fill="none" xmlns="http://www.w3.org/2000/svg">
<path d="M14.6057 9.90859C16.1657 9.90859 17.1257 7.62859 17.1257 6.18859C17.1257 4.98859 16.5257 3.54859 15.3257 3.54859C13.7657 3.54859 12.8057 5.82859 12.8057 7.26859C12.8057 8.46859 13.4057 9.90859 14.6057 9.90859ZM10.0457 9.90859C11.2457 9.90859 11.8457 8.46859 11.8457 7.26859C11.8457 5.70859 10.8857 3.42859 9.32571 3.42859C8.12571 3.42859 7.52571 4.86859 7.52571 6.06859C7.40571 7.62859 8.36571 9.90859 10.0457 9.90859ZM18.9257 8.70859C17.3657 8.70859 16.2857 10.8686 16.2857 12.4286C16.2857 13.5086 16.7657 14.5886 17.8457 14.5886C19.4057 14.5886 20.4857 12.4286 20.4857 10.8686C20.4857 9.78859 19.8857 8.70859 18.9257 8.70859ZM8.48571 12.4286C8.48571 10.8686 7.28571 8.70859 5.84571 8.70859C4.76571 8.70859 4.28571 9.78859 4.28571 10.8686C4.28571 12.4286 5.48571 14.5886 6.92571 14.5886C8.00571 14.5886 8.48571 13.5086 8.48571 12.4286ZM12.3257 12.1886C9.92571 12.1886 6.68571 16.0286 6.68571 18.6686C6.68571 19.8686 7.52571 20.2286 8.48571 20.2286C9.92571 20.2286 11.0057 19.2686 12.3257 19.2686C13.5257 19.2686 14.6057 20.2286 15.9257 20.2286C16.8857 20.2286 17.9657 19.9886 17.9657 18.6686C17.9657 16.0286 14.7257 12.1886 12.3257 12.1886Z" fill="#FF68BA"/>
</svg>
