<svg width="60" height="99" viewBox="0 0 60 99" fill="none" xmlns="http://www.w3.org/2000/svg">
<path opacity="0.58" d="M-3 101V-2.99816C0.367176 -3.06352 3.74597 -1.37707 5.88239 1.55135C10.6197 8.06186 8.73868 18.7689 14.0217 24.7173C17.1102 28.1948 21.8242 29.0184 26.1899 29.1099C30.5557 29.1883 35.0607 28.7438 39.1942 30.378C46.9852 33.4633 51.3277 44.641 48.0534 53.1778C46.5323 57.1391 43.7573 60.2897 41.6557 63.8849C39.5542 67.4931 38.1144 72.1211 39.6587 76.0692C42.7936 84.0831 54.6136 82.4621 58.7703 89.8615C60.6397 93.1822 60.2449 97.5356 58.48 100.987H-3V101Z" fill="#FFEAEC"/>
</svg>
