<svg width="45" height="70" viewBox="0 0 45 70" fill="none" xmlns="http://www.w3.org/2000/svg">
<path opacity="0.58" d="M53 -8V69.9986C50.1673 70.0477 47.3248 68.7828 45.5275 66.5865C41.5422 61.7036 43.1246 53.6733 38.6802 49.2121C36.0819 46.6039 32.1161 45.9862 28.4434 45.9176C24.7706 45.8588 20.9807 46.1921 17.5033 44.9665C10.949 42.6525 7.29577 34.2693 10.0503 27.8666C11.3299 24.8957 13.6645 22.5327 15.4325 19.8363C17.2005 17.1302 18.4117 13.6592 17.1126 10.6981C14.4752 4.68765 4.53145 5.90346 1.03452 0.353844C-0.538119 -2.13662 -0.206009 -5.40168 1.27872 -7.9902H53V-8Z" fill="#DA9EFF"/>
</svg>
