<svg width="163" height="140" viewBox="0 0 163 140" fill="none" xmlns="http://www.w3.org/2000/svg">
<g clip-path="url(#clip0_2_2220)">
<rect width="163" height="140" rx="20" fill="#EDFFCE"/>
<circle cx="156.5" cy="19.5" r="44.5" fill="url(#paint0_linear_2_2220)"/>
<circle cx="159" cy="16" r="30" fill="#FFE600"/>
<circle cx="112" cy="32" r="16" fill="white"/>
<circle cx="151.5" cy="61.5" r="8.5" fill="#FF5E5E"/>
<path d="M16.958 33V20.3174H20.1836V25.3008H25.2373V20.3174H28.4541V33H25.2373V27.8936H20.1836V33H16.958ZM34.7822 33.2021C31.75 33.2021 29.8867 31.374 29.8867 28.2188V28.2012C29.8867 25.0986 31.8115 23.2266 34.7822 23.2266C37.7617 23.2266 39.6777 25.0811 39.6777 28.2012V28.2188C39.6777 31.3828 37.7969 33.2021 34.7822 33.2021ZM34.791 30.8379C35.8545 30.8379 36.5225 29.8975 36.5225 28.2188V28.2012C36.5225 26.5488 35.8369 25.5908 34.7822 25.5908C33.7275 25.5908 33.0508 26.5488 33.0508 28.2012V28.2188C33.0508 29.9062 33.71 30.8379 34.791 30.8379ZM40.8818 33V23.4287H44.002V25.1514H44.0635C44.4326 23.9824 45.4521 23.2266 46.7617 23.2266C48.124 23.2266 49.0996 23.9736 49.3721 25.2744H49.4336C49.8027 24.0352 50.9629 23.2266 52.3867 23.2266C54.2588 23.2266 55.5332 24.5449 55.5332 26.4873V33H52.4131V27.2871C52.4131 26.2852 51.9473 25.7666 51.0684 25.7666C50.2246 25.7666 49.6973 26.373 49.6973 27.3223V33H46.7178V27.2607C46.7178 26.2939 46.2432 25.7666 45.3906 25.7666C44.5469 25.7666 44.002 26.3906 44.002 27.3398V33H40.8818ZM61.5713 33.2021C58.5479 33.2021 56.7109 31.3125 56.7109 28.2188V28.21C56.7109 25.1338 58.5566 23.2266 61.4658 23.2266C64.3574 23.2266 66.1943 25.1162 66.1943 28.0166V28.9307H59.7607C59.7959 30.2227 60.499 30.9873 61.6328 30.9873C62.6348 30.9873 63.1797 30.416 63.3203 30.0205L63.3291 29.9766H66.1416L66.1152 30.082C65.8252 31.4092 64.6211 33.2021 61.5713 33.2021ZM61.5361 25.4414C60.6221 25.4414 59.9629 26.0391 59.8047 27.0938H63.2588C63.1006 26.0215 62.4502 25.4414 61.5361 25.4414ZM21.8447 54.2285C18.6895 54.2285 16.6943 52.8311 16.5537 50.4053L16.5449 50.2471H19.542L19.5596 50.3438C19.7178 51.1611 20.667 51.6973 21.9062 51.6973C23.1895 51.6973 23.9805 51.1523 23.9805 50.3613V50.3525C23.9805 49.6318 23.418 49.2979 21.9326 49.0078L20.6318 48.7617C18.1182 48.2959 16.791 47.0566 16.791 45.1143V45.1055C16.791 42.6621 18.9092 41.0889 21.8184 41.0889C25 41.0889 26.8018 42.583 26.916 44.8857L26.9248 45.0703H23.9277L23.9189 44.9736C23.8223 44.1387 23.0049 43.6201 21.8447 43.6201C20.6582 43.6201 19.9902 44.1562 19.9902 44.8857V44.8945C19.9902 45.5801 20.5879 45.9404 21.9502 46.1953L23.251 46.4414C25.9404 46.96 27.1885 48.0498 27.1885 50.0801V50.0889C27.1885 52.6201 25.2021 54.2285 21.8447 54.2285ZM33.042 54.2021C30.0186 54.2021 28.1816 52.3125 28.1816 49.2188V49.21C28.1816 46.1338 30.0273 44.2266 32.9365 44.2266C35.8281 44.2266 37.665 46.1162 37.665 49.0166V49.9307H31.2314C31.2666 51.2227 31.9697 51.9873 33.1035 51.9873C34.1055 51.9873 34.6504 51.416 34.791 51.0205L34.7998 50.9766H37.6123L37.5859 51.082C37.2959 52.4092 36.0918 54.2021 33.042 54.2021ZM33.0068 46.4414C32.0928 46.4414 31.4336 47.0391 31.2754 48.0938H34.7295C34.5713 47.0215 33.9209 46.4414 33.0068 46.4414ZM38.8779 54V44.4287H41.998V46.125H42.0596C42.3232 44.9121 43.0791 44.2266 44.2041 44.2266C44.5029 44.2266 44.7754 44.2705 45.0127 44.3496V47.0127C44.749 46.9072 44.3887 46.8369 44.0195 46.8369C42.71 46.8369 41.998 47.5576 41.998 48.9199V54H38.8779ZM48.3965 54L45.1973 44.4287H48.5459L50.2158 51.3896H50.2773L51.9121 44.4287H55.1729L52 54H48.3965ZM57.4756 43.4004C56.5791 43.4004 55.8848 42.6973 55.8848 41.8623C55.8848 41.0273 56.5791 40.333 57.4756 40.333C58.3809 40.333 59.0664 41.0273 59.0664 41.8623C59.0664 42.6973 58.3809 43.4004 57.4756 43.4004ZM55.9199 54V44.4287H59.0312V54H55.9199ZM65.1309 54.2021C62.1162 54.2021 60.2617 52.3125 60.2617 49.21V49.2012C60.2617 46.1162 62.125 44.2266 65.1045 44.2266C67.8027 44.2266 69.5781 45.8438 69.6221 48.1201L69.6309 48.1816H66.7656L66.7568 48.0938C66.6338 47.2061 66.0713 46.5908 65.1572 46.5908C64.0762 46.5908 63.4258 47.5488 63.4258 49.21V49.2188C63.4258 50.9062 64.0586 51.8379 65.166 51.8379C66.0801 51.8379 66.6338 51.249 66.7568 50.335L66.7744 50.2471H69.6309V50.3086C69.5693 52.5322 67.8906 54.2021 65.1309 54.2021ZM75.3525 54.2021C72.3291 54.2021 70.4922 52.3125 70.4922 49.2188V49.21C70.4922 46.1338 72.3379 44.2266 75.2471 44.2266C78.1387 44.2266 79.9756 46.1162 79.9756 49.0166V49.9307H73.542C73.5771 51.2227 74.2803 51.9873 75.4141 51.9873C76.416 51.9873 76.9609 51.416 77.1016 51.0205L77.1104 50.9766H79.9229L79.8965 51.082C79.6064 52.4092 78.4023 54.2021 75.3525 54.2021ZM75.3174 46.4414C74.4033 46.4414 73.7441 47.0391 73.5859 48.0938H77.04C76.8818 47.0215 76.2314 46.4414 75.3174 46.4414ZM85.3984 54.2021C82.5508 54.2021 81.0215 52.9453 80.8105 51.082L80.8018 51.0029H83.8252L83.8428 51.0732C83.9922 51.7236 84.4844 52.1016 85.3984 52.1016C86.2246 52.1016 86.7256 51.8027 86.7256 51.3105V51.3018C86.7256 50.8711 86.418 50.6338 85.5654 50.458L83.8779 50.124C82.0059 49.7637 81.0303 48.7881 81.0303 47.3291V47.3203C81.0303 45.4131 82.665 44.2266 85.2842 44.2266C88.0527 44.2266 89.5205 45.6416 89.5469 47.3555L89.5557 47.4258H86.708L86.6992 47.3555C86.6289 46.793 86.1455 46.3271 85.2842 46.3271C84.5195 46.3271 84.0273 46.6436 84.0273 47.1445V47.1533C84.0273 47.5664 84.3174 47.8125 85.2227 47.9971L86.9102 48.3311C88.9404 48.7354 89.8193 49.5264 89.8193 50.959V50.9678C89.8193 52.9453 88.0264 54.2021 85.3984 54.2021Z" fill="black"/>
<g clip-path="url(#clip1_2_2220)">
<path d="M121.36 129.455C121.286 129.378 121.288 129.256 121.366 129.183C121.397 129.154 124.527 126.207 129.303 124.722C133.717 123.35 140.48 122.976 147.628 128.984C147.71 129.053 147.72 129.175 147.652 129.256C147.582 129.337 147.459 129.347 147.378 129.279C140.365 123.383 133.741 123.746 129.419 125.09C124.729 126.548 121.665 129.432 121.636 129.461C121.558 129.534 121.436 129.532 121.362 129.455H121.36Z" fill="#CCD2FF"/>
<path d="M74.4876 126.068C74.4138 125.991 74.4157 125.869 74.4934 125.795C74.5575 125.736 80.945 119.722 90.6981 116.69C96.4292 114.909 102.187 114.488 107.808 115.442C114.83 116.634 121.659 119.982 128.101 125.398C128.182 125.467 128.192 125.589 128.124 125.67C128.054 125.751 127.932 125.761 127.85 125.693C113.391 113.538 99.7288 114.289 90.8146 117.061C81.1489 120.066 74.8255 126.016 74.7634 126.076C74.6857 126.149 74.5633 126.147 74.4895 126.07L74.4876 126.068Z" fill="#CCD2FF"/>
<path d="M112.568 126.579L110.42 129.702L108.377 132.672L103.046 129.109L106.174 124.832L107.157 123.487L112.568 126.579Z" fill="#FCBBA4"/>
<path d="M112.569 126.579L110.421 129.702C110.421 129.702 110.421 129.698 110.417 129.696C110.141 129.258 110.225 128.686 110.052 128.2C109.844 127.616 109.294 127.222 108.737 126.946C108.178 126.672 107.574 126.469 107.086 126.087C106.748 125.82 106.348 125.336 106.175 124.83L107.158 123.487L112.569 126.579Z" fill="#E2805D"/>
<path d="M105.353 124.374C105.155 124.281 104.918 124.333 104.775 124.5C104.266 125.092 102.932 126.462 101.772 126.093C100.304 125.627 99.0513 125.052 98.1365 124.975C96.9558 124.876 94.6194 126.031 95.3691 128.08C95.874 129.459 101.287 132.796 104.248 134.503C105.649 135.311 107.433 134.926 108.373 133.617L109.896 131.496C110.168 131.116 110.045 130.587 109.636 130.363L105.899 128.262C105.899 128.262 107.33 125.293 105.357 124.372L105.353 124.374Z" fill="#FC6054"/>
<path d="M106.047 133.815C106.01 133.815 105.972 133.804 105.939 133.782L97.2867 127.89C97.1974 127.83 97.176 127.711 97.2362 127.622C97.2964 127.533 97.4187 127.512 97.5061 127.572L106.158 133.464C106.247 133.524 106.269 133.643 106.209 133.732C106.172 133.786 106.11 133.817 106.047 133.817V133.815Z" fill="#112544"/>
<path d="M103.276 125.428C103.23 125.76 103.34 126.096 103.669 126.436L103.276 125.428Z" fill="white"/>
<path d="M103.668 126.629C103.618 126.629 103.565 126.61 103.528 126.569C103.175 126.202 103.027 125.81 103.085 125.399C103.101 125.293 103.198 125.221 103.305 125.235C103.412 125.25 103.486 125.347 103.47 125.453C103.429 125.745 103.54 126.021 103.81 126.301C103.884 126.378 103.882 126.5 103.804 126.573C103.767 126.61 103.719 126.627 103.67 126.627L103.668 126.629Z" fill="#112544"/>
<path d="M102.412 125.553C102.365 125.885 102.476 126.221 102.804 126.561L102.412 125.553Z" fill="white"/>
<path d="M102.803 126.757C102.753 126.757 102.7 126.737 102.663 126.697C102.312 126.33 102.162 125.938 102.221 125.526C102.236 125.42 102.335 125.347 102.44 125.362C102.547 125.378 102.621 125.474 102.605 125.581C102.564 125.872 102.675 126.148 102.945 126.428C103.019 126.506 103.017 126.627 102.939 126.701C102.902 126.737 102.854 126.755 102.805 126.755L102.803 126.757Z" fill="#112544"/>
<path d="M101.547 125.681C101.5 126.013 101.611 126.349 101.939 126.689L101.547 125.681Z" fill="white"/>
<path d="M101.939 126.884C101.888 126.884 101.836 126.865 101.799 126.824C101.445 126.457 101.298 126.065 101.356 125.654C101.372 125.548 101.471 125.474 101.575 125.49C101.682 125.505 101.756 125.602 101.741 125.708C101.7 126 101.81 126.276 102.08 126.556C102.154 126.633 102.152 126.755 102.075 126.828C102.038 126.865 101.989 126.882 101.941 126.882L101.939 126.884Z" fill="#112544"/>
<path d="M141.446 99.8087C132.945 111.054 123.664 112.659 123.664 112.659L113.404 127.663C112.014 129.418 104.785 123.76 106.176 122.004C106.176 122.004 106.23 121.894 106.339 121.691C107.372 119.683 113.142 108.604 116.092 105.653C117.958 103.783 122.046 100.96 125.435 98.7446C128.364 96.8269 130.768 95.3688 130.768 95.3688L141.446 99.8087Z" fill="#66D3D8"/>
<path d="M141.446 99.8087C132.945 111.054 123.664 112.659 123.664 112.659L113.404 127.663C112.014 129.418 104.785 123.76 106.176 122.004C106.176 122.004 106.23 121.894 106.339 121.691C107.912 122.47 108.895 124.407 110.637 124.806C112.586 125.253 114.395 123.513 115.156 121.672C115.917 119.834 116.088 117.761 117.079 116.035C118.242 114.005 120.384 112.727 122.555 111.834C124.724 110.94 127.026 110.334 129.071 109.189C130.238 108.536 131.442 107.337 131.027 106.072C130.609 104.797 128.95 104.554 127.744 103.951C126.447 103.302 125.503 101.995 125.303 100.564C125.22 99.9555 125.266 99.3355 125.435 98.7446C128.364 96.8269 130.768 95.3688 130.768 95.3688L141.446 99.8087Z" fill="#47B6C3"/>
<path d="M142.239 132.145L142.701 135.9L143.142 139.472L136.774 140.301L136.278 135.033L136.123 133.379L142.239 132.145Z" fill="#FCBBA4"/>
<path d="M142.237 132.145L142.701 135.902C142.701 135.902 142.697 135.902 142.695 135.902C141.767 135.627 141.677 134.397 139.607 134.942C138.745 135.172 137.547 135.759 136.278 135.036L136.123 133.383L142.239 132.147L142.237 132.145Z" fill="#E2805D"/>
<path d="M135.358 135.23C135.146 135.291 135.004 135.484 135.006 135.703C135.018 136.481 134.927 138.385 133.812 138.872C132.4 139.488 131.079 139.878 130.341 140.423C129.39 141.124 128.403 143.526 130.328 144.573C131.623 145.278 137.902 144.223 141.26 143.559C142.846 143.244 143.932 141.784 143.767 140.183L143.501 137.593C143.452 137.13 143.01 136.811 142.551 136.914L138.35 137.794C138.35 137.794 137.451 134.627 135.358 135.231V135.23Z" fill="#FC6054"/>
<path d="M134.5 137.384C134.686 137.664 134.993 137.844 135.465 137.885L134.5 137.384Z" fill="white"/>
<path d="M135.447 138.078C134.94 138.036 134.565 137.839 134.336 137.491C134.278 137.402 134.301 137.282 134.392 137.222C134.481 137.165 134.602 137.188 134.662 137.278C134.825 137.524 135.091 137.659 135.482 137.692C135.588 137.701 135.668 137.794 135.658 137.9C135.649 138.007 135.555 138.086 135.449 138.076L135.447 138.078Z" fill="#112544"/>
<path d="M133.934 138.049C134.121 138.329 134.428 138.509 134.9 138.549L133.934 138.049Z" fill="white"/>
<path d="M134.881 138.741C134.375 138.698 134 138.501 133.771 138.154C133.712 138.065 133.736 137.945 133.827 137.885C133.916 137.827 134.037 137.851 134.097 137.941C134.26 138.187 134.528 138.322 134.916 138.355C135.023 138.364 135.103 138.457 135.093 138.563C135.083 138.669 134.99 138.749 134.883 138.739L134.881 138.741Z" fill="#112544"/>
<path d="M133.372 138.711C133.558 138.991 133.865 139.171 134.337 139.211L133.372 138.711Z" fill="white"/>
<path d="M134.319 139.405C133.81 139.362 133.437 139.165 133.208 138.818C133.15 138.729 133.173 138.609 133.264 138.551C133.353 138.493 133.474 138.516 133.532 138.607C133.695 138.852 133.961 138.988 134.352 139.02C134.459 139.03 134.538 139.123 134.528 139.229C134.519 139.335 134.426 139.414 134.319 139.405Z" fill="#112544"/>
<path d="M136.251 96.4466C136.251 96.4466 131.017 107.072 131.05 114.144C131.072 118.727 133.851 133.256 133.851 133.256C133.892 134.882 143.198 134.389 143.157 132.761L141.376 114.702C141.376 114.702 146.816 108.503 146.251 98.907L136.251 96.4466Z" fill="#66D3D8"/>
<path d="M131.489 110.229C131.477 110.229 131.464 110.229 131.452 110.225C131.347 110.206 131.277 110.103 131.299 109.999C132.543 103.583 136.043 96.4321 136.078 96.3606C136.125 96.2641 136.241 96.2255 136.338 96.2718C136.435 96.3182 136.474 96.434 136.428 96.5306C136.393 96.602 132.914 103.709 131.681 110.072C131.664 110.165 131.582 110.229 131.491 110.229H131.489Z" fill="#112544"/>
<path d="M121.859 76.1529C121.859 76.1529 121.035 74.8763 120.445 74.1174C119.938 73.4685 117.868 72.5299 117.625 72.9972C117.403 73.426 119.13 74.3839 119.13 74.3839C119.13 74.3839 117.042 73.3043 116.836 73.8238C116.631 74.3433 118.206 74.9053 118.206 74.9053C118.206 74.9053 116.524 74.3433 116.343 74.9362C116.192 75.4325 117.868 75.6623 117.868 75.6623C117.868 75.6623 116.161 75.3784 116.071 76.0042C115.982 76.6299 117.873 76.431 117.873 76.431C117.873 76.431 116.44 76.5372 116.061 77.0818C115.726 77.5646 118.087 78.1189 119.788 79.7507C121.181 79.3548 121.975 78.0339 121.861 76.1548L121.859 76.1529Z" fill="#FCBBA4"/>
<path d="M121.877 76.2762C121.877 76.2762 121.493 74.1229 120.318 73.5088C118.941 72.7884 117.669 73.25 117.812 73.9742C117.908 74.4531 119.5 74.8259 119.5 74.8259C119.5 74.8259 118.826 75.9672 120.825 76.7011" fill="#FCBBA4"/>
<path d="M120.827 76.896C120.803 76.896 120.782 76.8921 120.759 76.8844C119.949 76.587 119.448 76.1834 119.267 75.6832C119.162 75.3935 119.193 75.1366 119.24 74.9609C118.71 74.8199 117.715 74.4935 117.62 74.0127C117.562 73.7172 117.68 73.4352 117.946 73.2383C118.399 72.9022 119.362 72.7921 120.407 73.3387C120.782 73.5357 121.116 73.8871 121.399 74.3835C121.452 74.4762 121.419 74.594 121.326 74.6461C121.232 74.6983 121.114 74.6674 121.062 74.5727C120.815 74.1401 120.533 73.8389 120.226 73.6786C119.37 73.2305 118.547 73.2711 118.178 73.5453C118.03 73.6535 117.972 73.7848 118.001 73.9354C118.044 74.1459 118.848 74.4742 119.543 74.6365C119.603 74.65 119.654 74.6925 119.677 74.7485C119.702 74.8045 119.696 74.8701 119.665 74.9223C119.659 74.9319 119.506 75.21 119.632 75.5577C119.772 75.9362 120.207 76.2683 120.889 76.5194C120.99 76.5561 121.04 76.6681 121.003 76.7666C120.974 76.8439 120.9 76.8921 120.821 76.8921L120.827 76.896Z" fill="#112544"/>
<path d="M119.782 79.7758C119.782 79.7758 124.864 86.2261 132.468 86.3362C134.897 86.3709 137.581 85.7607 140.442 84.0863L143.483 75.0192C143.483 75.0192 136.119 73.1401 131.475 80.1196C131.475 80.1196 128.923 77.8021 122.365 76.2011C122.192 76.1586 122.015 76.1181 121.837 76.0756C121.957 77.5607 120.974 78.7561 119.782 79.7777V79.7758Z" fill="#8D95FF"/>
<path d="M119.782 79.7762C119.782 79.7762 124.864 86.2264 132.468 86.3365C132.473 86.2458 132.45 86.1589 132.39 86.0913C130.533 85.5409 128.673 84.9885 126.9 84.2122C125.128 83.4358 123.437 82.4239 122.074 81.0566C121.823 80.8055 121.58 80.5371 121.442 80.2126C121.306 79.8862 121.289 79.4903 121.483 79.1968C121.674 78.9032 122.023 78.7565 122.285 78.5247C122.78 78.0825 122.88 77.3988 122.629 76.8098C122.54 76.5974 122.456 76.3946 122.365 76.2034C122.192 76.1609 122.015 76.1203 121.837 76.0779C121.957 77.563 120.974 78.7584 119.782 79.78V79.7762Z" fill="#757BFF"/>
<path d="M150.712 92.2611C150.512 92.4928 150.168 93.4526 149.702 94.6751C148.784 97.0853 147.397 100.517 145.715 101.396C137.403 105.737 135.467 95.4669 128.33 96.8844C128.413 96.4904 128.506 96.0849 128.607 95.6755C130.794 86.73 136.725 74.5285 142.361 74.909C152.6 75.5965 159.991 81.5176 150.71 92.2611H150.712Z" fill="#8D95FF"/>
<path d="M149.702 94.6751C148.784 97.0853 147.397 100.517 145.715 101.396C137.403 105.737 135.467 95.4669 128.33 96.8845C128.413 96.4905 128.506 96.0849 128.607 95.6755C128.924 95.5287 129.297 95.523 129.642 95.5442C131.439 95.6562 133.115 96.3572 134.698 97.1471C136.281 97.9389 137.819 98.8311 139.514 99.3738C141.208 99.9165 143.111 100.086 144.82 99.4163C146.304 98.835 147.477 97.6936 148.452 96.4577C148.898 95.8899 149.339 95.3009 149.702 94.6771V94.6751Z" fill="#757BFF"/>
<path d="M141.843 102.665C139.345 102.665 137.491 101.205 135.675 99.7773C133.506 98.0721 131.459 96.4614 128.365 97.0755C128.301 97.0891 128.235 97.0678 128.188 97.0215C128.142 96.9751 128.122 96.9095 128.136 96.8457C129.73 89.3661 134.092 79.5535 138.631 76.0792C138.716 76.0136 138.839 76.029 138.903 76.114C138.969 76.199 138.951 76.3206 138.868 76.3844C134.455 79.7602 130.204 89.2695 128.577 96.6449C131.688 96.1505 133.836 97.8403 135.914 99.4741C138.594 101.581 141.124 103.572 145.62 101.224C145.799 101.131 145.981 101.002 146.162 100.84C146.242 100.768 146.364 100.776 146.436 100.855C146.508 100.934 146.5 101.056 146.42 101.127C146.215 101.309 146.007 101.457 145.801 101.564C144.304 102.346 143.002 102.663 141.841 102.663L141.843 102.665Z" fill="#112544"/>
<path d="M144.041 70.3939C142.926 73.3062 145.56 73.93 145.719 73.9512C145.719 73.9512 145.288 74.9864 145.243 75.3533C144.997 77.3347 146.743 78.0879 149.252 76.4097L151.806 70.6759C152.736 68.5534 147.22 64.1831 146.119 67.2228C145.496 67.9393 145.02 68.5824 144.665 69.1579C144.387 69.6098 144.181 70.0212 144.039 70.3939H144.041Z" fill="#FCBBA4"/>
<path d="M145.05 75.33C145.064 75.2238 145.161 75.1504 145.268 75.162C145.374 75.1755 145.45 75.272 145.437 75.3783C145.174 77.4814 147.134 77.5953 149.144 76.2512C149.233 76.1913 149.354 76.2145 149.414 76.3033C149.474 76.3922 149.451 76.5119 149.361 76.5718C146.598 78.4199 144.798 77.379 145.052 75.3319L145.05 75.33Z" fill="#112544"/>
<path d="M145.409 65.8688C145.289 66.5428 145.268 67.3037 145.394 68.1071L146.12 67.2207C146.12 67.2207 146.812 68.7232 149.783 68.9047C152.756 69.0862 151.339 70.0441 150.979 70.3454C150.737 70.5501 150.28 71.0407 151.306 71.5679C151.09 71.6683 150.744 72.1955 150.754 72.5683C150.754 72.5683 151.739 71.1256 152.469 72.2689C152.541 72.3829 152.613 72.5258 152.679 72.6957C152.679 72.6957 155.574 70.4903 153.982 69.1442C153.982 69.1442 155.532 68.1766 154.718 67.0044C154.718 67.0044 153.702 65.7201 152.127 66.7147C152.127 66.7147 153.063 65.3899 151.626 64.4822C150.189 63.5745 149.041 65.4768 149.041 65.4768C149.041 65.4768 148.647 63.8217 147.715 63.2868C146.86 62.7943 145.747 63.9897 145.409 65.865V65.8688Z" fill="#112544"/>
<path d="M147.922 70.2858C147.875 70.4016 147.92 70.531 148.023 70.5716C148.125 70.6121 148.248 70.5523 148.294 70.4345C148.341 70.3186 148.296 70.1892 148.193 70.1486C148.091 70.1081 147.968 70.168 147.922 70.2858Z" fill="#112544"/>
<path d="M149.166 69.8912C149.11 70.0013 148.882 69.9975 148.568 69.8333C148.253 69.6692 147.966 69.4065 148.024 69.2984C148.082 69.1883 148.461 69.2713 148.777 69.4355C149.092 69.5996 149.226 69.7812 149.168 69.8912H149.166Z" fill="#112544"/>
<path d="M145.68 69.2002C145.633 69.3161 145.678 69.4455 145.781 69.486C145.884 69.5266 146.006 69.4667 146.053 69.3489C146.099 69.2331 146.055 69.1037 145.952 69.0631C145.849 69.0225 145.726 69.0824 145.68 69.2002Z" fill="#112544"/>
<path d="M145.737 68.2303C145.678 68.3384 145.807 68.5238 146.119 68.6919C146.432 68.8599 146.811 68.9487 146.871 68.8406C146.931 68.7305 146.648 68.4659 146.335 68.2979C146.022 68.1299 145.797 68.1221 145.737 68.2322V68.2303Z" fill="#112544"/>
<path d="M152.311 73.6136C151.793 74.162 150.979 74.2373 150.493 73.7835C150.008 73.3297 150.033 72.5147 150.554 71.9662C151.072 71.4177 151.89 71.3405 152.375 71.7963C152.861 72.2501 152.832 73.0651 152.313 73.6136H152.311Z" fill="#FCBBA4"/>
<path d="M146.448 70.9848C146.322 70.9674 145.935 70.9153 145.883 70.6159C145.809 70.1891 146.632 69.6947 147.13 69.4379C147.225 69.3877 147.341 69.4263 147.392 69.5209C147.44 69.6155 147.403 69.7314 147.308 69.7816C146.803 70.0423 146.326 70.3938 146.271 70.5406C146.294 70.556 146.359 70.5831 146.5 70.6024C146.607 70.6159 146.681 70.7144 146.667 70.8206C146.654 70.9268 146.555 71.0002 146.448 70.9867V70.9848Z" fill="#E2805D"/>
<path d="M144.737 71.3709C144.724 71.2647 144.799 71.1682 144.906 71.1566C145.013 71.145 145.108 71.2184 145.122 71.3246C145.188 71.8228 145.6 72.1666 146.33 71.9909C146.435 71.9658 146.54 72.0295 146.565 72.1338C146.59 72.2381 146.526 72.3423 146.421 72.3674C145.423 72.6089 144.819 72.0565 144.735 71.3748L144.737 71.3709Z" fill="#E2805D"/>
<path d="M145.716 73.9516C145.716 73.9516 146.446 74.2915 148.109 73.8454C148.299 73.7952 148.447 74.0096 148.328 74.166C147.945 74.672 147.068 75.317 145.392 74.8033L145.716 73.9516Z" fill="#E2805D"/>
<path d="M151.2 72.7787C151.156 72.6821 151.2 72.5663 151.297 72.5238L151.622 72.3789C151.721 72.3365 151.835 72.3789 151.878 72.4755C151.923 72.5721 151.878 72.6879 151.781 72.7304L151.457 72.8753C151.357 72.9197 151.243 72.8753 151.2 72.7787Z" fill="#E2805D"/>
<path d="M139.766 108.109C138.616 107.651 137.882 107.002 137.581 106.176C137.181 105.079 137.705 104.088 137.728 104.048C137.779 103.953 137.897 103.918 137.991 103.968C138.086 104.019 138.121 104.136 138.07 104.229C138.07 104.229 137.604 105.114 137.948 106.048C138.21 106.763 138.87 107.336 139.911 107.75C140.01 107.79 140.059 107.902 140.02 108.001C139.981 108.097 139.869 108.148 139.768 108.109H139.766Z" fill="#112544"/>
<path d="M89.2011 75.2338C89.2011 75.2338 96.1576 78.1132 97.7773 86.6744C97.7773 86.6744 105.406 86.039 110.851 88.2058C110.426 89.7083 110.385 91.2263 110.832 92.7654C110.832 92.7654 102.644 97.3927 93.3047 94.069C85.3169 91.2263 86.22 79.579 86.22 79.579L89.2011 75.2376V75.2338Z" fill="#FC6054"/>
<path d="M133.731 71.2783L133.727 73.0512L133.719 76.6858C133.719 77.4602 133.084 78.0898 132.303 78.0878L94.8717 78.0145C94.093 78.0145 93.4599 77.383 93.4618 76.6066V76.0968L93.4715 71.1992C93.4715 70.4228 94.1066 69.7952 94.8873 69.7971L132.321 69.8705C133.1 69.8705 133.731 70.502 133.731 71.2783Z" fill="white"/>
<path d="M133.727 73.0517L133.719 76.6863C133.719 77.4607 133.084 78.0903 132.303 78.0883L94.8717 78.0149C94.093 78.0149 93.4599 77.3834 93.4618 76.6071V76.0972C100.319 75.8481 107.157 76.8234 114.015 76.9817C117.662 77.0667 121.333 76.9045 124.922 76.2266C126.697 75.8887 128.45 75.4271 130.146 74.8014C131.189 74.4171 132.362 74.1795 133.243 73.463C133.412 73.3259 133.572 73.1869 133.727 73.0517Z" fill="#E1E5FF"/>
<path d="M130.997 78.0862L130.989 82.4894L130.962 96.6105C130.958 98.0164 129.812 99.152 128.4 99.15L98.6924 99.0902C97.2786 99.0863 96.1367 97.9469 96.1386 96.5429L96.1444 93.1401L96.1755 78.0166L130.997 78.0862Z" fill="white"/>
<path d="M130.989 82.4893L130.962 96.6105C130.958 98.0164 129.812 99.152 128.4 99.15L98.6924 99.0902C97.2786 99.0863 96.1367 97.9469 96.1386 96.5429L96.1444 93.1401C96.4396 93.0049 96.7484 92.8909 97.0592 92.7982C98.8129 92.2807 100.689 92.3734 102.507 92.5781C106.268 92.9991 109.974 93.8701 113.749 94.1462C117.525 94.4205 121.479 94.0458 124.751 92.1551C126.064 91.3923 127.229 90.3881 128.191 89.2177C129.043 88.1807 129.739 87.0123 130.242 85.7686C130.659 84.7334 130.669 83.5245 130.993 82.4932L130.989 82.4893Z" fill="#E1E5FF"/>
<path d="M132.306 78.2807H132.302L94.8684 78.2054C93.9828 78.2054 93.2642 77.4851 93.2662 76.6044L93.2759 71.197C93.2759 70.3183 93.9983 69.6037 94.882 69.6037H94.8859L132.319 69.679C133.207 69.679 133.924 70.3955 133.922 71.28L133.912 76.6875C133.912 77.57 133.191 78.2807 132.306 78.2807ZM94.882 69.99C94.212 69.99 93.6662 70.5307 93.6643 71.1989L93.6546 76.6064C93.6546 77.2746 94.1984 77.8192 94.8703 77.8192L132.304 77.8945H132.306C132.976 77.8945 133.522 77.3557 133.524 76.6855L133.533 71.2781C133.533 70.6099 132.991 70.0653 132.317 70.0653L94.8839 69.99H94.882Z" fill="#112544"/>
<path d="M128.405 99.3433H128.399L98.6891 99.2834C97.1723 99.2815 95.9411 98.0513 95.943 96.543L95.978 78.0167C95.978 77.9105 96.0653 77.8236 96.1722 77.8236L130.996 77.8931C131.102 77.8931 131.19 77.98 131.19 78.0863L131.155 96.6125C131.151 98.1227 129.922 99.3433 128.405 99.3433ZM96.3683 78.2099L96.3334 96.543C96.3314 97.8388 97.3879 98.8952 98.691 98.8972L128.401 98.957H128.405C129.71 98.957 130.764 97.9084 130.766 96.6125L130.801 78.2794L96.3664 78.2099H96.3683Z" fill="#112544"/>
<path d="M117.884 78.0591L117.88 80.2742L117.843 99.1269L109.25 99.1114L109.254 97.2478L109.289 78.0417L117.884 78.0591Z" fill="#FFC25E"/>
<path d="M117.88 80.2739L117.843 99.1265L109.25 99.1111L109.254 97.2474C112.105 95.716 114.231 93.0045 115.544 90.0401C116.076 88.835 116.492 87.5778 116.82 86.3032C117.111 85.1715 117.337 84.0243 117.519 82.8695C117.61 82.292 117.694 81.7127 117.768 81.1333C117.803 80.8648 117.807 80.5539 117.88 80.2739Z" fill="#EFA130"/>
<path d="M117.842 99.3194L109.248 99.304C109.142 99.304 109.054 99.2171 109.054 99.1109L109.095 78.0412C109.095 77.935 109.182 77.8481 109.289 77.8481L117.883 77.8635C117.99 77.8635 118.077 77.9504 118.077 78.0566L118.036 99.1263C118.036 99.2325 117.949 99.3194 117.842 99.3194ZM109.443 98.9177L117.648 98.9332L117.687 78.2497L109.481 78.2343L109.443 98.9177Z" fill="#112544"/>
<path d="M119.133 69.8453L119.127 73.4394L119.118 78.0608L108.055 78.0395L108.057 75.9364L108.071 69.8241L119.133 69.8453Z" fill="#FFC25E"/>
<path d="M119.127 73.4397L119.117 78.0611L108.053 78.0399L108.057 75.9368C108.503 75.8248 108.97 75.7726 109.428 75.7436C111.083 75.6374 112.747 75.8132 114.398 75.6664C116.05 75.5196 117.757 74.9943 118.861 73.7661C118.954 73.6618 119.043 73.5536 119.127 73.4397Z" fill="#EFA130"/>
<path d="M119.116 78.254L108.054 78.2328C107.947 78.2328 107.86 78.1459 107.86 78.0396L107.875 69.8242C107.875 69.7721 107.897 69.7238 107.932 69.6871C107.969 69.6504 108.017 69.6311 108.07 69.6311L119.132 69.6523C119.238 69.6523 119.326 69.7392 119.326 69.8454L119.31 78.0609C119.31 78.1671 119.223 78.254 119.116 78.254ZM108.248 77.8465L118.922 77.8658L118.937 70.0366L108.264 70.0173L108.248 77.8465Z" fill="#112544"/>
<path d="M116.494 70.0308C116.387 70.0231 116.308 69.9304 116.315 69.8242C116.436 68.2425 116.842 66.6338 118.271 65.9482C119.351 65.4307 120.565 65.7281 121.641 66.01C121.924 66.0853 122.219 66.1626 122.509 66.2225C124.562 66.6473 125.583 65.7841 125.707 64.888C125.723 64.7818 125.82 64.7084 125.927 64.7238C126.034 64.7393 126.107 64.8358 126.092 64.9421C125.935 66.0699 124.719 67.0761 122.429 66.601C122.128 66.5392 121.829 66.46 121.54 66.3847C120.561 66.1278 119.415 65.8285 118.438 66.2978C117.143 66.9177 116.809 68.4434 116.7 69.8551C116.692 69.9613 116.599 70.0405 116.492 70.0328L116.494 70.0308Z" fill="#112544"/>
<path d="M110.407 69.8415C110.305 68.4259 109.974 66.9022 108.683 66.2784C107.708 65.8072 106.545 66.1046 105.579 66.3537C105.29 66.429 104.991 66.5063 104.69 66.5661C102.379 67.0335 101.183 65.9906 101.033 64.8937C101.019 64.7875 101.093 64.6909 101.2 64.6774C101.307 64.6639 101.404 64.7373 101.418 64.8435C101.538 65.7357 102.548 66.6086 104.612 66.1895C104.902 66.1297 105.197 66.0543 105.482 65.981C106.554 65.7029 107.768 65.4055 108.854 65.9308C110.287 66.6241 110.681 68.2424 110.796 69.8144C110.804 69.9207 110.722 70.0134 110.615 70.0211C110.503 70.0288 110.415 69.9438 110.407 69.8415Z" fill="#112544"/>
<path d="M113.107 69.7304C113.163 69.7342 113.323 69.769 113.445 69.7748C113.29 69.7845 113.049 69.7381 112.907 69.7149C112.973 69.7188 113.041 69.7265 113.107 69.7304Z" fill="#FC6054"/>
<path d="M112.874 69.9046C112.771 69.8872 112.701 69.7945 112.713 69.6922C112.724 69.5898 112.816 69.5164 112.918 69.5222C113.194 69.5435 113.101 69.5358 113.12 69.5377C113.198 69.5435 113.34 69.5763 113.451 69.5802C113.554 69.584 113.637 69.669 113.637 69.7714C113.637 69.8737 113.557 69.9606 113.455 69.9664C113.28 69.9761 113.051 69.9336 112.874 69.9046Z" fill="#112544"/>
<path d="M113.603 69.685C113.589 69.5826 113.479 69.4088 113.452 69.3509C113.16 68.7078 112.869 68.0666 112.578 67.4235C112.411 67.0566 112.244 66.6897 112.078 66.3227C111.647 65.3745 111.142 64.322 110.084 64.0149C109.222 63.7677 108.357 64.1907 108.218 65.2161C108.173 65.5387 108.204 65.865 108.258 66.1856C108.484 67.5394 109.148 68.8411 110.42 69.3528C110.791 69.5015 111.187 69.5672 111.585 69.6077C111.44 69.5962 111.294 69.5846 111.146 69.573C108.204 69.3451 105.875 68.3582 105.163 64.1057C104.988 63.0705 104.988 61.9504 105.726 61.1992C106.309 60.6063 107.247 60.4499 108.047 60.6816C108.845 60.9114 109.513 61.4792 110.01 62.1436C110.505 62.8079 110.853 63.5688 111.195 64.3239C111.457 64.9033 111.719 65.4826 111.981 66.062C112.442 67.0759 112.902 68.0898 113.36 69.1037C113.409 69.2061 113.619 69.5363 113.599 69.6869L113.603 69.685Z" fill="#8D95FF"/>
<path d="M109.997 62.1297C109.667 61.8729 109.3 61.672 108.898 61.5542C108.099 61.3244 107.159 61.4789 106.579 62.0737C106.219 62.4387 106.021 62.9408 105.951 63.4507C105.882 63.9586 105.93 64.4742 106.016 64.9802C106.19 66.0192 106.515 67.0428 107.076 67.9369C107.177 68.0972 107.284 68.2536 107.4 68.4043C106.099 67.344 105.441 65.7566 105.165 64.1054C104.99 63.0644 104.992 61.952 105.728 61.1969C106.311 60.604 107.249 60.4476 108.047 60.6794C108.839 60.9072 109.504 61.4692 109.999 62.1278L109.997 62.1297Z" fill="#757BFF"/>
<path d="M113.409 69.712C113.401 69.656 113.296 69.4841 113.273 69.43C112.995 68.8198 112.717 68.2076 112.442 67.5954L111.9 66.4019C111.494 65.5058 111.008 64.4842 110.029 64.2003C109.301 63.9917 108.536 64.3181 108.41 65.2412C108.373 65.498 108.386 65.78 108.451 66.1508C108.664 67.4351 109.286 68.6865 110.492 69.1712C110.87 69.3238 111.284 69.3817 111.604 69.4146C111.709 69.4262 111.787 69.5189 111.777 69.6231C111.768 69.7274 111.676 69.8047 111.57 69.7989L111.131 69.7641C107.905 69.5131 105.675 68.3408 104.97 64.1365C104.784 63.0396 104.797 61.8673 105.586 61.062C106.188 60.4479 107.175 60.2258 108.099 60.4942C109.066 60.7723 109.756 61.4811 110.163 62.0276C110.672 62.7094 111.028 63.4896 111.369 64.2428L113.537 69.0225C113.547 69.0419 113.564 69.0728 113.583 69.1114C113.71 69.3412 113.813 69.544 113.791 69.7081C113.764 69.9302 113.438 69.9341 113.407 69.7081L113.409 69.712ZM105.866 61.3343C105.176 62.0392 105.192 63.1091 105.355 64.0747C105.79 66.6703 107.126 68.7966 109.791 69.235C108.781 68.5533 108.266 67.4158 108.066 66.2165C107.994 65.8032 107.983 65.4865 108.023 65.1891C108.179 64.0535 109.161 63.5494 110.136 63.8295C110.459 63.9222 110.732 64.0863 110.958 64.2737C110.641 63.5784 110.309 62.8696 109.853 62.2594C109.48 61.7611 108.854 61.1161 107.992 60.867C107.246 60.6507 106.38 60.809 105.866 61.3343Z" fill="#112544"/>
<path d="M112.891 69.7141C112.396 69.6754 111.926 69.6426 111.584 69.6078C112.801 69.7005 112.831 69.7044 112.891 69.7141Z" fill="#FC6054"/>
<path d="M112.875 69.9071C112.347 69.8666 111.896 69.8357 111.562 69.8009C111.457 69.7893 111.38 69.6966 111.389 69.5924C111.399 69.4861 111.494 69.4089 111.597 69.4166C112.751 69.5054 112.85 69.5132 112.92 69.5228C113.023 69.5383 113.094 69.6329 113.083 69.7353C113.071 69.8357 112.982 69.9129 112.875 69.9052V69.9071Z" fill="#112544"/>
<path d="M113.604 69.6882C113.617 69.7735 113.541 69.7812 113.446 69.7735C113.522 69.7696 113.594 69.758 113.604 69.6882Z" fill="#FC6054"/>
<path d="M113.431 69.9664C113.328 69.9587 113.25 69.8737 113.25 69.7714C113.25 69.669 113.332 69.586 113.435 69.5802C113.437 69.5802 113.439 69.5802 113.441 69.5802C113.476 69.528 113.536 69.4952 113.602 69.4952C113.878 69.5049 113.905 69.9993 113.431 69.9664ZM113.456 69.6092C113.417 69.6478 113.406 69.6922 113.412 69.7192L113.45 69.7134L113.458 69.6092H113.456Z" fill="#112544"/>
<path d="M114.098 69.7892C114.166 69.7854 114.234 69.7796 114.302 69.7738C114.158 69.795 113.917 69.8394 113.762 69.8317C113.884 69.8278 114.042 69.7931 114.098 69.7892Z" fill="#FC6054"/>
<path d="M113.751 70.0245C113.648 70.0187 113.567 69.9337 113.567 69.8294C113.567 69.7251 113.65 69.6421 113.753 69.6382C113.924 69.6324 113.871 69.6092 114.287 69.5803C114.392 69.5725 114.481 69.6498 114.493 69.7522C114.505 69.8545 114.431 69.9491 114.328 69.9646L114.252 69.9762C114.103 69.9994 113.901 70.0322 113.749 70.0245H113.751Z" fill="#112544"/>
<path d="M120.993 67.1469C119.68 69.2153 118.097 69.4895 116.058 69.6402C115.913 69.6498 115.769 69.6614 115.625 69.673C116.021 69.6324 116.419 69.5687 116.788 69.4219C117.41 69.1747 117.925 68.6958 118.282 68.1338C118.639 67.5699 118.847 66.921 118.96 66.2624C119.014 65.9438 119.047 65.6155 119.004 65.293C118.96 64.9704 118.835 64.6518 118.61 64.42C118.243 64.0435 117.649 63.943 117.142 64.0859C116.635 64.2308 116.212 64.5881 115.895 65.0071C115.579 65.4262 115.357 65.9071 115.14 66.3841C114.973 66.751 114.806 67.116 114.637 67.483C114.341 68.1241 114.048 68.7653 113.755 69.4065C113.728 69.4625 113.615 69.6402 113.601 69.7425C113.58 69.5957 113.796 69.2636 113.844 69.1593C114.308 68.1473 114.771 67.1334 115.235 66.1234L116.031 64.3872C116.717 62.8866 117.523 61.2335 119.193 60.7546C120.529 60.3741 121.914 61.0192 122.135 62.6607C122.273 63.7055 121.886 65.7313 120.993 67.145V67.1469Z" fill="#8D95FF"/>
<path d="M120.989 67.147C120.398 68.0778 119.571 68.8291 118.511 69.2288C119.037 68.8349 119.484 68.3347 119.837 67.7785C120.4 66.8882 120.729 65.8646 120.907 64.8276C120.995 64.3216 121.045 63.8059 120.979 63.2961C120.911 62.7882 120.713 62.2861 120.356 61.9172C119.777 61.3224 118.839 61.1621 118.039 61.39C118.023 61.3938 118.008 61.3996 117.996 61.4035C118.351 61.1138 118.754 60.884 119.192 60.7585C120.521 60.3819 121.905 61.0095 122.135 62.6646C122.271 63.7152 121.88 65.7468 120.991 67.147H120.989Z" fill="#757BFF"/>
<path d="M113.602 69.9357C113.505 69.9357 113.424 69.8662 113.41 69.7715C113.377 69.5437 113.612 69.1999 113.668 69.0802L115.855 64.3081C116.564 62.7554 117.397 61.0694 119.139 60.5712C120.582 60.1618 122.087 60.8628 122.326 62.6376C122.47 63.7307 122.074 65.8009 121.157 67.2494C119.803 69.3834 118.153 69.6788 116.073 69.8314C115.927 69.8411 115.785 69.8527 115.64 69.8642C115.533 69.8739 115.44 69.7947 115.43 69.6904C115.42 69.5842 115.498 69.4915 115.603 69.4799C115.943 69.4452 116.343 69.3892 116.714 69.2424C117.259 69.0261 117.756 68.5935 118.116 68.0296C118.425 67.541 118.644 66.9346 118.766 66.2297C118.83 65.855 118.844 65.575 118.811 65.3181C118.782 65.0999 118.696 64.789 118.469 64.5553C118.176 64.254 117.663 64.1401 117.193 64.2714C116.663 64.422 116.279 64.8179 116.049 65.1231C115.744 65.5286 115.525 66.0037 115.315 66.4653L114.812 67.5641C113.853 69.6499 113.954 69.4529 113.89 69.5668C113.865 69.6112 113.799 69.7291 113.793 69.7715C113.767 69.9376 113.581 69.9454 113.6 69.9376L113.602 69.9357ZM117.595 63.8292C118.04 63.8292 118.461 63.9894 118.749 64.2849C119.05 64.5939 119.159 64.9898 119.197 65.266C119.248 65.6464 119.197 66.0153 119.151 66.2934C119.019 67.0504 118.782 67.7032 118.446 68.2343C118.168 68.6727 117.813 69.0377 117.415 69.3042C118.799 69.0821 119.945 68.4313 120.827 67.0427C121.701 65.6619 122.068 63.6592 121.94 62.6878C121.734 61.1525 120.438 60.6021 119.244 60.942C117.692 61.3862 116.896 62.9601 116.265 64.3371C116.492 64.1536 116.764 63.9914 117.086 63.8987C117.255 63.8504 117.426 63.8272 117.595 63.8272V63.8292Z" fill="#112544"/>
<path d="M113.764 69.8316C113.698 69.8355 113.641 69.8316 113.618 69.8084C113.604 69.7948 113.601 69.7716 113.604 69.7445C113.616 69.8161 113.684 69.8278 113.764 69.8316Z" fill="#FC6054"/>
<path d="M113.409 69.721C113.431 69.5395 113.668 69.4873 113.765 69.638C114.017 69.6495 114.015 70.0088 113.775 70.0242C113.503 70.0435 113.39 69.9025 113.409 69.7229V69.721ZM113.757 69.7596L113.796 69.7635C113.796 69.7519 113.792 69.7075 113.753 69.6689C113.753 69.6689 113.751 69.6669 113.749 69.665L113.755 69.7577L113.757 69.7596Z" fill="#112544"/>
<path d="M115.625 69.6725C115.281 69.7054 114.84 69.7343 114.314 69.773C114.384 69.7614 114.481 69.7556 115.625 69.6725Z" fill="#FC6054"/>
<path d="M114.12 69.7946C114.108 69.6923 114.18 69.5976 114.283 69.5822C114.36 69.5706 114.312 69.5745 115.611 69.4798C115.72 69.474 115.809 69.5513 115.819 69.6556C115.829 69.7618 115.749 69.8545 115.644 69.8641C115.302 69.897 114.879 69.924 114.329 69.9646C114.226 69.9723 114.133 69.8989 114.122 69.7946H114.12Z" fill="#112544"/>
<path d="M110.694 69.8279C110.698 68.2327 112.003 66.9408 113.607 66.9446C115.213 66.9485 116.512 68.2443 116.508 69.8395L110.694 69.8279Z" fill="#8D95FF"/>
<path d="M116.51 69.8395H115.964C115.669 68.5591 114.518 67.607 113.139 67.6032C112.302 67.6032 111.548 67.9527 111.018 68.5147C111.5 67.5819 112.48 66.9427 113.609 66.9446C115.215 66.9485 116.512 68.2443 116.51 69.8395Z" fill="#757BFF"/>
<path d="M116.509 70.0327C112.977 70.0269 114.396 70.0289 110.695 70.0212C110.588 70.0212 110.501 69.9342 110.501 69.828C110.501 69.0053 110.827 68.2309 111.413 67.6496C112 67.0702 112.777 66.7516 113.602 66.7516H113.608C114.437 66.7516 115.214 67.076 115.801 67.6593C116.385 68.2425 116.706 69.0169 116.706 69.8415C116.706 69.9478 116.618 70.0347 116.511 70.0347L116.509 70.0327ZM110.895 69.6368L116.307 69.6465C116.263 68.9995 115.989 68.3951 115.523 67.9316C115.012 67.4217 114.33 67.1398 113.606 67.1378H113.6C112.878 67.1378 112.198 67.4179 111.685 67.9238C111.217 68.3873 110.941 68.9879 110.893 69.6349L110.895 69.6368Z" fill="#112544"/>
<path d="M102.125 94.3452C102.624 94.5751 103.841 94.4727 104.364 94.4379C105.682 94.353 106.071 93.9725 105.768 93.6056C105.671 93.4878 105.556 93.4241 105.395 93.3912C106.286 93.3178 106.772 92.8505 106.527 92.5531C106.416 92.4198 106.238 92.3464 105.997 92.3117C106.846 92.2286 107.23 91.7516 106.986 91.4542C106.867 91.3113 106.58 91.2418 106.24 91.2147C106.939 91.1124 107.489 91.0158 107.349 90.5349C107.127 89.7644 104.471 90.1931 104.471 90.1931C104.471 90.1931 105.869 88.567 105.426 88.1634C104.894 87.6787 102.756 88.8065 102.179 89.3202C101.185 90.2066 99.1046 92.9586 102.125 94.3452Z" fill="#FCBBA4"/>
<path d="M79.1348 135.846L79.4882 140.137L72.959 140.28L72.8619 134.969L79.1348 135.846Z" fill="#FCBBA4"/>
<path d="M83.5593 140.797C82.8096 140.378 81.8638 140.679 80.485 140.146C79.8344 139.895 79.6013 139.09 79.5372 138.306C79.5256 138.159 79.3819 138.062 79.2401 138.105C76.8785 138.792 74.8044 138.854 73.0779 138.155C72.9283 138.095 72.7652 138.202 72.7613 138.362L72.6487 142.437C72.6157 143.601 73.5401 144.573 74.7112 144.604L83.8797 144.804C84.2992 144.816 84.6546 144.503 84.6973 144.086C84.7964 143.12 84.7673 141.467 83.5612 140.795L83.5593 140.797Z" fill="white"/>
<path d="M83.8991 145C83.8991 145 83.8816 145 83.8719 145L74.7033 144.799C73.439 144.764 72.4156 143.721 72.4505 142.433L72.5632 138.358C72.5709 138.065 72.8719 137.866 73.1477 137.978C74.7694 138.634 76.8008 138.615 79.1837 137.922C79.4439 137.844 79.7081 138.026 79.7294 138.292C79.7819 138.932 79.9683 139.741 80.5548 139.969C81.9123 140.494 82.8484 140.181 83.6544 140.631C84.9633 141.363 84.9905 143.124 84.8895 144.111C84.8371 144.615 84.406 145.003 83.901 145.003L83.8991 145ZM72.9516 138.368L72.8389 142.443C72.8098 143.501 73.6488 144.384 74.713 144.413L83.8816 144.613C84.2059 144.625 84.4681 144.387 84.5011 144.069C84.5924 143.177 84.5788 141.589 83.4621 140.965C82.7804 140.585 81.7919 140.859 80.4111 140.326C79.7916 140.087 79.4303 139.413 79.341 138.321C79.3391 138.298 79.3177 138.283 79.2925 138.291C76.8241 139.011 74.7072 139.024 73.0021 138.335C72.9768 138.325 72.9535 138.345 72.9516 138.368Z" fill="#112544"/>
<path d="M67.208 131.465L64.1726 134.536L59.7971 129.713L63.7783 126.169L67.208 131.465Z" fill="#FCBBA4"/>
<path d="M66.3287 138.034C66.1578 137.196 65.311 136.68 64.8158 135.294C64.5886 134.658 65.0178 133.978 65.5499 133.426C65.6703 133.301 65.6412 133.094 65.4897 133.007C63.5029 131.875 62.2775 130.296 61.524 128.438C61.456 128.27 61.2424 128.218 61.1006 128.331L57.9486 130.89C57.0397 131.628 56.9057 132.957 57.6476 133.861L63.4855 140.894C63.7515 141.219 64.2215 141.28 64.5653 141.041C65.3654 140.485 66.6044 139.382 66.3287 138.034Z" fill="white"/>
<path d="M64.1043 141.377C63.815 141.377 63.5275 141.253 63.3333 141.016L57.4954 133.982C56.6798 132.988 56.841 131.539 57.8236 130.74L60.9756 128.181C61.2145 127.986 61.5835 128.071 61.702 128.364C62.5041 130.344 63.7742 131.808 65.5842 132.839C65.8464 132.988 65.8969 133.343 65.6891 133.559C65.2599 134.003 64.7918 134.654 64.9977 135.228C65.4851 136.591 66.3338 137.093 66.5183 137.995C66.8174 139.459 65.4929 140.63 64.6753 141.197C64.5025 141.317 64.3024 141.375 64.1043 141.375V141.377ZM61.2223 128.482L58.0703 131.041C57.2449 131.711 57.1226 132.918 57.7965 133.739L63.6324 140.772C63.8363 141.02 64.1878 141.068 64.452 140.884C65.1899 140.371 66.3902 139.322 66.1357 138.075C65.9784 137.302 65.1317 136.763 64.6306 135.361C64.4131 134.751 64.6734 134.056 65.4075 133.295C65.4405 133.26 65.4327 133.202 65.39 133.177C63.5023 132.101 62.1778 130.576 61.3408 128.513C61.3213 128.467 61.2611 128.451 61.2203 128.484L61.2223 128.482Z" fill="#112544"/>
<path d="M87.277 92.0605C87.277 92.0605 99.1043 110.546 89.324 118.194C78.0444 127.016 70.715 133.144 70.715 133.144C69.138 134.542 61.76 126.303 63.337 124.907L78.8833 110.471L75.4711 92.0605H87.2751H87.277Z" fill="white"/>
<path d="M65.6982 130.2C63.9368 128.234 62.2278 125.629 63.2085 124.762L78.6752 110.401L75.2824 92.0951C75.261 91.9773 75.3523 91.8672 75.4727 91.8672H87.2767C87.3427 91.8672 87.4049 91.9 87.4398 91.9561C87.4689 92.0024 90.4306 96.6644 92.1532 102.201C94.4488 109.582 93.5107 115.164 89.444 118.344C78.2946 127.062 70.9127 133.228 70.8389 133.29C69.6834 134.312 66.7295 131.355 65.6963 130.2H65.6982ZM75.7058 92.2535L79.0753 110.436C79.0869 110.502 79.0656 110.567 79.017 110.612L63.4707 125.048C63.1833 125.303 63.2959 125.973 63.7756 126.89C64.2475 127.792 65.0321 128.877 65.9876 129.943C66.9431 131.011 67.9375 131.913 68.7842 132.481C69.6465 133.06 70.3029 133.248 70.5865 132.998C70.6641 132.933 78.0518 126.764 89.2052 118.041C94.1691 114.159 93.3476 107.35 91.7862 102.321C90.2112 97.2515 87.5874 92.9217 87.1699 92.2515H75.7058V92.2535Z" fill="#112544"/>
<path d="M70.0185 92.0609C70.0185 92.0609 64.9497 101.696 72.1762 111.879L70.7798 135.56C70.8186 137.057 79.6648 137.057 80.6766 135.56C80.6766 135.56 88.9596 106.752 80.3271 92.0609H70.0185Z" fill="white"/>
<path d="M71.761 136.488C70.992 136.266 70.5958 135.955 70.5861 135.563L71.9786 111.935C68.2478 106.645 67.8614 101.512 68.1954 98.1321C68.5586 94.4551 69.7957 92.07 69.8481 91.9715C69.8811 91.9078 69.9471 91.8672 70.0209 91.8672H80.3295C80.3994 91.8672 80.4616 91.9039 80.4965 91.9638C84.9827 99.5979 84.8409 111.064 83.934 119.341C82.9513 128.292 80.8849 135.542 80.8655 135.613C80.8597 135.633 80.8519 135.652 80.8403 135.667C79.943 136.996 74.0449 137.151 71.763 136.49L71.761 136.488ZM70.1394 92.2535C69.9005 92.7517 68.8907 94.9997 68.578 98.1862C68.2517 101.508 68.6401 106.562 72.334 111.767C72.3592 111.803 72.3709 111.846 72.3689 111.89L70.9726 135.571C70.9784 135.747 71.3124 135.959 71.8679 136.119C74.212 136.797 79.7139 136.523 80.4985 135.476C80.648 134.949 82.6017 127.914 83.5456 119.293C84.4428 111.112 84.5885 99.7968 80.2149 92.2554H70.1375L70.1394 92.2535Z" fill="#112544"/>
<path d="M78.4984 136.616C78.3955 136.587 78.3353 136.481 78.3644 136.376C78.3858 136.305 80.423 129.115 81.4698 120.201C82.435 111.989 82.7321 100.593 78.6751 92.9393C78.6246 92.8447 78.6615 92.7288 78.7567 92.6786C78.8519 92.6284 78.9684 92.6651 79.0189 92.7597C83.1244 100.504 82.8273 111.985 81.8563 120.253C80.8056 129.196 78.7586 136.411 78.7392 136.483C78.7101 136.585 78.6013 136.645 78.4984 136.616Z" fill="#112544"/>
<path d="M93.0873 82.5878C92.6135 86.4406 89.545 96.2106 89.545 96.2106C89.545 96.2106 87.4145 94.0264 83.4896 93.2288C82.0991 92.9469 80.4833 92.8368 78.6577 93.0608C69.3998 94.1944 68.9998 94.264 69.0308 91.8538C69.0619 89.3586 69.7785 85.2007 71.3225 81.4194C73.2529 76.684 76.4768 72.5357 81.2756 72.9683C89.9062 73.7466 93.6758 77.8061 93.0854 82.5878H93.0873Z" fill="#FC6054"/>
<path d="M83.4922 93.2288C82.1017 92.9468 80.4859 92.8368 78.6603 93.0608C69.4025 94.1944 69.0024 94.2639 69.0335 91.8538C69.0645 89.3586 69.7812 85.2007 71.3251 81.4193C71.3523 81.5217 71.3756 81.6183 71.4008 81.7013C71.8475 83.198 71.999 84.7816 71.8495 86.3362C71.7621 87.2246 71.5795 88.1033 71.296 88.9511C70.993 89.8588 70.5929 90.9055 71.1115 91.7128C71.5504 92.4003 72.467 92.5799 73.2827 92.661C76.1201 92.9488 79.0021 92.8001 81.7968 92.2265C82.3561 92.1106 83.0494 92.0256 83.3893 92.4814C83.5544 92.7035 83.568 92.97 83.4922 93.2307V93.2288Z" fill="#E64B38"/>
<path d="M91.2545 89.3707C91.1535 89.3379 91.0972 89.2278 91.1302 89.1274C92.142 86.0606 92.7363 83.8513 92.8936 82.5651C93.148 80.4948 92.5518 78.5964 91.171 77.0727C91.0991 76.9935 91.1049 76.8718 91.1846 76.8004C91.2642 76.7289 91.3865 76.7347 91.4584 76.8139C92.9188 78.4226 93.5481 80.4272 93.2801 82.6114C93.1189 83.9227 92.5188 86.1572 91.4992 89.2471C91.4662 89.3495 91.3555 89.4035 91.2545 89.3707Z" fill="#112544"/>
<path d="M88.5927 73.5262L88.0975 75.5733C87.5479 77.8464 81.5236 74.7062 82.7587 72.6321L85.2116 68.59L85.6019 67.5954C86.3652 67.6785 85.9379 65.8187 86.235 65.1042C86.7827 64.9458 88.4063 65.9597 88.585 65.3765C88.6296 65.2316 88.6529 65.0848 88.6587 64.94C88.8044 65.0211 88.9617 65.0906 89.1307 65.1409C89.6181 65.2876 90.0998 65.2683 90.4727 65.1215C90.527 65.473 90.7756 65.7801 91.1407 65.8902C91.3272 65.9462 91.5175 65.9442 91.6923 65.8902C91.6923 65.9095 91.9797 69.4166 91.9389 70.6236C91.801 74.3837 88.5947 73.5262 88.5947 73.5262H88.5927Z" fill="#FCBBA4"/>
<path d="M85.9386 71.9568C86.2357 73.0499 87.5622 74.5601 88.2905 74.7726L88.5934 73.525C87.7836 73.2237 86.9737 72.6154 86.1639 71.8294C86.0668 71.7347 85.9056 71.8274 85.9405 71.9568H85.9386Z" fill="#E2805D"/>
<path d="M89.2861 62.7367C89.7192 62.391 90.6184 62.2732 91.1913 62.447C93.8442 63.2485 92.1759 65.564 92.1507 65.591C92.4459 65.7146 92.4517 66.0912 92.4304 66.3442C92.3896 66.8598 92.0808 67.2963 91.7778 67.0742L91.6904 65.8884C90.3873 68.6945 87.5052 63.4358 85.2136 68.5883L84.6659 69.4882C84.4892 69.3743 84.3377 69.2314 84.2173 69.0692C83.8969 68.6424 83.7803 68.0785 83.9474 67.53C84.0289 67.2654 84.1668 67.0337 84.3494 66.8425C84.0639 66.4253 83.1841 63.9379 86.0759 63.7892C85.6661 62.4219 87.2547 61.9024 88.1461 62.1728C88.484 62.2751 89.0744 62.4837 89.2842 62.7367H89.2861Z" fill="#112544"/>
<path d="M82.42 73.0282C82.4355 72.922 82.5326 72.8486 82.6394 72.864C82.7462 72.8795 82.82 72.976 82.8045 73.0823C82.5404 74.9768 87.481 77.329 87.9122 75.531L88.0908 74.7933C88.1161 74.689 88.2209 74.6253 88.3258 74.6504C88.4307 74.6755 88.4948 74.7798 88.4695 74.8841L88.2909 75.6218C87.7277 77.9721 82.0956 75.3727 82.4219 73.0301L82.42 73.0282Z" fill="#112544"/>
<path d="M89.0725 68.2409C89.0356 68.3876 88.8841 68.4784 88.7365 68.4417C88.5889 68.405 88.4976 68.2544 88.5345 68.1076C88.5714 67.9608 88.7229 67.8701 88.8705 67.9068C89.0181 67.9435 89.1094 68.0941 89.0725 68.2409Z" fill="#112544"/>
<path d="M89.4758 67.3312C89.5419 67.3506 89.6215 67.393 89.6137 67.4606C89.6079 67.5282 89.5224 67.5553 89.4545 67.563C89.0486 67.6074 88.5902 67.59 88.2018 67.4548C88.029 67.395 88.0251 67.2385 88.2018 67.1903C88.4931 67.1111 89.1554 67.2327 89.4758 67.3312Z" fill="#112544"/>
<path d="M91.2589 68.532C91.2142 68.6769 91.0589 68.7599 90.9132 68.7155C90.7676 68.6711 90.6841 68.5166 90.7287 68.3717C90.7734 68.2269 90.9288 68.1438 91.0744 68.1883C91.2201 68.2327 91.3036 68.3872 91.2589 68.532Z" fill="#112544"/>
<path d="M90.4608 67.4816C90.3928 67.4874 90.3054 67.5106 90.2977 67.5801C90.2899 67.6477 90.3676 67.6902 90.4317 67.7134C90.8201 67.8408 91.2706 67.92 91.6785 67.8698C91.861 67.8466 91.896 67.696 91.7348 67.611C91.4668 67.472 90.7929 67.4546 90.4589 67.4836L90.4608 67.4816Z" fill="#112544"/>
<path d="M87.4757 67.0355C87.2718 67.7037 86.561 68.0803 85.889 67.8775C85.219 67.6747 84.8384 66.9679 85.0423 66.2997C85.2462 65.6334 85.957 65.2549 86.629 65.4577C87.3009 65.6605 87.6796 66.3673 87.4757 67.0355Z" fill="#112544"/>
<path d="M86.2683 68.4957C86.1032 69.0345 85.5322 69.3377 84.9904 69.1735C84.4505 69.0094 84.1436 68.4416 84.3087 67.9028C84.4738 67.3659 85.0467 67.0608 85.5866 67.2249C86.1284 67.3891 86.4333 67.9588 86.2683 68.4957Z" fill="#FCBBA4"/>
<path d="M90.0635 70.0793C89.8673 70.0793 89.6634 69.9788 89.6071 69.9479C89.5119 69.8977 89.477 69.7799 89.5275 69.6872C89.578 69.5926 89.6964 69.5578 89.7897 69.608C89.8868 69.6583 90.0169 69.6988 90.0693 69.693C90.1703 69.5153 90.0557 68.9089 89.877 68.4319C89.8401 68.3315 89.8906 68.2214 89.9916 68.1828C90.0926 68.1461 90.2033 68.1963 90.2422 68.2967C90.3179 68.4995 90.6791 69.5308 90.3703 69.9383C90.2926 70.0426 90.18 70.0754 90.0654 70.0754L90.0635 70.0793Z" fill="#E2805D"/>
<path d="M102.107 94.3608C90.4702 96.7265 81.4104 94.1329 77.1476 87.5532C75.8192 85.5061 74.9589 83.0747 74.6248 80.286L78.1613 76.943C78.1613 76.943 84.0361 74.8805 87.7805 86.5161C87.7805 86.5161 92.2006 85.6393 97.5336 87.2712C99.0115 87.7231 100.563 88.3682 102.107 89.2797C101.319 90.9 101.427 92.0877 102.107 94.3627V94.3608Z" fill="#FC6054"/>
<path d="M102.107 94.3604C90.4699 96.7261 81.4101 94.1325 77.1472 87.5528C77.1919 87.5779 77.2366 87.605 77.2793 87.632C80.0545 89.3566 83.5561 91.6837 86.5818 92.9236C89.794 94.2406 93.4141 93.9394 96.871 93.6149C97.6128 93.5454 98.3702 93.472 99.048 93.1669C99.7278 92.8598 100.322 92.2747 100.435 91.5408C100.578 90.5906 99.8967 89.7196 99.1879 89.065C98.7509 88.6613 98.2848 88.279 97.9177 87.8097C97.8168 87.6803 97.6284 87.4659 97.5332 87.2689C99.0111 87.7208 100.563 88.3659 102.107 89.2774C101.318 90.8977 101.427 92.0854 102.107 94.3604Z" fill="#E64B38"/>
<path d="M94.12 95.3901C88.7851 95.3901 84.2134 94.1445 80.84 91.7131C77.2258 89.1079 75.0119 85.1643 74.4331 80.3092C74.4215 80.203 74.4972 80.1064 74.604 80.0948C74.7108 80.0832 74.8079 80.1586 74.8196 80.2648C75.3847 85.0098 77.5463 88.8607 81.0692 91.4022C85.9089 94.8919 93.2849 95.8884 101.861 94.214C101.267 92.1746 101.135 90.9329 101.857 89.3531C95.058 85.2512 87.8937 86.69 87.8218 86.7054C87.7247 86.7267 87.6276 86.6687 87.5965 86.576C85.6933 80.6645 83.2424 78.4089 81.5217 77.5611C79.6593 76.6418 78.2396 77.1227 78.226 77.1265C78.125 77.1632 78.0143 77.1091 77.9774 77.0087C77.9425 76.9083 77.9949 76.7982 78.0959 76.7615C78.16 76.7384 79.6864 76.2227 81.6946 77.2134C84.2659 78.4823 86.3594 81.5394 87.915 86.296C89.0725 86.1009 95.8271 85.1855 102.209 89.1137C102.294 89.1658 102.325 89.272 102.281 89.3628C101.5 90.9676 101.644 92.1341 102.292 94.3067C102.308 94.3589 102.3 94.4149 102.273 94.4612C102.244 94.5076 102.199 94.5404 102.145 94.5501C99.3306 95.112 96.6408 95.3901 94.12 95.3901Z" fill="#112544"/>
<path d="M86.0721 86.7073C85.977 86.7073 85.8935 86.6378 85.8799 86.5413C85.8643 86.435 85.9381 86.3385 86.0449 86.323C86.614 86.24 87.2063 86.24 87.8084 86.323C87.9152 86.3385 87.989 86.435 87.9734 86.5413C87.9579 86.6475 87.8608 86.7209 87.754 86.7054C87.1888 86.6282 86.6315 86.6282 86.0993 86.7054C86.0896 86.7054 86.0799 86.7073 86.0702 86.7073H86.0721Z" fill="#112544"/>
<path d="M73.4192 101.288C73.3978 101.183 73.4658 101.081 73.5726 101.06C74.6311 100.851 75.4098 100.353 75.8818 99.5824C76.88 97.9564 76.2294 95.6292 76.2216 95.6061C76.1925 95.5037 76.2527 95.3975 76.3556 95.3666C76.4586 95.3376 76.5654 95.3975 76.5964 95.4998C76.6256 95.6022 77.3014 98.0143 76.2139 99.7852C75.6817 100.652 74.8175 101.21 73.6484 101.44C73.5416 101.462 73.4406 101.392 73.4192 101.288Z" fill="#112544"/>
<path d="M76.1375 140.316C74.2207 140.316 72.7661 139.598 72.6826 139.557C72.5874 139.509 72.5486 139.393 72.5971 139.298C72.6457 139.204 72.7622 139.165 72.8574 139.213C72.8826 139.227 75.5005 140.513 78.2544 139.596C78.3554 139.561 78.4661 139.617 78.501 139.717C78.536 139.818 78.4797 139.928 78.3787 139.963C77.5999 140.221 76.8367 140.318 76.1375 140.318V140.316Z" fill="#112544"/>
<path d="M65.2343 140.702C65.176 140.702 65.1197 140.677 65.0809 140.629L57.6311 131.158C57.565 131.073 57.5806 130.954 57.6641 130.888C57.7495 130.822 57.8699 130.838 57.936 130.921L65.3858 140.389C65.4518 140.474 65.4363 140.594 65.3528 140.66C65.3178 140.687 65.2751 140.7 65.2324 140.7L65.2343 140.702Z" fill="#112544"/>
<path d="M60.2393 129.033C60.2393 129.033 61.4472 132.439 63.8826 133.627L60.2393 129.033Z" fill="white"/>
<path d="M63.8804 133.82C63.8512 133.82 63.8221 133.814 63.7949 133.801C61.3168 132.592 60.105 129.239 60.0545 129.098C60.0195 128.998 60.0719 128.888 60.1729 128.851C60.2739 128.816 60.3846 128.868 60.4215 128.969C60.4332 129.002 61.6334 132.316 63.9658 133.453C64.0629 133.499 64.1018 133.615 64.0551 133.712C64.0221 133.779 63.9522 133.82 63.8804 133.82Z" fill="#112544"/>
<path d="M132.265 87.3132C132.265 87.3132 131.09 86.3457 130.295 85.8011C129.616 85.3356 127.355 85.0653 127.266 85.5867C127.184 86.0618 129.124 86.4519 129.124 86.4519C129.124 86.4519 126.806 86.0541 126.767 86.6122C126.728 87.1703 128.4 87.2302 128.4 87.2302C128.4 87.2302 126.627 87.2031 126.635 87.8211C126.642 88.3406 128.309 88.0509 128.309 88.0509C128.309 88.0509 126.596 88.2962 126.701 88.9181C126.807 89.5399 128.548 88.781 128.548 88.781C128.548 88.781 126.949 89.5032 127.019 89.9474C127.112 90.5364 129.266 90.324 131.385 91.3649C132.591 90.5654 132.944 89.0687 132.261 87.3132H132.265Z" fill="#FCBBA4"/>
<path d="M132.233 87.2858C132.233 87.2858 130.736 84.0858 129.615 84.6806C128.786 85.1209 130.402 87.2762 130.402 87.2762L132.231 87.2858H132.233Z" fill="#FCBBA4"/>
<path d="M152.393 89.2583C152.007 89.745 151.607 90.1853 151.193 90.5812C151.193 90.5812 151.192 90.5825 151.189 90.5851C149.395 92.3038 147.371 93.2424 145.483 93.8121C138.204 96.0021 131.394 91.3942 131.394 91.3942C132.219 90.0617 132.788 88.6268 132.221 87.2479C132.403 87.2324 132.586 87.2189 132.763 87.2073C133.429 87.161 134.06 87.1359 134.658 87.1262C140.09 87.0219 142.638 88.1884 142.638 88.1884C148.031 80.562 150.574 80.0135 153.351 81.2051C155.819 82.2634 154.825 86.1954 152.395 89.2583H152.393Z" fill="#8D95FF"/>
<path d="M151.892 89.3836C151.686 89.8008 151.453 90.2006 151.193 90.581C151.193 90.581 151.192 90.5823 151.189 90.5849C149.395 92.3037 147.371 93.2422 145.483 93.8119C138.204 96.002 131.394 91.394 131.394 91.394C132.219 90.0615 132.788 88.6266 132.221 87.2477C132.403 87.2323 132.586 87.2187 132.763 87.2071C133.429 87.1608 134.06 87.1357 134.658 87.126C134.86 87.6629 134.829 88.2288 134.4 88.7116C134.019 89.1384 133.396 89.374 133.208 89.9128C133.079 90.2759 133.2 90.6892 133.437 90.9924C133.672 91.2956 134.01 91.5041 134.355 91.676C135.517 92.2515 136.822 92.4659 138.113 92.5663C142.889 92.939 147.771 91.8131 151.892 89.3856V89.3836Z" fill="#757BFF"/>
<path d="M141.419 94.5882C135.851 94.5882 131.339 91.589 131.283 91.5523C131.198 91.4943 131.172 91.3785 131.227 91.2916C132.242 89.6481 132.493 88.4237 132.038 87.319C131.988 87.1974 132.071 87.0641 132.204 87.0525L132.293 87.0448C132.446 87.0332 132.598 87.0216 132.747 87.012C138.725 86.6064 141.863 87.6686 142.568 87.9486C147.497 81.0116 150.024 80.0286 152.492 80.6968C152.595 80.7239 152.658 80.8301 152.628 80.9344C152.599 81.0387 152.494 81.0985 152.389 81.0696C150.067 80.4419 147.651 81.4307 142.794 88.2982C142.739 88.3735 142.638 88.4005 142.553 88.3619C142.522 88.3484 139.368 86.9502 132.771 87.3982C132.677 87.404 132.582 87.4117 132.485 87.4194C132.943 88.8563 132.272 90.3028 131.654 91.3321C132.705 91.9868 138.917 95.5847 145.423 93.6264C148.301 92.7593 150.531 91.2916 152.236 89.1402C152.302 89.0571 152.424 89.0417 152.508 89.1073C152.591 89.173 152.607 89.2947 152.541 89.3777C150.783 91.5948 148.492 93.105 145.536 93.9953C144.134 94.4182 142.743 94.5882 141.415 94.5882H141.419Z" fill="#112544"/>
<path d="M90.0009 72.0687C89.2726 72.0687 88.6628 71.5627 88.3812 71.1958C88.3171 71.1108 88.3327 70.9911 88.4181 70.9254C88.5036 70.8597 88.624 70.8771 88.69 70.9602C88.7288 71.0084 89.628 72.1479 90.7 71.4642C90.7894 71.4063 90.9098 71.4333 90.9681 71.5221C91.0263 71.611 90.9991 71.7307 90.9098 71.7887C90.5971 71.9876 90.2903 72.0668 90.0028 72.0668L90.0009 72.0687Z" fill="#E2805D"/>
<path d="M85.2338 68.4495L85.0338 68.1811C84.9697 68.0961 84.9891 67.9744 85.0746 67.9107C85.16 67.847 85.2824 67.8663 85.3465 67.9512L85.5465 68.2197C85.6106 68.3047 85.5912 68.4263 85.5057 68.4901C85.4203 68.5538 85.2979 68.5345 85.2338 68.4495Z" fill="#E2805D"/>
<path d="M113.446 55.8137C113.339 55.8137 113.251 55.7268 113.251 55.6206V49.1819C113.251 49.0756 113.339 48.9887 113.446 48.9887C113.552 48.9887 113.64 49.0756 113.64 49.1819V55.6206C113.64 55.7268 113.552 55.8137 113.446 55.8137Z" fill="#CCD2FF"/>
<path d="M113.446 46.9592C113.339 46.9592 113.251 46.8723 113.251 46.766V45.9279C113.251 45.8217 113.339 45.7348 113.446 45.7348C113.552 45.7348 113.64 45.8217 113.64 45.9279V46.766C113.64 46.8723 113.552 46.9592 113.446 46.9592Z" fill="#CCD2FF"/>
<path d="M107.465 57.2681L105.575 54.1106C105.521 54.0198 105.55 53.9001 105.643 53.846C105.734 53.7919 105.855 53.8209 105.909 53.9136L107.799 57.0711C107.853 57.1619 107.824 57.2816 107.731 57.3357C107.638 57.3898 107.519 57.3589 107.465 57.2681Z" fill="#CCD2FF"/>
<path d="M104.177 51.6983L103.61 50.7211C103.556 50.6284 103.589 50.5106 103.682 50.4565C103.775 50.4025 103.894 50.4353 103.948 50.528L104.515 51.5052C104.57 51.5979 104.537 51.7157 104.443 51.7698C104.35 51.8238 104.232 51.791 104.177 51.6983Z" fill="#CCD2FF"/>
<path d="M102.338 61.1209L100.781 60.2268C100.687 60.1727 100.656 60.0549 100.709 59.9622C100.763 59.8695 100.882 59.8386 100.975 59.8907L102.532 60.7849C102.626 60.839 102.657 60.9568 102.604 61.0495C102.55 61.1422 102.431 61.1731 102.338 61.1209Z" fill="#CCD2FF"/>
<path d="M99.0915 59.2571L95.5492 57.1289C95.4579 57.0728 95.4288 56.955 95.4832 56.8643C95.5395 56.7735 95.6579 56.7445 95.7492 56.7986L99.2916 58.9268C99.3828 58.9828 99.412 59.1006 99.3576 59.1914C99.3013 59.2822 99.1828 59.3111 99.0915 59.2571Z" fill="#CCD2FF"/>
<path d="M125.197 60.4333C125.143 60.3406 125.176 60.2227 125.269 60.1687L128.001 58.6005C128.095 58.5464 128.213 58.5793 128.268 58.672C128.322 58.7647 128.289 58.8825 128.196 58.9365L125.463 60.5047C125.37 60.5588 125.251 60.5259 125.197 60.4333Z" fill="#CCD2FF"/>
<path d="M130.97 57.1194C130.916 57.0267 130.949 56.9089 131.042 56.8548L132.588 55.9665C132.681 55.9124 132.8 55.9452 132.854 56.0379C132.908 56.1306 132.875 56.2484 132.782 56.3025L131.236 57.1909C131.145 57.243 131.025 57.2141 130.97 57.1194Z" fill="#CCD2FF"/>
<path d="M119.16 57.3372C119.067 57.2831 119.036 57.1653 119.089 57.0726L119.772 55.8965C119.826 55.8038 119.945 55.7729 120.038 55.825C120.131 55.8791 120.162 55.9969 120.11 56.0896L119.426 57.2657C119.372 57.3584 119.254 57.3893 119.16 57.3372Z" fill="#CCD2FF"/>
<path d="M121.626 53.0925C121.533 53.0384 121.502 52.9206 121.554 52.8279L123.393 49.6607C123.448 49.568 123.566 49.5371 123.659 49.5893C123.753 49.6433 123.784 49.7611 123.731 49.8538L121.892 53.021C121.838 53.1137 121.719 53.1446 121.626 53.0925Z" fill="#CCD2FF"/>
<path d="M68.894 69.4019H67.1791C67.0723 69.4019 66.9849 69.315 66.9849 69.2087C66.9849 69.1025 67.0723 69.0156 67.1791 69.0156H68.6726C68.5755 68.191 68.3405 65.3154 69.5096 63.7685C70.8497 61.9937 74.1881 62.069 76.6099 68.1466C76.872 67.237 77.4702 65.5684 78.484 64.9118C78.8763 64.6588 79.2958 64.5757 79.7288 64.6684C79.8337 64.6916 79.8997 64.794 79.8784 64.8983C79.8551 65.0025 79.7541 65.0701 79.6473 65.047C79.3132 64.9755 79.0006 65.0373 78.6937 65.2362C77.4333 66.0512 76.8371 68.8071 76.8313 68.8341C76.7905 69.0234 76.5205 69.0465 76.4564 68.8553C75.062 64.7186 71.745 61.4471 69.8165 64.0002C68.5697 65.6495 69.0765 69.145 69.0824 69.1817C69.0998 69.2995 69.0086 69.4038 68.8901 69.4038L68.894 69.4019Z" fill="#CCD2FF"/>
</g>
</g>
<defs>
<linearGradient id="paint0_linear_2_2220" x1="108.044" y1="-28.2819" x2="125.219" y2="149.219" gradientUnits="userSpaceOnUse">
<stop stop-color="#C9B0FF"/>
<stop offset="1" stop-color="#ECF3FF"/>
</linearGradient>
<clipPath id="clip0_2_2220">
<rect width="163" height="140" rx="20" fill="white"/>
</clipPath>
<clipPath id="clip1_2_2220">
<rect width="97.9759" height="99.2651" fill="white" transform="translate(56.9812 45.7348)"/>
</clipPath>
</defs>
</svg>
