<svg width="163" height="140" viewBox="0 0 163 140" fill="none" xmlns="http://www.w3.org/2000/svg">
<g clip-path="url(#clip0_2_2584)">
<rect width="163" height="140" rx="20" fill="#CEFFF3"/>
<circle cx="156.5" cy="19.5" r="44.5" fill="url(#paint0_linear_2_2584)"/>
<circle cx="159" cy="16" r="30" fill="#FFE600"/>
<circle cx="112" cy="32" r="16" fill="white"/>
<circle cx="151.5" cy="61.5" r="8.5" fill="#FF5E5E"/>
<path d="M16.958 33V20.3174H20.1836V25.3008H25.2373V20.3174H28.4541V33H25.2373V27.8936H20.1836V33H16.958ZM34.7471 33.2021C31.7236 33.2021 29.8867 31.3125 29.8867 28.2188V28.21C29.8867 25.1338 31.7324 23.2266 34.6416 23.2266C37.5332 23.2266 39.3701 25.1162 39.3701 28.0166V28.9307H32.9365C32.9717 30.2227 33.6748 30.9873 34.8086 30.9873C35.8105 30.9873 36.3555 30.416 36.4961 30.0205L36.5049 29.9766H39.3174L39.291 30.082C39.001 31.4092 37.7969 33.2021 34.7471 33.2021ZM34.7119 25.4414C33.7979 25.4414 33.1387 26.0391 32.9805 27.0938H36.4346C36.2764 26.0215 35.626 25.4414 34.7119 25.4414ZM43.457 33.1318C41.5322 33.1318 40.2227 31.9102 40.2227 30.2402V30.2314C40.2227 28.4297 41.6113 27.4189 44.0811 27.252L46.2607 27.1113V26.6367C46.2607 25.9424 45.8125 25.5117 44.9424 25.5117C44.1074 25.5117 43.6152 25.8984 43.5098 26.3906L43.4922 26.4785H40.6885L40.6973 26.3643C40.8467 24.501 42.4375 23.2266 45.1006 23.2266C47.6758 23.2266 49.3721 24.5273 49.3721 26.4697V33H46.2607V31.6465H46.1992C45.6543 32.5869 44.7051 33.1318 43.457 33.1318ZM43.2812 30.0381C43.2812 30.6357 43.7822 30.9785 44.5469 30.9785C45.5488 30.9785 46.2607 30.3809 46.2607 29.5723V28.9307L44.582 29.0449C43.7119 29.0977 43.2812 29.458 43.2812 30.0293V30.0381ZM50.9189 33V20.3174H54.0391V33H50.9189ZM59.752 33.2021C57.4316 33.2021 56.377 32.3672 56.377 30.2051V25.7139H55.0762V23.4287H56.377V21.2227H59.4971V23.4287H61.2109V25.7139H59.4971V29.7832C59.4971 30.6094 59.8662 30.917 60.6309 30.917C60.877 30.917 61.0352 30.8994 61.2109 30.873V33.0879C60.8682 33.1494 60.4023 33.2021 59.752 33.2021ZM62.5557 33V20.3174H65.6758V25.1514H65.7373C66.2119 23.9033 67.2051 23.2266 68.6465 23.2266C70.7383 23.2266 71.9688 24.6152 71.9688 26.918V33H68.8486V27.5859C68.8486 26.4521 68.3037 25.7666 67.2754 25.7666C66.291 25.7666 65.6758 26.5225 65.6758 27.5771V33H62.5557ZM78.0332 33.2021C75.0186 33.2021 73.1641 31.3125 73.1641 28.21V28.2012C73.1641 25.1162 75.0273 23.2266 78.0068 23.2266C80.7051 23.2266 82.4805 24.8438 82.5244 27.1201L82.5332 27.1816H79.668L79.6592 27.0938C79.5361 26.2061 78.9736 25.5908 78.0596 25.5908C76.9785 25.5908 76.3281 26.5488 76.3281 28.21V28.2188C76.3281 29.9062 76.9609 30.8379 78.0684 30.8379C78.9824 30.8379 79.5361 30.249 79.6592 29.335L79.6768 29.2471H82.5332V29.3086C82.4717 31.5322 80.793 33.2021 78.0332 33.2021ZM86.5586 33.1318C84.6338 33.1318 83.3242 31.9102 83.3242 30.2402V30.2314C83.3242 28.4297 84.7129 27.4189 87.1826 27.252L89.3623 27.1113V26.6367C89.3623 25.9424 88.9141 25.5117 88.0439 25.5117C87.209 25.5117 86.7168 25.8984 86.6113 26.3906L86.5938 26.4785H83.79L83.7988 26.3643C83.9482 24.501 85.5391 23.2266 88.2021 23.2266C90.7773 23.2266 92.4736 24.5273 92.4736 26.4697V33H89.3623V31.6465H89.3008C88.7559 32.5869 87.8066 33.1318 86.5586 33.1318ZM86.3828 30.0381C86.3828 30.6357 86.8838 30.9785 87.6484 30.9785C88.6504 30.9785 89.3623 30.3809 89.3623 29.5723V28.9307L87.6836 29.0449C86.8135 29.0977 86.3828 29.458 86.3828 30.0293V30.0381ZM93.9678 33V23.4287H97.0879V25.125H97.1494C97.4131 23.9121 98.1689 23.2266 99.2939 23.2266C99.5928 23.2266 99.8652 23.2705 100.103 23.3496V26.0127C99.8389 25.9072 99.4785 25.8369 99.1094 25.8369C97.7998 25.8369 97.0879 26.5576 97.0879 27.9199V33H93.9678ZM105.376 33.2021C102.353 33.2021 100.516 31.3125 100.516 28.2188V28.21C100.516 25.1338 102.361 23.2266 105.271 23.2266C108.162 23.2266 109.999 25.1162 109.999 28.0166V28.9307H103.565C103.601 30.2227 104.304 30.9873 105.438 30.9873C106.439 30.9873 106.984 30.416 107.125 30.0205L107.134 29.9766H109.946L109.92 30.082C109.63 31.4092 108.426 33.2021 105.376 33.2021ZM105.341 25.4414C104.427 25.4414 103.768 26.0391 103.609 27.0938H107.063C106.905 26.0215 106.255 25.4414 105.341 25.4414Z" fill="black"/>
<path d="M120.709 103.157C121.048 103.269 121.421 103.097 121.552 102.76C121.608 102.614 122.929 99.184 121.732 96.6387C121.215 95.5405 120.323 94.7745 119.08 94.3648C118.723 94.2485 118.34 94.44 118.222 94.7963C118.105 95.1527 118.297 95.5357 118.653 95.6545C119.54 95.9478 120.144 96.4568 120.5 97.2132C121.448 99.2252 120.299 102.234 120.287 102.265C120.151 102.614 120.323 103.007 120.672 103.145C120.684 103.15 120.697 103.155 120.706 103.157H120.709Z" fill="#05C18F" stroke="#402108" stroke-width="0.451322" stroke-linecap="round" stroke-linejoin="round"/>
<path d="M87.3913 100.839C86.8677 100.839 86.3513 100.609 85.9974 100.17L72.3568 83.0797C71.7435 82.3112 71.8696 81.1913 72.638 80.5756C73.4065 79.9623 74.5264 80.0883 75.1422 80.8568L88.7827 97.9468C89.396 98.7153 89.27 99.8352 88.5015 100.451C88.1743 100.713 87.7815 100.839 87.3913 100.839Z" fill="#FF847C" stroke="#402108" stroke-width="0.451322" stroke-linecap="round" stroke-linejoin="round"/>
<path d="M88.2365 135.514C87.9747 135.514 87.708 135.456 87.4583 135.335C86.5735 134.903 86.2075 133.837 86.6365 132.954L93.9938 117.857C94.4252 116.972 95.4894 116.606 96.3742 117.035C97.259 117.467 97.6251 118.533 97.196 119.416L89.8388 134.513C89.5309 135.146 88.8958 135.514 88.2365 135.514Z" fill="#FF847C" stroke="#402108" stroke-width="0.451322" stroke-linecap="round" stroke-linejoin="round"/>
<path d="M114.769 135.513C114.11 135.513 113.474 135.145 113.167 134.512L105.809 119.415C105.378 118.53 105.746 117.463 106.631 117.034C107.516 116.603 108.583 116.971 109.012 117.856L116.369 132.953C116.8 133.838 116.432 134.905 115.547 135.334C115.295 135.457 115.031 135.513 114.769 135.513Z" fill="#FF847C" stroke="#402108" stroke-width="0.451322" stroke-linecap="round" stroke-linejoin="round"/>
<path d="M101.708 64.2812C93.1407 64.2812 86.198 71.2264 86.198 79.7908V109.363C86.198 117.93 93.1431 124.872 101.708 124.872C110.272 124.872 117.217 117.927 117.217 109.363V79.7908C117.217 71.2239 110.272 64.2812 101.708 64.2812Z" fill="white"/>
<mask id="mask0_2_2584" style="mask-type:luminance" maskUnits="userSpaceOnUse" x="86" y="64" width="32" height="61">
<path d="M101.709 64.2823C93.1423 64.2823 86.1996 71.2274 86.1996 79.7918V109.364C86.1996 117.931 93.1448 124.873 101.709 124.873C110.274 124.873 117.219 117.928 117.219 109.364V79.7918C117.219 71.225 110.274 64.2823 101.709 64.2823Z" fill="white"/>
</mask>
<g mask="url(#mask0_2_2584)">
<path d="M104.741 118.415C107.628 117.142 110.111 115.072 112.208 112.711C114.957 109.618 117.109 105.965 118.265 101.991C119.604 97.3904 119.579 92.518 119.545 87.7255C121.882 91.5701 122.932 96.1057 123.063 100.602C123.194 105.099 122.442 109.584 121.383 113.957C120.248 118.633 118.552 123.53 114.717 126.434C112.833 127.859 110.55 128.696 108.222 129.108C103.418 129.954 98.315 128.989 94.1479 126.446C91.7698 124.994 89.7093 123.035 88.1118 120.757C87.0307 119.212 85.5786 115.576 88.7106 116.982C94.017 119.365 99.0495 120.924 104.744 118.415H104.741Z" fill="#FFE8C6"/>
</g>
<path d="M101.708 64.2812C93.1407 64.2812 86.198 71.2264 86.198 79.7908V109.363C86.198 117.93 93.1431 124.872 101.708 124.872C110.272 124.872 117.217 117.927 117.217 109.363V79.7908C117.217 71.2239 110.272 64.2812 101.708 64.2812Z" stroke="#402108" stroke-width="0.451322" stroke-linecap="round" stroke-linejoin="round"/>
<path d="M100.882 99.2515C106.959 99.2515 112.59 98.4297 117.218 97.0286V79.7906C117.218 71.2238 110.273 64.2811 101.708 64.2811C93.1437 64.2811 86.1986 71.2262 86.1986 79.7906V97.4916C90.4893 98.6091 95.5121 99.2515 100.884 99.2515H100.882Z" fill="#DB3535" stroke="#402108" stroke-width="0.451322" stroke-linecap="round" stroke-linejoin="round"/>
<path d="M100.882 95.4691C106.959 95.4691 112.59 94.6473 117.218 93.2462V79.7923C117.218 71.2255 110.273 64.2828 101.708 64.2828C93.1437 64.2828 86.1986 71.2279 86.1986 79.7923V93.7092C90.4893 94.8267 95.5121 95.4691 100.884 95.4691H100.882Z" fill="#FF847C" stroke="#402108" stroke-width="0.451322" stroke-linecap="round" stroke-linejoin="round"/>
<path d="M114.204 70.6043L113.748 70.1656C113.748 70.1656 113.748 70.1631 113.746 70.1631C113.741 70.1583 113.731 70.1486 113.717 70.134C113.712 70.1292 113.702 70.1195 113.693 70.1098C113.683 70.0977 113.671 70.088 113.659 70.0759L113.12 69.5183C113.108 69.5038 113.094 69.4917 113.079 69.4771C112.003 68.4275 109.707 66.4179 106.784 65.1282C108.369 65.6761 109.838 66.4736 111.142 67.4772C111.777 67.9645 112.376 68.5002 112.929 69.0796L112.939 69.0893C113.181 69.3438 113.416 69.6056 113.644 69.8795C113.838 70.1147 114.027 70.3571 114.209 70.6043H114.204Z" fill="#E0504D" stroke="#402108" stroke-width="0.451322" stroke-linecap="round" stroke-linejoin="round"/>
<path d="M116.108 64.2562C116.154 66.4307 114.474 70.8693 114.474 70.8693L114.202 70.605L113.747 70.1663C113.747 70.1663 113.747 70.1638 113.744 70.1638C113.739 70.159 113.73 70.1493 113.715 70.1347C113.715 70.1347 113.717 70.1347 113.715 70.1323L113.691 70.1105C113.691 70.1105 113.669 70.0887 113.657 70.0766L113.119 69.519C113.107 69.5045 113.092 69.4924 113.078 69.4778L111.138 67.4779L110.84 67.1676C110.84 67.1676 110.838 67.1652 110.835 67.1628L110.726 66.8961L110.382 66.0622L106.254 56.0627H106.256C106.285 56.0676 106.552 56.116 106.986 56.23C107 56.23 107.012 56.2348 107.027 56.2421C108.433 56.6106 111.509 57.6335 114.193 59.968C114.193 59.968 116.066 62.0818 116.11 64.2587L116.108 64.2562Z" fill="#9A9AF5" stroke="#402108" stroke-width="0.451322" stroke-linecap="round" stroke-linejoin="round"/>
<path d="M99.0541 62.4768C99.0541 62.4768 99.8153 58.666 100.569 57.8612C101.323 57.0564 105.148 56.0625 106.249 56.0577C107.349 56.0528 112.229 58.6321 113.773 60.7072C113.773 60.7072 113.305 64.6633 111.817 67.8777C111.817 67.8777 107.825 64.8185 104.727 63.7519C101.628 62.6852 99.0541 62.4768 99.0541 62.4768Z" fill="#FFD148" stroke="#402108" stroke-width="0.451322" stroke-linecap="round" stroke-linejoin="round"/>
<path d="M113.713 70.1321C113.713 70.1321 113.715 70.1321 113.713 70.1297C113.64 70.0472 113.434 69.8266 113.116 69.5188C113.104 69.5042 113.09 69.4921 113.075 69.4776C111.999 68.4279 109.703 66.4183 106.78 65.1287C105.495 64.5639 104.091 64.1372 102.612 63.9942C101.095 63.8463 100.164 64.0815 99.6065 64.4209C98.7484 64.5348 97.9121 64.7239 97.1024 64.9736C96.0503 64.3166 94.8262 63.393 94.6613 62.5494C94.608 62.2949 94.6565 62.0452 94.8359 61.8149C95.231 61.3107 97.0467 61.2937 99.2405 61.6089C101.946 61.9895 105.238 62.8694 107.16 63.9409C108.37 64.6148 109.448 65.3299 110.374 66.0596C110.978 66.5371 111.519 67.0244 111.979 67.5092C112.75 68.3164 113.313 69.114 113.633 69.88C113.671 69.9769 113.708 70.0715 113.739 70.1636C113.734 70.1588 113.725 70.1491 113.71 70.1345L113.713 70.1321Z" fill="#04A577" stroke="#402108" stroke-width="0.451322" stroke-linecap="round" stroke-linejoin="round"/>
<path d="M113.743 70.164C113.743 70.164 113.728 70.1495 113.714 70.1349C113.709 70.1301 113.699 70.1204 113.689 70.1107C113.68 70.0986 113.668 70.0889 113.656 70.0768L113.117 69.5192C113.105 69.5047 113.091 69.4926 113.076 69.478C112 68.4284 109.704 66.4188 106.781 65.1291C105.193 64.5789 103.484 64.2783 101.707 64.2783C100.997 64.2783 100.294 64.3267 99.6077 64.4213C98.7496 64.5352 97.9133 64.7243 97.1036 64.974C97.0261 64.9958 96.9485 65.0225 96.8709 65.0491C95.7752 64.2564 94.6141 63.248 94.6625 62.5474C94.665 62.4602 94.6916 62.3778 94.7377 62.3026C95.0722 61.7499 96.9121 61.7305 99.1423 62.0578C101.831 62.4505 105.091 63.345 106.992 64.4043C108.509 65.2503 109.721 66.0697 110.72 66.8939C111.115 67.2211 111.479 67.546 111.816 67.8757C112.22 68.2708 112.587 68.6708 112.923 69.078L112.933 69.0877C113.219 69.4392 113.491 69.798 113.743 70.1616V70.164Z" fill="#05C18F" stroke="#402108" stroke-width="0.451322" stroke-linecap="round" stroke-linejoin="round"/>
<path d="M72.2036 136.151C72.16 136.268 71.2703 137.914 74.3514 138.818C77.43 139.724 82.5183 139.707 84.1812 139.361C85.8442 139.014 87.8029 139.443 87.8029 139.443L88.1495 136.008L72.2036 136.149V136.151Z" fill="#FF847C" stroke="#402108" stroke-width="0.451322" stroke-linecap="round" stroke-linejoin="round"/>
<path d="M85.9153 129.867C85.4305 130.274 84.919 130.65 84.3687 130.963C82.6088 131.959 79.089 133.884 77.5085 134.252C75.3534 134.754 72.4687 134.65 72.2166 136.029C71.9645 137.409 75.6879 137.806 77.1933 137.743C78.6987 137.68 85.685 136.781 87.1056 136.866C88.5285 136.95 93.0447 137.011 93.4834 136.887C93.9222 136.761 93.818 134.167 93.6289 133.479C93.4398 132.788 93.1925 131.336 92.458 130.866C92.3199 130.779 91.4811 130.463 91.1369 131.072C90.9745 131.36 91.5369 132.812 90.4921 132.936C89.4473 133.062 87.794 132.58 87.731 130.888C87.731 130.888 88.2691 129.542 87.9104 129.259C87.6122 129.023 86.7565 129.162 85.9105 129.869L85.9153 129.867Z" fill="#9A9AF5" stroke="#402108" stroke-width="0.451322" stroke-linecap="round" stroke-linejoin="round"/>
<path d="M79.9958 135.146C79.6177 134.996 78.9559 135.316 77.9717 135.146C77.4941 135.064 77.3996 134.659 77.4311 134.266C75.2858 134.749 72.4617 134.664 72.2144 136.029C71.9623 137.408 75.6857 137.805 77.1911 137.742C77.9765 137.708 80.2552 137.449 82.4563 137.219C81.5885 136.433 80.2479 135.246 79.9958 135.144V135.146Z" fill="#E0504D" stroke="#402108" stroke-width="0.451322" stroke-linecap="round" stroke-linejoin="round"/>
<path d="M80.1726 134.874C80.1339 134.874 80.0927 134.867 80.0539 134.852L78.2358 134.12C78.0734 134.055 77.9958 133.871 78.0612 133.711C78.1267 133.548 78.3109 133.471 78.4709 133.536L80.289 134.268C80.4514 134.334 80.529 134.518 80.4635 134.678C80.4151 134.802 80.2963 134.877 80.1702 134.877L80.1726 134.874Z" fill="white" stroke="#402108" stroke-width="0.451322" stroke-linecap="round" stroke-linejoin="round"/>
<path d="M82.0062 134.022C81.9674 134.022 81.9262 134.015 81.8874 134L80.0693 133.268C79.9069 133.203 79.8293 133.019 79.8948 132.859C79.9602 132.696 80.1445 132.619 80.3045 132.684L82.1226 133.416C82.285 133.482 82.3626 133.666 82.2971 133.826C82.2486 133.949 82.1298 134.025 82.0038 134.025L82.0062 134.022Z" fill="white" stroke="#402108" stroke-width="0.451322" stroke-linecap="round" stroke-linejoin="round"/>
<path d="M83.8398 133.176C83.801 133.176 83.7598 133.169 83.721 133.154L81.903 132.422C81.7405 132.357 81.663 132.173 81.7284 132.013C81.7939 131.85 81.9781 131.773 82.1381 131.838L83.9562 132.57C84.1186 132.636 84.1962 132.82 84.1307 132.98C84.0822 133.103 83.9635 133.179 83.8374 133.179L83.8398 133.176Z" fill="white" stroke="#402108" stroke-width="0.451322" stroke-linecap="round" stroke-linejoin="round"/>
<path d="M85.5318 132.235C85.4931 132.235 85.4518 132.227 85.4131 132.213L83.595 131.481C83.4325 131.415 83.355 131.231 83.4204 131.071C83.4859 130.909 83.6701 130.831 83.8301 130.896L85.6482 131.629C85.8106 131.694 85.8882 131.878 85.8227 132.038C85.7743 132.162 85.6555 132.237 85.5294 132.237L85.5318 132.235Z" fill="white" stroke="#402108" stroke-width="0.451322" stroke-linecap="round" stroke-linejoin="round"/>
<path d="M87.1072 136.865C88.5302 136.95 93.0463 137.01 93.4851 136.887C93.9238 136.761 93.8196 134.167 93.6305 133.478C93.4414 132.787 93.1942 131.335 92.4597 130.865C92.3215 130.778 91.4827 130.463 91.1385 131.071C90.9761 131.36 91.5385 132.812 90.4937 132.935C89.4974 133.054 87.9508 132.623 87.7544 131.117C87.1048 131.432 85.803 132.087 85.8491 132.247C85.9097 132.46 86.906 134.094 86.6902 134.196C86.4769 134.298 82.7098 135.81 82.6783 136.012C82.6614 136.123 83.1801 136.656 83.6431 137.102C85.1994 136.947 86.5618 136.836 87.1072 136.867V136.865Z" fill="#FFD148" stroke="#402108" stroke-width="0.451322" stroke-linecap="round" stroke-linejoin="round"/>
<path d="M93.6273 133.478C93.4383 132.787 93.191 131.335 92.4565 130.865C92.3183 130.778 91.4796 130.463 91.1353 131.071C90.9729 131.36 91.5353 132.812 90.4905 132.935C90.4614 132.938 90.4323 132.943 90.4033 132.945C90.5293 133.333 90.7426 133.621 91.0893 133.711C91.8577 133.91 93.0213 133.922 93.2831 136.101L93.7534 136.13C93.8431 135.275 93.7534 133.946 93.6273 133.481V133.478Z" fill="#9A9AF5" stroke="#402108" stroke-width="0.451322" stroke-linecap="round" stroke-linejoin="round"/>
<path d="M93.7923 135.68C93.7923 135.68 92.5802 136.133 91.2179 136.158C90.4906 136.17 89.6664 136.126 89.0531 136.083C88.4592 136.041 87.8702 136.218 87.3975 136.584L83.9431 139.248C83.9431 139.248 83.8195 139.433 84.2631 139.421C84.7043 139.408 86.8011 139.418 87.8799 139.578C88.9586 139.738 93.4359 139.983 94.3062 138.819C95.1765 137.653 93.7899 135.68 93.7899 135.68H93.7923Z" fill="#E0504D" stroke="#402108" stroke-width="0.451322" stroke-linecap="round" stroke-linejoin="round"/>
<path d="M130.804 136.151C130.848 136.268 131.737 137.914 128.656 138.818C125.578 139.724 120.489 139.707 118.827 139.361C117.164 139.014 115.205 139.443 115.205 139.443L114.858 136.008L130.804 136.149V136.151Z" fill="#FF847C" stroke="#402108" stroke-width="0.451322" stroke-linecap="round" stroke-linejoin="round"/>
<path d="M117.095 129.867C117.579 130.274 118.091 130.65 118.641 130.963C120.401 131.959 123.921 133.884 125.502 134.252C127.657 134.754 130.541 134.65 130.793 136.029C131.046 137.409 127.322 137.806 125.817 137.743C124.311 137.68 117.325 136.781 115.904 136.866C114.481 136.95 109.965 137.011 109.527 136.887C109.088 136.761 109.192 134.167 109.381 133.479C109.57 132.788 109.817 131.336 110.552 130.866C110.69 130.779 111.529 130.463 111.873 131.072C112.036 131.36 111.473 132.812 112.518 132.936C113.563 133.062 115.216 132.58 115.279 130.888C115.279 130.888 114.741 129.542 115.1 129.259C115.398 129.023 116.254 129.162 117.1 129.869L117.095 129.867Z" fill="#9A9AF5" stroke="#402108" stroke-width="0.451322" stroke-linecap="round" stroke-linejoin="round"/>
<path d="M123.008 135.146C123.386 134.996 124.048 135.316 125.032 135.146C125.51 135.064 125.604 134.659 125.573 134.266C127.718 134.749 130.542 134.664 130.79 136.029C131.042 137.408 127.318 137.805 125.813 137.742C125.028 137.708 122.749 137.449 120.548 137.219C121.416 136.433 122.756 135.246 123.008 135.144V135.146Z" fill="#E0504D" stroke="#402108" stroke-width="0.451322" stroke-linecap="round" stroke-linejoin="round"/>
<path d="M122.837 134.875C122.876 134.875 122.917 134.868 122.956 134.853L124.774 134.121C124.936 134.056 125.014 133.871 124.949 133.711C124.883 133.549 124.699 133.471 124.539 133.537L122.721 134.269C122.558 134.334 122.481 134.519 122.546 134.679C122.595 134.802 122.714 134.877 122.84 134.877L122.837 134.875Z" fill="white" stroke="#402108" stroke-width="0.451322" stroke-linecap="round" stroke-linejoin="round"/>
<path d="M121.004 134.023C121.042 134.023 121.084 134.015 121.122 134.001L122.94 133.269C123.103 133.203 123.18 133.019 123.115 132.859C123.05 132.697 122.865 132.619 122.705 132.685L120.887 133.417C120.725 133.482 120.647 133.666 120.713 133.826C120.761 133.95 120.88 134.025 121.006 134.025L121.004 134.023Z" fill="white" stroke="#402108" stroke-width="0.451322" stroke-linecap="round" stroke-linejoin="round"/>
<path d="M119.165 133.176C119.204 133.176 119.245 133.169 119.284 133.154L121.102 132.422C121.265 132.357 121.342 132.173 121.277 132.013C121.211 131.85 121.027 131.773 120.867 131.838L119.049 132.57C118.887 132.636 118.809 132.82 118.875 132.98C118.923 133.103 119.042 133.179 119.168 133.179L119.165 133.176Z" fill="white" stroke="#402108" stroke-width="0.451322" stroke-linecap="round" stroke-linejoin="round"/>
<path d="M117.473 132.235C117.512 132.235 117.553 132.228 117.592 132.213L119.41 131.481C119.573 131.416 119.65 131.231 119.585 131.071C119.519 130.909 119.335 130.831 119.175 130.897L117.357 131.629C117.195 131.694 117.117 131.879 117.182 132.039C117.231 132.162 117.35 132.237 117.476 132.237L117.473 132.235Z" fill="white" stroke="#402108" stroke-width="0.451322" stroke-linecap="round" stroke-linejoin="round"/>
<path d="M115.902 136.865C114.479 136.95 109.963 137.01 109.524 136.887C109.086 136.761 109.19 134.167 109.379 133.478C109.568 132.787 109.815 131.335 110.55 130.865C110.688 130.778 111.527 130.463 111.871 131.071C112.033 131.36 111.471 132.812 112.516 132.935C113.512 133.054 115.059 132.623 115.255 131.117C115.905 131.432 117.206 132.087 117.16 132.247C117.1 132.46 116.103 134.094 116.319 134.196C116.532 134.298 120.3 135.81 120.331 136.012C120.348 136.123 119.829 136.656 119.366 137.102C117.81 136.947 116.448 136.836 115.902 136.867V136.865Z" fill="#FFD148" stroke="#402108" stroke-width="0.451322" stroke-linecap="round" stroke-linejoin="round"/>
<path d="M109.378 133.478C109.567 132.787 109.815 131.335 110.549 130.865C110.687 130.778 111.526 130.463 111.87 131.071C112.033 131.36 111.47 132.812 112.515 132.935C112.544 132.938 112.573 132.943 112.602 132.945C112.476 133.333 112.263 133.621 111.916 133.711C111.148 133.91 109.984 133.922 109.722 136.101L109.252 136.13C109.162 135.275 109.252 133.946 109.378 133.481V133.478Z" fill="#9A9AF5" stroke="#402108" stroke-width="0.451322" stroke-linecap="round" stroke-linejoin="round"/>
<path d="M109.215 135.68C109.215 135.68 110.427 136.133 111.789 136.158C112.516 136.17 113.34 136.126 113.954 136.083C114.548 136.041 115.137 136.218 115.609 136.584L119.064 139.248C119.064 139.248 119.187 139.433 118.744 139.421C118.303 139.408 116.206 139.418 115.127 139.578C114.048 139.738 109.571 139.983 108.701 138.819C107.83 137.653 109.217 135.68 109.217 135.68H109.215Z" fill="#E0504D" stroke="#402108" stroke-width="0.451322" stroke-linecap="round" stroke-linejoin="round"/>
<path d="M71.0153 69.7212C71.0153 69.7212 71.1608 66.8171 70.3051 62.5846C69.4494 58.3497 69.4785 58.5363 69.4785 58.5363C69.4785 58.5363 73.3764 56.3716 74.9012 61.2271C76.426 66.0851 75.2818 71.2024 75.2818 71.2024L71.0129 69.7212H71.0153Z" fill="#FFD148" stroke="#402108" stroke-width="0.451322" stroke-linecap="round" stroke-linejoin="round"/>
<path d="M78.8217 80.8724C78.8217 80.8724 80.4435 83.6238 76.2546 85.8346C72.0681 88.0454 70.3858 85.2067 70.33 84.6468L78.8217 80.8724Z" fill="#FFD148" stroke="#402108" stroke-width="0.451322" stroke-linecap="round" stroke-linejoin="round"/>
<path d="M80.6118 78.7207C80.6118 78.7207 81.3633 81.8285 77.1332 82.1194C77.1332 82.1194 76.3987 85.3119 71.8341 85.3919C67.2694 85.4719 65.9337 80.0928 65.221 77.4675C64.5084 74.8421 65.4707 72.1392 68.8136 71.6859C68.8136 71.6859 68.2658 68.92 71.7056 69.0921C75.1478 69.2642 76.7308 71.2278 76.7308 71.2278C76.7308 71.2278 78.1077 69.96 79.8628 70.6217C81.6178 71.2835 83.688 76.8105 80.6118 78.7207Z" fill="#FFD148" stroke="#402108" stroke-width="0.451322" stroke-linecap="round" stroke-linejoin="round"/>
<path d="M76.7309 71.2281C76.7309 71.2281 74.3601 73.628 73.4001 74.4425C72.4402 75.2594 73.6062 78.8617 76.7745 77.7708C79.0653 76.983 79.7707 75.32 79.8847 74.028" fill="#FFD148"/>
<path d="M76.7309 71.2281C76.7309 71.2281 74.3601 73.628 73.4001 74.4425C72.4402 75.2594 73.6062 78.8617 76.7745 77.7708C79.0653 76.983 79.7707 75.32 79.8847 74.028" stroke="#402108" stroke-width="0.451322" stroke-linecap="round" stroke-linejoin="round"/>
<path d="M80.8939 75.3542C80.8939 75.3542 80.2466 76.3117 79.2867 75.8754" stroke="#402108" stroke-width="0.451322" stroke-linecap="round" stroke-linejoin="round"/>
<path d="M76.6242 77.8586C76.5805 77.8901 75.9309 78.707 76.6605 80.4063" stroke="#402108" stroke-width="0.451322" stroke-linecap="round" stroke-linejoin="round"/>
<path d="M68.8087 71.6867C68.8087 71.6867 72.2776 71.3328 74.1612 73.7472" stroke="#402108" stroke-width="0.451322" stroke-linecap="round" stroke-linejoin="round"/>
<path d="M76.3323 77.9055C76.3323 77.9055 76.8463 79.726 74.5288 80.1575C72.2089 80.5866 69.4963 79.0618 69.22 75.525" fill="#FFD148"/>
<path d="M76.3323 77.9055C76.3323 77.9055 76.8463 79.726 74.5288 80.1575C72.2089 80.5866 69.4963 79.0618 69.22 75.525" stroke="#402108" stroke-width="0.451322" stroke-linecap="round" stroke-linejoin="round"/>
<path d="M68.0537 76.7917C68.0537 76.7917 68.1313 78.0377 70.0294 78.1299" stroke="#402108" stroke-width="0.451322" stroke-linecap="round" stroke-linejoin="round"/>
<path d="M121.048 119.212L104.721 113.826L112.816 99.0121L123.361 102.491L121.048 119.212Z" fill="#84D1C2" stroke="#402108" stroke-width="0.451322" stroke-linecap="round" stroke-linejoin="round"/>
<path d="M118.376 118.332L102.05 112.943L110.144 98.1319L120.689 101.61L118.376 118.332Z" fill="#A2D9CE" stroke="#402108" stroke-width="0.451322" stroke-linecap="round" stroke-linejoin="round"/>
<path d="M118.176 108.258L115.575 107.4L116.433 104.798C116.574 104.374 116.344 103.916 115.92 103.775L115.175 103.531C114.751 103.39 114.293 103.62 114.152 104.045L113.294 106.646L110.693 105.788C110.269 105.647 109.811 105.877 109.67 106.301L109.425 107.046C109.285 107.47 109.515 107.928 109.939 108.069L112.54 108.927L111.682 111.528C111.542 111.952 111.772 112.41 112.196 112.551L112.94 112.796C113.365 112.936 113.823 112.706 113.963 112.282L114.821 109.681L117.422 110.539C117.847 110.679 118.305 110.449 118.445 110.025L118.69 109.281C118.831 108.856 118.601 108.398 118.176 108.258Z" fill="white" stroke="#402108" stroke-width="0.451322" stroke-linecap="round" stroke-linejoin="round"/>
<path d="M128.184 109.152C127.808 109.45 127.311 109.596 126.8 109.516C125.828 109.363 125.166 108.451 125.319 107.479C125.818 104.306 126.32 100.784 126.523 98.9077C124.511 98.8229 120.475 98.9077 117.011 99.0725C116.029 99.1186 115.195 98.3598 115.147 97.3781C115.101 96.3963 115.86 95.56 116.841 95.5139C116.871 95.5139 119.707 95.3782 122.533 95.3297C128.528 95.2255 129.583 95.4412 130.06 96.869C130.213 97.3272 130.424 97.955 128.836 108.035C128.763 108.493 128.521 108.885 128.184 109.152Z" fill="#FF847C"/>
<path d="M127.66 99.0168H127.663M128.184 109.152C127.808 109.45 127.311 109.596 126.8 109.516C125.828 109.363 125.166 108.451 125.319 107.479C125.818 104.306 126.32 100.784 126.523 98.9077C124.511 98.8229 120.475 98.9077 117.011 99.0725C116.029 99.1186 115.195 98.3598 115.147 97.3781C115.101 96.3963 115.86 95.56 116.841 95.5139C116.871 95.5139 119.707 95.3782 122.533 95.3297C128.528 95.2255 129.583 95.4412 130.06 96.869C130.213 97.3272 130.424 97.955 128.836 108.035C128.763 108.493 128.521 108.885 128.184 109.152Z" stroke="#402108" stroke-width="0.451322" stroke-linecap="round" stroke-linejoin="round"/>
<path d="M118.603 95.6388C117.715 95.3455 116.928 95.3964 116.191 95.7916C114.229 96.8436 113.364 99.9465 113.357 99.978C113.257 100.339 112.886 100.553 112.523 100.456C112.511 100.453 112.499 100.448 112.487 100.446C112.147 100.334 111.951 99.9756 112.045 99.6241C112.087 99.4738 113.066 95.9322 115.543 94.5989C116.612 94.0244 117.783 93.9395 119.027 94.3492" fill="#05C18F"/>
<path d="M118.603 95.6388C117.715 95.3455 116.928 95.3964 116.191 95.7916C114.229 96.8436 113.364 99.9465 113.357 99.978C113.257 100.339 112.886 100.553 112.523 100.456C112.511 100.453 112.499 100.448 112.487 100.446C112.147 100.334 111.951 99.9756 112.045 99.6241C112.087 99.4738 113.066 95.9322 115.543 94.5989C116.612 94.0244 117.783 93.9395 119.027 94.3492" stroke="#402108" stroke-width="0.451322" stroke-linecap="round" stroke-linejoin="round"/>
<path d="M122.394 109.086C122.394 109.086 122.03 106.245 125.989 105.125C129.95 104.005 131.814 106.88 131.062 108.126L122.391 109.086H122.394Z" fill="#FFD148" stroke="#402108" stroke-width="0.451322" stroke-linecap="round" stroke-linejoin="round"/>
<path d="M126.806 106.795C126.806 106.795 123.951 106.837 121.369 109.615C118.787 112.393 118.768 116.043 120.639 118.225C122.511 120.407 125.274 121.645 127.046 120.448C127.046 120.448 129.378 122.344 131.434 119.476C131.434 119.476 134.92 119.735 135.383 116.295C135.846 112.853 133.162 111.896 133.162 111.896C133.162 111.896 133.356 106.454 126.806 106.793V106.795Z" fill="#FFD148" stroke="#402108" stroke-width="0.451322" stroke-linecap="round" stroke-linejoin="round"/>
<path d="M124.798 118.122C124.798 118.122 125.55 119.647 127.05 120.45" stroke="#402108" stroke-width="0.451322" stroke-linecap="round" stroke-linejoin="round"/>
<path d="M128.706 117.718C128.706 117.718 129.872 119.391 131.433 119.478" stroke="#402108" stroke-width="0.451322" stroke-linecap="round" stroke-linejoin="round"/>
<path d="M133.163 111.898C133.163 111.898 133.325 114.851 131.209 116.111" stroke="#402108" stroke-width="0.451322" stroke-linecap="round" stroke-linejoin="round"/>
<path d="M132.711 116.662C132.711 116.662 133.487 115.369 132.697 114.366" stroke="#402108" stroke-width="0.451322" stroke-linecap="round" stroke-linejoin="round"/>
<path d="M97.7412 86.7764C97.4503 89.2854 95.1789 91.0817 92.6699 90.7884C90.161 90.4975 88.3647 88.2261 88.658 85.7171C88.9513 83.2081 91.2203 81.4119 93.7293 81.7052C96.2383 81.9961 98.0345 84.2675 97.7412 86.7764Z" fill="white"/>
<path d="M92.7215 90.3501C91.4561 90.2022 90.3434 89.698 89.5435 88.9902C90.2707 89.9574 91.3737 90.6386 92.6706 90.7889C93.9675 90.9392 95.1989 90.5319 96.1274 89.7562C95.1844 90.2604 93.9869 90.498 92.7215 90.3501Z" fill="#402108"/>
<path d="M93.6774 82.144C92.412 81.9961 91.2145 82.2312 90.2715 82.7379C91.1999 81.9622 92.4314 81.5549 93.7283 81.7052C95.0252 81.8555 96.1306 82.5367 96.8554 83.5039C96.053 82.7961 94.9428 82.2918 93.6774 82.144Z" fill="#402108"/>
<path d="M93.8677 90.0967C95.8438 90.0967 97.4457 88.4948 97.4457 86.5187C97.4457 84.5427 95.8438 82.9407 93.8677 82.9407C91.8916 82.9407 90.2897 84.5427 90.2897 86.5187C90.2897 88.4948 91.8916 90.0967 93.8677 90.0967Z" fill="#402108"/>
<path d="M91.7756 84.8875C91.7756 85.3408 91.4096 85.7069 90.9563 85.7069C90.5029 85.7069 90.1369 85.3408 90.1369 84.8875C90.1369 84.4342 90.5029 84.0682 90.9563 84.0682C91.4096 84.0682 91.7756 84.4342 91.7756 84.8875Z" fill="white"/>
<path d="M104.973 86.7762C105.264 89.2852 107.535 91.0814 110.044 90.7881C112.553 90.4972 114.349 88.2258 114.056 85.7169C113.763 83.2079 111.494 81.4116 108.985 81.7049C106.476 81.9982 104.68 84.2672 104.973 86.7762Z" fill="white"/>
<path d="M109.992 90.3496C111.258 90.2017 112.37 89.6975 113.17 88.9897C112.443 89.9569 111.34 90.6381 110.043 90.7884C108.746 90.9387 107.515 90.5314 106.586 89.7557C107.529 90.2599 108.727 90.4975 109.992 90.3496Z" fill="#402108"/>
<path d="M109.036 82.1435C110.302 81.9956 111.499 82.2308 112.442 82.7374C111.514 81.9617 110.282 81.5545 108.985 81.7048C107.688 81.8551 106.583 82.5362 105.858 83.5035C106.661 82.7956 107.771 82.2914 109.036 82.1435Z" fill="#402108"/>
<path d="M109.146 90.0978C111.122 90.0978 112.724 88.4959 112.724 86.5198C112.724 84.5437 111.122 82.9418 109.146 82.9418C107.17 82.9418 105.568 84.5437 105.568 86.5198C105.568 88.4959 107.17 90.0978 109.146 90.0978Z" fill="#402108"/>
<path d="M111.237 84.8888C111.237 85.3421 111.603 85.7081 112.057 85.7081C112.51 85.7081 112.876 85.3421 112.876 84.8888C112.876 84.4354 112.51 84.0694 112.057 84.0694C111.603 84.0694 111.237 84.4354 111.237 84.8888Z" fill="white"/>
<path d="M117.09 81.7656C115.599 81.3971 113.252 81.3074 113.252 81.3074C113.187 81.2977 113.121 81.2904 113.056 81.2832C110.949 81.1013 107.905 81.0407 105.357 81.7898C105.24 81.8237 105.126 81.8649 105.017 81.9086C104.009 82.3231 102.945 82.5776 101.856 82.5776H100.862C99.774 82.5776 98.7098 82.3231 97.7014 81.9086C97.5899 81.8625 97.4784 81.8237 97.362 81.7898C94.8143 81.0407 91.7696 81.0989 89.663 81.2832C89.5976 81.288 89.5321 81.2977 89.4667 81.3074C89.4667 81.3074 87.1201 81.3971 85.6293 81.7656C85.239 81.8625 84.9651 82.2116 84.9578 82.6188C84.9529 82.854 84.9675 83.1497 85.0232 83.5061C85.0644 83.78 85.2584 84.0006 85.5202 84.0806C85.6923 84.1315 85.8789 84.2236 85.9808 84.3836C86.0123 84.4321 86.0462 84.4951 86.0874 84.5727C86.4268 85.2272 86.6304 85.9447 86.7007 86.6817C86.7225 86.9168 86.7468 87.1544 86.771 87.3968C87.0256 89.7821 88.8849 91.6754 91.1926 91.8984C91.6799 91.9444 92.1695 91.9784 92.6471 91.9978C92.7319 92.0002 92.8168 92.0026 92.8992 92.0026C95.8736 92.0026 98.5474 89.9712 99.4589 86.9871C99.5389 86.7229 99.6165 86.4659 99.6868 86.2235C99.7183 86.1144 99.7449 86.0053 99.7668 85.8938C99.917 85.1278 100.593 84.5872 101.362 84.5872C102.13 84.5872 102.807 85.1278 102.957 85.8938C102.979 86.0053 103.005 86.1144 103.037 86.2235C103.107 86.4684 103.185 86.7229 103.265 86.9871C104.176 89.9712 106.85 92.0026 109.824 92.0026C109.909 92.0026 109.992 92.0026 110.077 91.9978C110.554 91.9784 111.044 91.9469 111.531 91.8984C113.839 91.6754 115.696 89.7821 115.953 87.3968C115.979 87.1544 116.001 86.9168 116.023 86.6817C116.091 85.9447 116.294 85.2272 116.636 84.5727C116.675 84.4975 116.711 84.4321 116.743 84.3836C116.845 84.2236 117.029 84.1339 117.203 84.0806C117.465 84.003 117.659 83.78 117.7 83.5061C117.754 83.1522 117.768 82.854 117.766 82.6188C117.759 82.2116 117.485 81.8625 117.094 81.7656H117.09ZM98.8674 85.8963C98.7923 86.1581 98.7098 86.4344 98.6226 86.7205C97.8032 89.4064 95.3621 91.2099 92.681 91.1057C92.2205 91.0887 91.7478 91.0548 91.2775 91.0112C89.3818 90.8269 87.8546 89.2658 87.6437 87.2998C87.5516 86.4344 87.4837 85.6151 87.4425 84.866C87.3674 83.4746 88.3758 82.2916 89.7406 82.1728C91.772 81.9958 94.7028 81.9352 97.1196 82.6479C97.779 82.8419 98.3244 83.2879 98.6541 83.9012C98.9862 84.5169 99.0613 85.2248 98.865 85.8963H98.8674ZM115.281 84.8636C115.24 85.6126 115.172 86.432 115.08 87.2974C114.869 89.2658 113.342 90.8269 111.446 91.0087C110.976 91.0548 110.503 91.0863 110.043 91.1033C107.362 91.2075 104.92 89.404 104.101 86.718C104.014 86.432 103.931 86.1556 103.856 85.8938C103.662 85.2224 103.737 84.5121 104.067 83.8988C104.397 83.2855 104.942 82.8394 105.602 82.6455C108.018 81.9328 110.949 81.9934 112.981 82.1704C114.345 82.2892 115.354 83.4721 115.279 84.8636H115.281Z" fill="#9A9AF5" stroke="#402108" stroke-width="0.451322" stroke-linecap="round" stroke-linejoin="round"/>
<path d="M86.6746 82.9307C86.6746 83.1731 86.4807 83.3719 86.2407 83.3719C86.0007 83.3719 85.8068 83.1755 85.8068 82.9307C85.8068 82.6859 86.0007 82.4895 86.2407 82.4895C86.4807 82.4895 86.6746 82.6859 86.6746 82.9307Z" fill="#FF847C" stroke="#402108" stroke-width="0.451322" stroke-linecap="round" stroke-linejoin="round"/>
<path d="M116.045 82.9307C116.045 83.1731 116.239 83.3719 116.479 83.3719C116.719 83.3719 116.913 83.1755 116.913 82.9307C116.913 82.6859 116.719 82.4895 116.479 82.4895C116.239 82.4895 116.045 82.6859 116.045 82.9307Z" fill="#FF847C" stroke="#402108" stroke-width="0.451322" stroke-linecap="round" stroke-linejoin="round"/>
<path d="M99.4899 88.9387C99.6377 89.2538 99.9335 89.4865 100.266 89.5932C100.598 89.6998 100.961 89.6829 101.296 89.5859C102.018 89.375 102.632 88.7132 102.636 87.9593" stroke="#402108" stroke-width="0.451322" stroke-linecap="round" stroke-linejoin="round"/>
<path d="M116.044 92.001C116.044 92.7428 115.2 93.3464 114.158 93.3464C113.115 93.3464 112.272 92.7452 112.272 92.001C112.272 91.2568 113.115 90.6556 114.158 90.6556C115.2 90.6556 116.044 91.2568 116.044 92.001Z" fill="#F98585" stroke="#402108" stroke-width="0.451322" stroke-linecap="round" stroke-linejoin="round"/>
<path d="M90.5038 92.001C90.5038 92.7428 89.6602 93.3464 88.6178 93.3464C87.5755 93.3464 86.7319 92.7452 86.7319 92.001C86.7319 91.2568 87.5755 90.6556 88.6178 90.6556C89.6602 90.6556 90.5038 91.2568 90.5038 92.001Z" fill="#F98585" stroke="#402108" stroke-width="0.451322" stroke-linecap="round" stroke-linejoin="round"/>
<path d="M95.7523 69.8947C95.4929 69.9238 95.2214 69.9335 94.9766 69.8414C94.3851 69.6232 94.1257 68.879 94.2663 68.2657C94.5403 67.0682 96.2202 66.0767 97.3692 65.924C97.9752 65.844 98.8091 66.1252 98.9885 66.7749C99.4782 68.559 97.1559 69.7323 95.7547 69.8947H95.7523Z" fill="#FFAAAA"/>
<path d="M87.7555 76.53C87.8186 75.2865 88.6258 73.815 89.2439 72.7945C89.8597 71.7788 90.7687 70.6031 91.8184 70.0043C92.6644 69.5219 93.8304 69.6892 94.0825 70.763C94.1843 71.1994 94.1261 71.6575 94.0316 72.0963C93.7068 73.6259 92.9795 75.0586 91.9953 76.2707C91.4596 76.93 90.839 77.5336 90.0972 77.953C89.0161 78.5639 87.7458 77.9918 87.7507 76.6658C87.7507 76.6197 87.7507 76.5737 87.7555 76.5276V76.53Z" fill="#FFAAAA"/>
<path d="M83.4102 120.2L79.4435 123.364C78.3824 124.21 76.8349 124.038 75.9885 122.975C75.14 121.911 75.3148 120.366 76.3759 119.517L80.3426 116.353C81.4037 115.507 82.9512 115.679 83.7976 116.742C84.2208 117.273 84.3892 117.926 84.3177 118.551C84.2482 119.176 83.9387 119.774 83.4081 120.197L83.4102 120.2Z" fill="#E0504D" stroke="#402108" stroke-width="0.451322" stroke-linecap="round" stroke-linejoin="round"/>
<path d="M83.4088 120.199L81.455 121.757C80.8149 121.301 80.2022 120.726 79.659 120.044C79.1158 119.361 78.6905 118.637 78.3873 117.911L80.3412 116.353C81.4023 115.506 82.9498 115.679 83.7962 116.742C84.2194 117.273 84.3879 117.926 84.3163 118.551C84.2468 119.176 83.9373 119.774 83.4067 120.197L83.4088 120.199Z" fill="white" stroke="#402108" stroke-width="0.451322" stroke-linecap="round" stroke-linejoin="round"/>
<path d="M128.859 88.6323L131.139 85.6131C131.75 84.8046 132.9 84.6446 133.708 85.2552C134.517 85.8658 134.677 87.0153 134.066 87.8238L131.786 90.8431C131.175 91.6515 130.026 91.8116 129.217 91.201C128.813 90.8957 128.571 90.4557 128.508 89.9903C128.442 89.525 128.556 89.0366 128.859 88.6323Z" fill="#E0504D" stroke="#402108" stroke-width="0.451322" stroke-linecap="round" stroke-linejoin="round"/>
<path d="M128.859 88.6318L129.981 87.1453C130.529 87.358 131.076 87.6591 131.594 88.0507C132.112 88.4423 132.554 88.8865 132.908 89.356L131.786 90.8425C131.175 91.651 130.026 91.811 129.217 91.2004C128.813 90.8951 128.571 90.4551 128.508 89.9898C128.442 89.5245 128.556 89.036 128.859 88.6318Z" fill="white" stroke="#402108" stroke-width="0.451322" stroke-linecap="round" stroke-linejoin="round"/>
<path d="M141.259 98.0229L137.943 96.2017C137.054 95.7132 136.73 94.5994 137.218 93.713C137.707 92.8245 138.821 92.5003 139.709 92.9888L143.025 94.81C143.914 95.2984 144.238 96.4122 143.75 97.3007C143.505 97.745 143.105 98.0482 142.655 98.1787C142.204 98.3113 141.703 98.2692 141.261 98.025L141.259 98.0229Z" fill="#E0504D" stroke="#402108" stroke-width="0.451322" stroke-linecap="round" stroke-linejoin="round"/>
<path d="M141.261 98.0222L139.627 97.1253C139.757 96.5526 139.978 95.9673 140.29 95.3988C140.604 94.8283 140.978 94.3293 141.393 93.9124L143.027 94.8093C143.916 95.2978 144.24 96.4116 143.751 97.3001C143.507 97.7443 143.107 98.0475 142.657 98.178C142.206 98.3107 141.705 98.2686 141.263 98.0243L141.261 98.0222Z" fill="white" stroke="#402108" stroke-width="0.451322" stroke-linecap="round" stroke-linejoin="round"/>
<path d="M141.194 75.5888C140.79 75.5888 140.4 75.6688 140.032 75.8182C139.95 75.7172 139.868 75.6203 139.781 75.5277C138.996 74.6855 138.015 74.1823 136.95 74.1823C135.425 74.1823 133.686 75.0561 133.223 76.7931C133.162 76.791 133.103 76.7889 133.042 76.7889C131.501 76.7889 130.094 77.5826 129.016 78.8964H144.971C144.971 76.7552 142.857 75.5888 141.198 75.5888H141.194Z" fill="white" stroke="#402108" stroke-width="0.451322" stroke-linecap="round" stroke-linejoin="round"/>
</g>
<defs>
<linearGradient id="paint0_linear_2_2584" x1="108.044" y1="-28.2819" x2="125.219" y2="149.219" gradientUnits="userSpaceOnUse">
<stop stop-color="#C9B0FF"/>
<stop offset="1" stop-color="#ECF3FF"/>
</linearGradient>
<clipPath id="clip0_2_2584">
<rect width="163" height="140" rx="20" fill="white"/>
</clipPath>
</defs>
</svg>
