<svg width="40" height="28" viewBox="0 0 40 28" fill="none" xmlns="http://www.w3.org/2000/svg">
<path d="M7.93027 27.9056H7.88669C6.58296 27.8987 5.30102 27.567 4.15443 26.9398C3.00784 26.3126 2.03198 25.4093 1.31329 24.3098C0.594612 23.2104 0.155291 21.9487 0.0342455 20.6367C-0.0868003 19.3246 0.114165 18.0027 0.619341 16.7879C1.12452 15.5731 1.91831 14.5029 2.93041 13.6723C3.9425 12.8416 5.14166 12.2761 6.42166 12.0257C7.70166 11.7754 9.023 11.8479 10.2686 12.237C11.5142 12.6261 12.6457 13.3197 13.5628 14.2563L14.918 15.6386L12.5023 18.0572L11.1471 16.6748C10.5099 16.0244 9.69434 15.5821 8.80586 15.4049C7.91737 15.2277 6.99673 15.3238 6.16286 15.6809C5.32899 16.0379 4.62018 16.6395 4.12801 17.4078C3.63583 18.1762 3.38289 19.0761 3.40186 19.9912C3.4226 20.885 3.70186 21.753 4.20516 22.4882C4.70846 23.2234 5.41376 23.7935 6.23398 24.1282C7.0542 24.4628 7.95342 24.5473 8.82063 24.3713C9.68784 24.1953 10.4851 23.7664 11.1139 23.1377L17.5308 16.7294L19.9092 19.1857L17.9293 21.1617L13.5047 25.5877C12.7718 26.3253 11.9022 26.9097 10.9457 27.3074C9.98923 27.7052 8.96455 27.9084 7.93027 27.9056Z" fill="white"/>
<path d="M25.5591 27.9916C24.5112 27.993 23.4736 27.784 22.5063 27.3768C21.539 26.9695 20.6614 26.3721 19.9245 25.6192L18.59 24.2578L21.0057 21.8413L22.3402 23.2027C22.7549 23.6454 23.253 24 23.8052 24.2455C24.3574 24.491 24.9525 24.6225 25.5557 24.6323C26.1588 24.6421 26.7578 24.53 27.3176 24.3026C27.8773 24.0752 28.3864 23.737 28.815 23.308C29.2436 22.879 29.5831 22.3677 29.8135 21.8042C30.044 21.2407 30.1607 20.6364 30.1568 20.0267C30.153 19.417 30.0287 18.8142 29.7912 18.2538C29.5537 17.6933 29.2078 17.1864 28.7738 16.763C28.3429 16.3174 27.8255 15.9668 27.254 15.7332C26.6825 15.4996 26.0694 15.3882 25.4532 15.4058C24.2954 15.4314 23.1915 15.9052 22.3693 16.7294L16.1162 22.972L13.7358 20.5324L15.5579 18.7201L19.9826 14.2962C20.9077 13.3705 22.044 12.6894 23.2913 12.3131C24.5386 11.9367 25.8584 11.8766 27.1342 12.1381C28.4099 12.3997 29.6022 12.9747 30.6059 13.8126C31.6095 14.6504 32.3935 15.7252 32.8887 16.942C33.3838 18.1587 33.5748 19.48 33.4448 20.7891C33.3148 22.0982 32.8678 23.3548 32.1433 24.4479C31.4188 25.5409 30.4391 26.4368 29.2908 27.0563C28.1424 27.6758 26.8608 27.9999 25.5591 28V27.9916Z" fill="white"/>
<rect x="29.1792" width="10.5168" height="10.6297" rx="5.2584" fill="#FF8A00"/>
</svg>
