<svg width="34" height="17" viewBox="0 0 34 17" fill="none" xmlns="http://www.w3.org/2000/svg">
<path d="M7.93027 16.0258H7.88669C6.58296 16.019 5.30102 15.6873 4.15443 15.0601C3.00784 14.4329 2.03198 13.5295 1.31329 12.4301C0.594612 11.3306 0.155291 10.069 0.0342455 8.75693C-0.0868003 7.44487 0.114165 6.12289 0.619341 4.90809C1.12452 3.69329 1.91831 2.62317 2.93041 1.79251C3.9425 0.96185 5.14166 0.396296 6.42166 0.145943C7.70166 -0.10441 9.023 -0.0318347 10.2686 0.357243C11.5142 0.74632 12.6457 1.43989 13.5628 2.37651L14.918 3.75886L12.5023 6.17743L11.1471 4.79508C10.5099 4.14466 9.69434 3.7023 8.80586 3.52511C7.91737 3.34793 6.99673 3.44407 6.16286 3.80112C5.32899 4.15817 4.62018 4.75972 4.12801 5.52808C3.63583 6.29644 3.38289 7.19631 3.40186 8.11145C3.4226 9.00522 3.70186 9.87329 4.20516 10.6085C4.70846 11.3437 5.41376 11.9138 6.23398 12.2484C7.0542 12.583 7.95342 12.6676 8.82063 12.4916C9.68784 12.3155 10.4851 11.8867 11.1139 11.2579L17.5308 4.84962L19.9092 7.30595L17.9293 9.28192L13.5047 13.7079C12.7718 14.4456 11.9022 15.03 10.9457 15.4277C9.98923 15.8254 8.96455 16.0287 7.93027 16.0258Z" fill="white"/>
<path d="M25.5591 16.1118C24.5112 16.1133 23.4736 15.9043 22.5063 15.497C21.539 15.0897 20.6614 14.4923 19.9245 13.7394L18.59 12.3781L21.0057 9.96158L22.3402 11.3229C22.7549 11.7657 23.253 12.1202 23.8052 12.3657C24.3574 12.6112 24.9525 12.7427 25.5557 12.7525C26.1588 12.7623 26.7578 12.6502 27.3176 12.4228C27.8773 12.1954 28.3864 11.8573 28.815 11.4282C29.2436 10.9992 29.5831 10.4879 29.8135 9.92446C30.044 9.36099 30.1607 8.75666 30.1568 8.14696C30.153 7.53726 30.0287 6.93448 29.7912 6.37401C29.5537 5.81355 29.2078 5.30669 28.7738 4.88321C28.3429 4.43762 27.8255 4.087 27.254 3.85343C26.6825 3.61986 26.0694 3.50839 25.4532 3.52604C24.2954 3.55165 23.1915 4.02543 22.3693 4.84964L16.1162 11.0922L13.7358 8.65265L15.5579 6.8403L19.9826 2.41639C20.9077 1.49076 22.044 0.809672 23.2913 0.433294C24.5386 0.0569156 25.8584 -0.00316203 27.1342 0.258367C28.4099 0.519896 29.6022 1.09498 30.6059 1.93281C31.6095 2.77064 32.3935 3.84542 32.8887 5.0622C33.3838 6.27897 33.5748 7.60028 33.4448 8.90937C33.3148 10.2185 32.8678 11.4751 32.1433 12.5681C31.4188 13.6611 30.4391 14.557 29.2908 15.1765C28.1424 15.7961 26.8608 16.1202 25.5591 16.1202V16.1118Z" fill="white"/>
</svg>
