<svg width="30" height="41" viewBox="0 0 30 41" fill="none" xmlns="http://www.w3.org/2000/svg">
<path d="M20.792 29.9424C21.6603 29.4414 22.5955 29.1644 23.5615 29.5078C24.5717 29.8669 25.3212 30.7475 26.3146 31.151C27.0742 31.4596 27.9422 31.4739 28.659 31.8719C29.7622 32.4849 30.2292 33.9516 29.8649 35.1598C29.5003 36.3682 28.433 37.2853 27.2331 37.6762C26.4305 37.9375 25.5545 37.9963 24.8141 38.4017C24.0282 38.8322 23.4816 39.6077 22.7127 40.0678C21.8865 40.5624 20.8255 40.6431 19.9338 40.2794C19.0422 39.9154 18.3406 39.1155 18.0965 38.1841C17.8399 37.2054 18.0726 36.165 18.4111 35.2116C18.7496 34.2582 19.1957 33.3351 19.3829 32.3408C19.4762 31.8453 19.5059 31.3314 19.6958 30.8644C19.8853 30.3972 20.3497 30.14 20.792 29.9424Z" fill="#FFF0EF"/>
<path d="M27.7411 24.1118C28.2413 24.3457 28.6319 24.7761 28.8919 25.2631C29.1519 25.7501 29.2902 26.2931 29.3808 26.8377C29.5098 27.6135 29.5417 28.4337 29.2477 29.1631C28.9539 29.8925 28.2704 30.5071 27.4842 30.5231C26.6928 30.539 25.9823 29.9452 25.6598 29.2224C25.3372 28.4996 25.3383 27.6739 25.4333 26.8882C25.5066 26.2824 25.6373 25.6697 25.9516 25.1465C26.2662 24.6232 26.6362 23.9998 27.7411 24.1118Z" fill="#FFF0EF"/>
<path d="M19.1999 22.0753C19.9265 21.3157 21.0754 21.4472 21.7875 21.8521C22.4995 22.257 23.0131 22.9406 23.4021 23.6615C23.697 24.208 23.9333 24.7919 24.0371 25.4043C24.1408 26.0168 24.1071 26.6602 23.879 27.2378C23.728 27.6197 23.4804 27.9801 23.1183 28.1736C22.5418 28.4816 21.8231 28.2996 21.2431 27.9985C20.1085 27.4094 19.212 26.3764 18.7879 25.1705C18.6061 24.6538 18.5084 24.1015 18.5611 23.5566C18.6138 23.0117 18.8244 22.4739 19.1999 22.0753Z" fill="#FFF0EF"/>
<path d="M11.8625 32.1059C11.7527 32.647 11.8656 33.2171 12.1022 33.7159C12.3386 34.2147 12.6924 34.6492 13.0759 35.0465C13.6222 35.612 14.2623 36.1261 15.0233 36.3246C15.7842 36.5231 16.6849 36.34 17.1659 35.7179C17.6501 35.0918 17.596 34.1675 17.2076 33.4779C16.8189 32.7883 16.1551 32.2975 15.4675 31.9058C14.9371 31.6038 14.3669 31.3441 13.7594 31.2848C13.1519 31.2255 12.4305 31.1517 11.8625 32.1059Z" fill="#FFF0EF"/>
<path d="M15.3146 24.0303C14.2717 24.1618 13.693 25.1629 13.5945 25.976C13.4956 26.7891 13.7389 27.6088 14.0864 28.3506C14.3499 28.9131 14.6782 29.4505 15.1084 29.8986C15.5386 30.3466 16.0755 30.7029 16.6756 30.8635C17.072 30.9697 17.5093 30.9854 17.8801 30.8097C18.4709 30.5299 18.7528 29.8445 18.856 29.1991C19.0584 27.9369 18.7627 26.6014 18.0465 25.5426C17.7396 25.0891 17.3542 24.6814 16.885 24.3992C16.4156 24.117 15.8584 23.9661 15.3146 24.0303Z" fill="#FFF0EF"/>
<path d="M6.50457 16.1086C7.1925 16.3554 7.78736 16.7452 8.05172 17.4444C8.32815 18.1754 8.19172 19.0077 8.43549 19.7503C8.62216 20.3182 9.02322 20.8077 9.13961 21.3941C9.31887 22.2966 8.7229 23.2478 7.87905 23.6146C7.0352 23.9813 6.0217 23.8202 5.23879 23.3368C4.71502 23.0134 4.26948 22.5539 3.69493 22.3332C3.08496 22.099 2.39594 22.1602 1.77773 21.9497C1.11314 21.7232 0.567956 21.1711 0.349993 20.5035C0.13203 19.8359 0.246501 19.0687 0.649486 18.4936C1.07278 17.8896 1.76126 17.5284 2.45111 17.2673C3.14096 17.0062 3.86485 16.819 4.50611 16.4547C4.82565 16.273 5.12541 16.0474 5.47487 15.9329C5.82405 15.8187 6.18613 15.9557 6.50457 16.1086Z" fill="#FFF0EF"/>
<path d="M13.0238 17.225C13.1295 17.6135 13.0743 18.0337 12.9258 18.4079C12.7776 18.782 12.5407 19.115 12.2804 19.4222C11.9099 19.8595 11.4684 20.2639 10.9244 20.4445C10.3803 20.6251 9.71623 20.5345 9.33657 20.1047C8.95445 19.672 8.95006 18.997 9.20014 18.4768C9.45022 17.9566 9.90976 17.5682 10.3918 17.2505C10.7635 17.0057 11.1659 16.7896 11.6051 16.7177C12.0438 16.6458 12.5651 16.5577 13.0238 17.225Z" fill="#FFF0EF"/>
<path d="M10.1292 11.5139C10.8943 11.56 11.3626 12.2611 11.473 12.848C11.5833 13.4349 11.4455 14.043 11.2276 14.5991C11.0623 15.0208 10.849 15.4276 10.5575 15.7738C10.2657 16.1202 9.89205 16.4049 9.46299 16.5501C9.17941 16.6462 8.86208 16.6783 8.584 16.5682C8.14093 16.3928 7.90348 15.9072 7.79752 15.4427C7.59054 14.5338 7.74234 13.5483 8.21313 12.744C8.4149 12.3995 8.67596 12.0846 9.004 11.857C9.33204 11.6294 9.73064 11.493 10.1292 11.5139Z" fill="#FFF0EF"/>
<path d="M1.09112 12.1617C0.738369 12.3555 0.474562 12.6871 0.308482 13.0539C0.142402 13.4206 0.0674602 13.8223 0.0273813 14.2228C-0.0297173 14.7932 -0.0137962 15.3916 0.234363 15.9083C0.482797 16.4252 1.00904 16.8397 1.58195 16.8142C2.15842 16.7884 2.64733 16.3225 2.84772 15.7814C3.04812 15.2401 3.00831 14.6395 2.9018 14.0723C2.81972 13.635 2.69564 13.1953 2.44199 12.8296C2.18862 12.464 1.88968 12.0278 1.09112 12.1617Z" fill="#FFF0EF"/>
<path d="M7.20993 10.2752C6.64526 9.75692 5.81568 9.90708 5.31689 10.2357C4.8181 10.564 4.47661 11.0856 4.2279 11.6288C4.03931 12.0406 3.89519 12.4765 3.84852 12.927C3.80213 13.3775 3.85703 13.8441 4.05056 14.2534C4.17849 14.5241 4.37586 14.7747 4.64845 14.8983C5.08246 15.0951 5.59662 14.9287 6.00454 14.682C6.802 14.1994 7.40538 13.4055 7.65684 12.5078C7.76445 12.1235 7.80946 11.7169 7.74523 11.3227C7.68072 10.9285 7.50201 10.5472 7.20993 10.2752Z" fill="#FFF0EF"/>
<path d="M20.9847 5.44647C21.6394 5.53377 22.2392 5.76546 22.6054 6.33315C22.9883 6.92665 23.0257 7.68787 23.3822 8.29784C23.6548 8.76423 24.1023 9.12082 24.3164 9.61687C24.6461 10.3803 24.3002 11.3339 23.6241 11.8185C22.948 12.3027 22.022 12.3527 21.2383 12.0743C20.714 11.8882 20.2333 11.5665 19.6837 11.4805C19.1004 11.3894 18.5033 11.5744 17.9167 11.5055C17.2864 11.4317 16.7001 11.0474 16.3808 10.4989C16.0615 9.9504 16.0168 9.25067 16.2639 8.66623C16.5233 8.05215 17.063 7.6025 17.623 7.24069C18.183 6.87888 18.7869 6.57609 19.2846 6.13248C19.5325 5.91122 19.7546 5.65483 20.0414 5.48737C20.3283 5.31965 20.6742 5.37181 20.9847 5.44647Z" fill="#FFF0EF"/>
<path d="M26.9565 5.19536C27.1237 5.51846 27.1547 5.90031 27.0946 6.25909C27.0344 6.61788 26.8884 6.95718 26.7168 7.27781C26.4722 7.7346 26.159 8.17574 25.7124 8.43845C25.2658 8.70116 24.6618 8.74728 24.2448 8.43955C23.8251 8.1299 23.6931 7.53421 23.8152 7.02718C23.9374 6.52016 24.2698 6.08945 24.6355 5.71748C24.9174 5.43062 25.232 5.16324 25.6064 5.01638C25.9809 4.86951 26.4247 4.69272 26.9565 5.19536Z" fill="#FFF0EF"/>
<path d="M23.3147 0.698862C23.9996 0.594272 24.5464 1.1249 24.7553 1.6226C24.9642 2.12029 24.9577 2.68359 24.8709 3.21642C24.805 3.6205 24.6936 4.02019 24.5017 4.38172C24.3098 4.74326 24.0334 5.06554 23.682 5.27554C23.4498 5.41417 23.1755 5.50284 22.9087 5.45836C22.4838 5.38754 22.1818 5.00349 22.0001 4.61314C21.6446 3.84944 21.5916 2.94959 21.8551 2.14939C21.9679 1.80652 22.139 1.47903 22.3858 1.21549C22.6323 0.951961 22.9584 0.75596 23.3147 0.698862Z" fill="#FFF0EF"/>
<path d="M15.4519 2.98658C15.1771 3.22485 15.0069 3.56799 14.9298 3.92349C14.8526 4.27898 14.8628 4.6482 14.9034 5.00973C14.9614 5.52472 15.0887 6.05041 15.4063 6.45998C15.724 6.86955 16.2678 7.13611 16.769 7.00462C17.2736 6.8723 17.617 6.36802 17.6914 5.85167C17.7658 5.33531 17.6164 4.81236 17.4147 4.33114C17.259 3.96027 17.066 3.59544 16.7726 3.32038C16.4789 3.04532 16.1319 2.71673 15.4519 2.98658Z" fill="#FFF0EF"/>
<path d="M20.5001 0.157616C19.9028 -0.192937 19.1981 0.097223 18.8198 0.48209C18.4413 0.866957 18.2387 1.39265 18.122 1.91971C18.0336 2.3194 17.9889 2.732 18.0333 3.13882C18.0778 3.54565 18.2151 3.94754 18.4635 4.27256C18.6279 4.48751 18.8497 4.67143 19.1141 4.7288C19.5349 4.82022 19.9577 4.57562 20.2712 4.28025C20.8842 3.7024 21.2668 2.88655 21.3184 2.04571C21.3407 1.68555 21.3031 1.31771 21.1716 0.981703C21.0401 0.645699 20.8098 0.342638 20.5001 0.157616Z" fill="#FFF0EF"/>
</svg>
