<svg width="26" height="30" viewBox="0 0 26 30" fill="none" xmlns="http://www.w3.org/2000/svg">
<path d="M8.87473 19.3092C8.03666 18.8257 7.13394 18.5583 6.20154 18.8898C5.22649 19.2363 4.50314 20.0863 3.54425 20.4758C2.8111 20.7736 1.97328 20.7874 1.28147 21.1716C0.21659 21.7633 -0.2341 23.179 0.117768 24.3451C0.469637 25.5114 1.4998 26.3967 2.65795 26.774C3.43269 27.0262 4.27819 27.0829 4.99279 27.4743C5.75137 27.8897 6.2789 28.6382 7.02106 29.0823C7.81859 29.5598 8.84268 29.6377 9.70327 29.2866C10.5639 28.9353 11.2411 28.1632 11.4767 27.2639C11.7244 26.3193 11.4997 25.3151 11.173 24.3949C10.8463 23.4747 10.4157 22.5836 10.235 21.6239C10.145 21.1457 10.1163 20.6496 9.93299 20.1989C9.74991 19.7482 9.30185 19.5 8.87473 19.3092Z" fill="#FFF0EF"/>
<path d="M2.16807 13.6829C1.68531 13.9086 1.30827 14.3241 1.05735 14.7941C0.80643 15.2642 0.672888 15.7883 0.585451 16.314C0.460919 17.0627 0.430186 17.8544 0.713695 18.5584C0.997203 19.2624 1.65696 19.8557 2.41581 19.8711C3.17969 19.8864 3.86541 19.3133 4.17674 18.6157C4.48807 17.918 4.48701 17.121 4.39534 16.3627C4.32459 15.7779 4.19847 15.1865 3.89509 14.6815C3.59171 14.1765 3.23427 13.5748 2.16807 13.6829Z" fill="#FFF0EF"/>
<path d="M10.4125 11.7168C9.71111 10.9837 8.60226 11.1106 7.91495 11.5014C7.22764 11.8922 6.73189 12.552 6.3567 13.2477C6.07213 13.7756 5.844 14.3389 5.74385 14.93C5.64369 15.5211 5.67628 16.1422 5.89646 16.6997C6.04193 17.0682 6.2812 17.4161 6.63069 17.6029C7.1871 17.9002 7.88077 17.7245 8.44063 17.4339C9.53572 16.8653 10.4011 15.8682 10.8104 14.7042C10.9858 14.2056 11.0802 13.6725 11.0293 13.1465C10.9782 12.6203 10.7747 12.1015 10.4125 11.7168Z" fill="#FFF0EF"/>
<path d="M17.4931 21.3974C17.5991 21.9196 17.4902 22.47 17.2618 22.9514C17.0334 23.4328 16.6921 23.8523 16.322 24.2357C15.7947 24.7815 15.1768 25.2778 14.4423 25.4693C13.7079 25.6609 12.8385 25.4842 12.3743 24.8838C11.9069 24.2794 11.9591 23.3873 12.334 22.7217C12.7092 22.0561 13.3499 21.5824 14.0139 21.2043C14.5258 20.9128 15.0761 20.6621 15.6625 20.6049C16.2488 20.5477 16.9449 20.4764 17.4931 21.3974Z" fill="#FFF0EF"/>
<path d="M14.1614 13.6041C15.168 13.731 15.7263 14.6974 15.8217 15.4822C15.9171 16.267 15.6823 17.0582 15.3469 17.7741C15.0925 18.3167 14.7756 18.8358 14.3604 19.2682C13.9452 19.7006 13.427 20.0445 12.848 20.1995C12.4654 20.3021 12.0433 20.3172 11.6854 20.1476C11.1152 19.8776 10.8431 19.216 10.7434 18.5931C10.5482 17.3748 10.8335 16.0858 11.5248 15.0638C11.821 14.6261 12.193 14.2326 12.6459 13.9602C13.0987 13.6879 13.6365 13.5421 14.1614 13.6041Z" fill="#FFF0EF"/>
<path d="M22.6654 5.95575C22.0014 6.19395 21.4272 6.5702 21.1721 7.24505C20.9053 7.95064 21.0372 8.75401 20.8017 9.47073C20.6215 10.0189 20.2344 10.4916 20.1221 11.0576C19.949 11.9288 20.5243 12.8469 21.3388 13.2009C22.1532 13.5548 23.1315 13.3993 23.8871 12.9327C24.3927 12.6206 24.8227 12.177 25.3773 11.964C25.9658 11.738 26.6311 11.7971 27.2278 11.5939C27.8693 11.3753 28.3955 10.8424 28.6058 10.198C28.8162 9.55366 28.7057 8.81309 28.3168 8.258C27.9082 7.67508 27.2437 7.3264 26.5778 7.07442C25.912 6.82244 25.2133 6.64174 24.5943 6.29013C24.2859 6.11499 23.9966 5.89693 23.6593 5.78644C23.322 5.67595 22.9728 5.80817 22.6654 5.95575Z" fill="#FFF0EF"/>
<path d="M16.3733 7.03544C16.2712 7.41036 16.3245 7.81601 16.4678 8.17715C16.6112 8.53829 16.8396 8.85969 17.0908 9.15619C17.4485 9.57827 17.8745 9.96856 18.3997 10.1429C18.9251 10.317 19.5658 10.2298 19.9322 9.81488C20.3008 9.3973 20.3053 8.74576 20.0639 8.24366C19.8225 7.74156 19.379 7.36637 18.9137 7.06007C18.555 6.82373 18.1665 6.61521 17.7428 6.54579C17.3189 6.4761 16.8157 6.39132 16.3733 7.03544Z" fill="#FFF0EF"/>
<path d="M19.1677 1.52247C18.4292 1.56699 17.9772 2.2437 17.8707 2.81018C17.7642 3.37667 17.8972 3.96356 18.1076 4.50037C18.2671 4.90735 18.473 5.30002 18.7543 5.63414C19.036 5.96852 19.3966 6.24328 19.8107 6.38345C20.0844 6.47618 20.3907 6.50718 20.6591 6.40093C21.0868 6.23162 21.316 5.76291 21.4183 5.3146C21.618 4.43731 21.4715 3.4861 21.0171 2.70976C20.8224 2.37723 20.5704 2.07333 20.2538 1.85367C19.9371 1.63376 19.5527 1.50234 19.1677 1.52247Z" fill="#FFF0EF"/>
<path d="M21.9833 0.326896C22.5283 -0.173351 23.329 -0.0284167 23.8105 0.288742C24.2919 0.605635 24.6215 1.10906 24.8616 1.63342C25.0436 2.03086 25.1827 2.45162 25.2278 2.88642C25.2725 3.32122 25.2195 3.77166 25.0327 4.16671C24.9093 4.42797 24.7188 4.66988 24.4559 4.78911C24.037 4.97908 23.5408 4.81852 23.147 4.58032C22.3773 4.11452 21.7949 3.34825 21.5522 2.48182C21.4484 2.11088 21.4049 1.71847 21.4669 1.33799C21.5289 0.957506 21.7014 0.589737 21.9833 0.326896Z" fill="#FFF0EF"/>
</svg>
